  0
SECTION
  2
HEADER
  9
$ACADVER
  1
AC1009
  9
$INSBASE
 10
0.0
 20
0.0
 30
0.0
  9
$EXTMIN
 10
-0.0512748498781548
 20
-0.0388212694160757
 30
-0.0000000000000058
  9
$EXTMAX
 10
800.0256094396871731
 20
600.0867351978786246
 30
0.0000000000000104
  9
$LIMMIN
 10
0.0
 20
0.0
  9
$LIMMAX
 10
420.0
 20
297.0
  9
$ORTHOMODE
 70
     0
  9
$REGENMODE
 70
     1
  9
$FILLMODE
 70
     1
  9
$QTEXTMODE
 70
     0
  9
$MIRRTEXT
 70
     0
  9
$DRAGMODE
 70
     2
  9
$LTSCALE
 40
1.0
  9
$OSMODE
 70
    37
  9
$ATTMODE
 70
     1
  9
$TEXTSIZE
 40
2.5
  9
$TRACEWID
 40
1.0
  9
$TEXTSTYLE
  7
STANDARD
  9
$CLAYER
  8
0
  9
$CELTYPE
  6
BYLAYER
  9
$CECOLOR
 62
   256
  9
$DIMSCALE
 40
1.0
  9
$DIMASZ
 40
2.5
  9
$DIMEXO
 40
0.625
  9
$DIMDLI
 40
3.75
  9
$DIMRND
 40
0.0
  9
$DIMDLE
 40
0.0
  9
$DIMEXE
 40
1.25
  9
$DIMTP
 40
0.0
  9
$DIMTM
 40
0.0
  9
$DIMTXT
 40
2.5
  9
$DIMCEN
 40
2.5
  9
$DIMTSZ
 40
0.0
  9
$DIMTOL
 70
     0
  9
$DIMLIM
 70
     0
  9
$DIMTIH
 70
     0
  9
$DIMTOH
 70
     0
  9
$DIMSE1
 70
     0
  9
$DIMSE2
 70
     0
  9
$DIMTAD
 70
     1
  9
$DIMZIN
 70
     8
  9
$DIMBLK
  1

  9
$DIMASO
 70
     1
  9
$DIMSHO
 70
     1
  9
$DIMPOST
  1

  9
$DIMAPOST
  1

  9
$DIMALT
 70
     0
  9
$DIMALTD
 70
     3
  9
$DIMALTF
 40
0.03937007874016
  9
$DIMLFAC
 40
1.0
  9
$DIMTOFL
 70
     1
  9
$DIMTVP
 40
0.0
  9
$DIMTIX
 70
     0
  9
$DIMSOXD
 70
     0
  9
$DIMSAH
 70
     0
  9
$DIMBLK1
  1

  9
$DIMBLK2
  1

  9
$DIMSTYLE
  2
ISO-25
  9
$DIMCLRD
 70
     0
  9
$DIMCLRE
 70
     0
  9
$DIMCLRT
 70
     0
  9
$DIMTFAC
 40
1.0
  9
$DIMGAP
 40
0.625
  9
$LUNITS
 70
     2
  9
$LUPREC
 70
     4
  9
$SKETCHINC
 40
1.0
  9
$FILLETRAD
 40
0.0
  9
$AUNITS
 70
     0
  9
$AUPREC
 70
     0
  9
$MENU
  1
.
  9
$ELEVATION
 40
0.0
  9
$PELEVATION
 40
0.0
  9
$THICKNESS
 40
0.0
  9
$LIMCHECK
 70
     0
  9
$BLIPMODE
 70
     0
  9
$CHAMFERA
 40
0.0
  9
$CHAMFERB
 40
0.0
  9
$SKPOLY
 70
     0
  9
$TDCREATE
 40
2459877.5022569447755814
  9
$TDUPDATE
 40
2459892.7802546299062669
  9
$TDINDWG
 40
0.236412037
  9
$TDUSRTIMER
 40
0.236412037
  9
$USRTIMER
 70
     1
  9
$ANGBASE
 50
0.0
  9
$ANGDIR
 70
     0
  9
$PDMODE
 70
     0
  9
$PDSIZE
 40
0.0
  9
$PLINEWID
 40
0.0
  9
$COORDS
 70
     1
  9
$SPLFRAME
 70
     0
  9
$SPLINETYPE
 70
     6
  9
$SPLINESEGS
 70
     8
  9
$ATTDIA
 70
     1
  9
$ATTREQ
 70
     1
  9
$HANDLING
 70
     1
  9
$HANDSEED
  5
89F
  9
$SURFTAB1
 70
     6
  9
$SURFTAB2
 70
     6
  9
$SURFTYPE
 70
     6
  9
$SURFU
 70
     6
  9
$SURFV
 70
     6
  9
$UCSNAME
  2

  9
$UCSORG
 10
0.0
 20
0.0
 30
0.0
  9
$UCSXDIR
 10
1.0
 20
0.0
 30
0.0
  9
$UCSYDIR
 10
0.0
 20
1.0
 30
0.0
  9
$PUCSNAME
  2

  9
$PUCSORG
 10
0.0
 20
0.0
 30
0.0
  9
$PUCSXDIR
 10
1.0
 20
0.0
 30
0.0
  9
$PUCSYDIR
 10
0.0
 20
1.0
 30
0.0
  9
$USERI1
 70
     0
  9
$USERI2
 70
     0
  9
$USERI3
 70
     0
  9
$USERI4
 70
     0
  9
$USERI5
 70
     0
  9
$USERR1
 40
0.0
  9
$USERR2
 40
0.0
  9
$USERR3
 40
0.0
  9
$USERR4
 40
0.0
  9
$USERR5
 40
0.0
  9
$WORLDVIEW
 70
     1
  9
$SHADEDGE
 70
     3
  9
$SHADEDIF
 70
    70
  9
$TILEMODE
 70
     1
  9
$MAXACTVP
 70
    64
  9
$PLIMCHECK
 70
     0
  9
$PEXTMIN
 10
0.0
 20
0.0
 30
0.0
  9
$PEXTMAX
 10
0.0
 20
0.0
 30
0.0
  9
$PLIMMIN
 10
0.0
 20
0.0
  9
$PLIMMAX
 10
12.0
 20
9.0
  9
$UNITMODE
 70
     0
  9
$VISRETAIN
 70
     1
  9
$PLINEGEN
 70
     0
  9
$PSLTSCALE
 70
     1
  0
ENDSEC
  0
SECTION
  2
TABLES
  0
TABLE
  2
VPORT
 70
     1
  0
VPORT
  2
*ACTIVE
 70
     0
 10
0.0
 20
0.0
 11
1.0
 21
1.0
 12
399.9871672949046228
 22
300.0239569642312745
 13
0.0
 23
0.0
 14
10.0
 24
10.0
 15
10.0
 25
10.0
 16
0.0
 26
0.0
 36
1.0
 17
0.0
 27
0.0
 37
0.0
 40
605.3064965231274073
 41
2.7478386167146969
 42
50.0
 43
0.0
 44
0.0
 50
0.0
 51
0.0
 71
     0
 72
  1000
 73
     1
 74
     3
 75
     0
 76
     1
 77
     0
 78
     0
  0
ENDTAB
  0
TABLE
  2
LTYPE
 70
     2
  0
LTYPE
  2
CONTINUOUS
 70
     0
  3
Solid line
 72
    65
 73
     0
 40
0.0
  0
ENDTAB
  0
TABLE
  2
LAYER
 70
     1
  0
LAYER
  2
0
 70
     0
 62
     7
  6
CONTINUOUS
  0
ENDTAB
  0
TABLE
  2
STYLE
 70
     3
  0
STYLE
  2
STANDARD
 70
     0
 40
0.0
 41
1.0
 50
0.0
 71
     0
 42
2.5
  3
txt
  4

  0
STYLE
  2
ANOTATIVO
 70
     0
 40
0.0
 41
1.0
 50
0.0
 71
     0
 42
2.5
  3
txt
  4

  0
ENDTAB
  0
TABLE
  2
VIEW
 70
     0
  0
ENDTAB
  0
TABLE
  2
UCS
 70
     0
  0
ENDTAB
  0
TABLE
  2
APPID
 70
     9
  0
APPID
  2
ACAD
 70
     0
  0
APPID
  2
ACAD_PSEXT
 70
     0
  0
APPID
  2
ACADANNOPO
 70
     0
  0
APPID
  2
ACADANNOTATIVE
 70
     0
  0
APPID
  2
ACAD_DSTYLE_DIMJAG
 70
     0
  0
APPID
  2
ACAD_DSTYLE_DIMTALN
 70
     0
  0
APPID
  2
ACAD_MLEADERVER
 70
     0
  0
APPID
  2
ACAD_NAV_VCDISPLAY
 70
     0
  0
APPID
  2
ACAD_EXEMPT_FROM_CAD_STANDARDS
 70
     0
  0
ENDTAB
  0
TABLE
  2
DIMSTYLE
 70
     5
  0
DIMSTYLE
  2
STANDARD
 70
     0
  3

  4

  5

  6

  7

 40
1.0
 41
0.18
 42
0.0625
 43
0.38
 44
0.18
 45
0.0
 46
0.0
 47
0.0
 48
0.0
140
0.18
141
0.09
142
0.0
143
25.3999999999999986
144
1.0
145
0.0
146
1.0
147
0.09
 71
     0
 72
     0
 73
     1
 74
     1
 75
     0
 76
     0
 77
     0
 78
     0
170
     0
171
     2
172
     0
173
     0
174
     0
175
     0
176
     0
177
     0
178
     0
  0
DIMSTYLE
  2
ANOTATIVO
 70
     0
  3

  4

  5

  6

  7

 40
0.0
 41
2.5
 42
0.625
 43
3.75
 44
1.25
 45
0.0
 46
0.0
 47
0.0
 48
0.0
140
2.5
141
2.5
142
0.0
143
0.03937007874016
144
1.0
145
0.0
146
1.0
147
0.625
 71
     0
 72
     0
 73
     0
 74
     0
 75
     0
 76
     0
 77
     1
 78
     8
170
     0
171
     3
172
     1
173
     0
174
     0
175
     0
176
     0
177
     0
178
     0
  0
DIMSTYLE
  2
ISO-25
 70
     0
  3

  4

  5

  6

  7

 40
1.0
 41
2.5
 42
0.625
 43
3.75
 44
1.25
 45
0.0
 46
0.0
 47
0.0
 48
0.0
140
2.5
141
2.5
142
0.0
143
0.03937007874016
144
1.0
145
0.0
146
1.0
147
0.625
 71
     0
 72
     0
 73
     0
 74
     0
 75
     0
 76
     0
 77
     1
 78
     8
170
     0
171
     3
172
     1
173
     0
174
     0
175
     0
176
     0
177
     0
178
     0
  0
ENDTAB
  0
ENDSEC
  0
SECTION
  2
BLOCKS
  0
BLOCK
  8
0
  2
$MODEL_SPACE
 70
     0
 10
0.0
 20
0.0
 30
0.0
  3
$MODEL_SPACE
  1

  0
ENDBLK
  5
21
  8
0
  0
BLOCK
 67
     1
  8
0
  2
$PAPER_SPACE
 70
     0
 10
0.0
 20
0.0
 30
0.0
  3
$PAPER_SPACE
  1

  0
ENDBLK
  5
D5
 67
     1
  8
0
  0
ENDSEC
  0
SECTION
  2
ENTITIES
  0
POLYLINE
  5
2D4
  8
0
 66
     1
 10
0.0
 20
0.0
 30
0.0
 70
     1
  0
VERTEX
  5
83D
  8
0
 10
6.9850577053684901
 20
473.609981345952292
 30
0.0
  0
VERTEX
  5
83E
  8
0
 10
606.9850577053684901
 20
473.609981345952292
 30
0.0
  0
VERTEX
  5
83F
  8
0
 10
606.9850577053684901
 20
593.609981345952292
 30
0.0
  0
VERTEX
  5
840
  8
0
 10
6.9850577053684901
 20
593.609981345952292
 30
0.0
  0
SEQEND
  5
841
  8
0
  0
POLYLINE
  5
2F3
  8
0
 66
     1
 10
0.0
 20
0.0
 30
0.0
 70
     1
  0
VERTEX
  5
842
  8
0
 10
736.6653474027143602
 20
181.5326781881676084
 30
0.0
  0
VERTEX
  5
843
  8
0
 10
736.6653474027143602
 20
221.5326781881676936
 30
0.0
  0
VERTEX
  5
844
  8
0
 10
716.6653474027142465
 20
221.5326781881676936
 30
0.0
  0
VERTEX
  5
845
  8
0
 10
716.6653474027142465
 20
181.5326781881676084
 30
0.0
  0
SEQEND
  5
846
  8
0
  0
POLYLINE
  5
2F4
  8
0
 66
     1
 10
0.0
 20
0.0
 30
0.0
 70
     1
  0
VERTEX
  5
847
  8
0
 10
766.211887941740315
 20
182.5184379564315975
 30
0.0
  0
VERTEX
  5
848
  8
0
 10
766.211887941740315
 20
222.5184379564315975
 30
0.0
  0
VERTEX
  5
849
  8
0
 10
746.211887941740315
 20
222.5184379564315975
 30
0.0
  0
VERTEX
  5
84A
  8
0
 10
746.211887941740315
 20
182.5184379564315975
 30
0.0
  0
SEQEND
  5
84B
  8
0
  0
POLYLINE
  5
2F5
  8
0
 66
     1
 10
0.0
 20
0.0
 30
0.0
 70
     1
  0
VERTEX
  5
84C
  8
0
 10
736.3726086297682514
 20
235.0441350321426057
 30
0.0
  0
VERTEX
  5
84D
  8
0
 10
736.3726086297682514
 20
275.0441350321426057
 30
0.0
  0
VERTEX
  5
84E
  8
0
 10
716.3726086297683651
 20
275.0441350321426057
 30
0.0
  0
VERTEX
  5
84F
  8
0
 10
716.3726086297683651
 20
235.0441350321426057
 30
0.0
  0
SEQEND
  5
850
  8
0
  0
POLYLINE
  5
2F6
  8
0
 66
     1
 10
0.0
 20
0.0
 30
0.0
 70
     1
  0
VERTEX
  5
851
  8
0
 10
767.8889185380629669
 20
234.8417933309056025
 30
0.0
  0
VERTEX
  5
852
  8
0
 10
767.8889185380629669
 20
274.8417933309056025
 30
0.0
  0
VERTEX
  5
853
  8
0
 10
747.8889185380629669
 20
274.8417933309056025
 30
0.0
  0
VERTEX
  5
854
  8
0
 10
747.8889185380629669
 20
234.8417933309056025
 30
0.0
  0
SEQEND
  5
855
  8
0
  0
POLYLINE
  5
2F7
  8
0
 66
     1
 10
0.0
 20
0.0
 30
0.0
 70
     1
  0
VERTEX
  5
856
  8
0
 10
6.7540628604792801
 20
4.8508748690042012
 30
0.0
  0
VERTEX
  5
857
  8
0
 10
646.7540628604791664
 20
4.8508748690042012
 30
0.0
  0
VERTEX
  5
858
  8
0
 10
646.7540628604791664
 20
462.8508748690042012
 30
0.0
  0
VERTEX
  5
859
  8
0
 10
6.7540628604792801
 20
462.8508748690042012
 30
0.0
  0
SEQEND
  5
85A
  8
0
  0
POLYLINE
  5
303
  8
0
 66
     1
 10
0.0
 20
0.0
 30
0.0
 70
     1
  0
VERTEX
  5
85B
  8
0
 10
673.3134566515273036
 20
6.0203324303456611
 30
0.0
  0
VERTEX
  5
85C
  8
0
 10
653.3134566515273036
 20
6.0203324303456611
 30
0.0
  0
VERTEX
  5
85D
  8
0
 10
653.3134566515276447
 20
464.0203324303456043
 30
0.0
  0
VERTEX
  5
85E
  8
0
 10
673.3134566515276447
 20
464.0203324303456043
 30
0.0
  0
SEQEND
  5
85F
  8
0
  0
POLYLINE
  5
305
  8
0
 66
     1
 10
0.0
 20
0.0
 30
0.0
 70
     1
  0
VERTEX
  5
860
  8
0
 10
678.8758699505973482
 20
424.7195825901616786
 30
0.0
  0
VERTEX
  5
861
  8
0
 10
698.8758699505973482
 20
424.7195825901621902
 30
0.0
  0
VERTEX
  5
862
  8
0
 10
698.8758699505997356
 20
6.7195825901621902
 30
0.0
  0
VERTEX
  5
863
  8
0
 10
678.8758699505997356
 20
6.7195825901619619
 30
0.0
  0
SEQEND
  5
864
  8
0
  0
POLYLINE
  5
30C
  8
0
 66
     1
 10
0.0
 20
0.0
 30
0.0
 70
     1
  0
VERTEX
  5
865
  8
0
 10
775.8024257064415679
 20
8.1563519236178763
 30
0.0
  0
VERTEX
  5
866
  8
0
 10
755.8024257064416815
 20
8.1563519236178763
 30
0.0
  0
VERTEX
  5
867
  8
0
 10
755.8024257064416815
 20
158.156351923617791
 30
0.0
  0
VERTEX
  5
868
  8
0
 10
775.8024257064415679
 20
158.156351923617791
 30
0.0
  0
SEQEND
  5
869
  8
0
  0
POLYLINE
  5
30D
  8
0
 66
     1
 10
0.0
 20
0.0
 30
0.0
 70
     1
  0
VERTEX
  5
86A
  8
0
 10
749.7509173928929158
 20
7.7740410538881397
 30
0.0
  0
VERTEX
  5
86B
  8
0
 10
729.7509173928929158
 20
7.7740410538881397
 30
0.0
  0
VERTEX
  5
86C
  8
0
 10
729.7509173928929158
 20
157.7740410538881122
 30
0.0
  0
VERTEX
  5
86D
  8
0
 10
749.7509173928929158
 20
157.7740410538881122
 30
0.0
  0
SEQEND
  5
86E
  8
0
  0
POLYLINE
  5
30E
  8
0
 66
     1
 10
0.0
 20
0.0
 30
0.0
 70
     1
  0
VERTEX
  5
86F
  8
0
 10
724.1938504392301184
 20
7.9764507397212583
 30
0.0
  0
VERTEX
  5
870
  8
0
 10
704.1938504392301184
 20
7.9764507397212583
 30
0.0
  0
VERTEX
  5
871
  8
0
 10
704.1938504392301184
 20
157.9764507397212014
 30
0.0
  0
VERTEX
  5
872
  8
0
 10
724.1938504392301184
 20
157.9764507397212014
 30
0.0
  0
SEQEND
  5
873
  8
0
  0
POLYLINE
  5
34E
  8
0
 66
     1
 10
0.0
 20
0.0
 30
0.0
 70
     1
  0
VERTEX
  5
874
  8
0
 10
743.4114230064888034
 20
338.7468956562167932
 30
0.0
  0
VERTEX
  5
875
  8
0
 10
763.4114230064888034
 20
338.7468956562167932
 30
0.0
  0
VERTEX
  5
876
  8
0
 10
763.4114230064888034
 20
349.5468956562166909
 30
0.0
  0
VERTEX
  5
877
  8
0
 10
743.4114230064888034
 20
349.5468956562166909
 30
0.0
  0
SEQEND
  5
878
  8
0
  0
POLYLINE
  5
350
  8
0
 66
     1
 10
0.0
 20
0.0
 30
0.0
 70
     1
  0
VERTEX
  5
879
  8
0
 10
739.9590805461248237
 20
314.2102814583486179
 30
0.0
  0
VERTEX
  5
87A
  8
0
 10
763.9590805461248237
 20
314.2102814583486179
 30
0.0
  0
VERTEX
  5
87B
  8
0
 10
763.9590805461248237
 20
290.2102814583486179
 30
0.0
  0
VERTEX
  5
87C
  8
0
 10
739.9590805461248237
 20
290.2102814583486179
 30
0.0
  0
SEQEND
  5
87D
  8
0
  0
POLYLINE
  5
352
  8
0
 66
     1
 10
0.0
 20
0.0
 30
0.0
 70
     1
  0
VERTEX
  5
87E
  8
0
 10
738.2648681416420686
 20
337.8880942247856183
 30
0.0
  0
VERTEX
  5
87F
  8
0
 10
718.2648681416421823
 20
337.8880942247856183
 30
0.0
  0
VERTEX
  5
880
  8
0
 10
718.2648681416421823
 20
351.8880942247856183
 30
0.0
  0
VERTEX
  5
881
  8
0
 10
735.0464773370445073
 20
351.8880942247856183
 30
0.0
  0
SEQEND
  5
882
  8
0
  0
POLYLINE
  5
353
  8
0
 66
     1
 10
0.0
 20
0.0
 30
0.0
 70
     1
  0
VERTEX
  5
883
  8
0
 10
737.6141086656715515
 20
356.1256663548469987
 30
0.0
  0
VERTEX
  5
884
  8
0
 10
717.6141086656715515
 20
356.1256663548469987
 30
0.0
  0
VERTEX
  5
885
  8
0
 10
717.6141086656715515
 20
370.1256663548469987
 30
0.0
  0
VERTEX
  5
886
  8
0
 10
734.3957178610739902
 20
370.1256663548469987
 30
0.0
  0
SEQEND
  5
887
  8
0
  0
POLYLINE
  5
358
  8
0
 66
     1
 10
0.0
 20
0.0
 30
0.0
 70
     1
  0
VERTEX
  5
888
  8
0
 10
742.9937010085754991
 20
363.9379241107948815
 30
0.0
  0
VERTEX
  5
889
  8
0
 10
742.9937010085754991
 20
353.1379241107949838
 30
0.0
  0
VERTEX
  5
88A
  8
0
 10
759.7753102039778241
 20
353.1379241107949838
 30
0.0
  0
VERTEX
  5
88B
  8
0
 10
759.7753102039778241
 20
363.9379241107948815
 30
0.0
  0
SEQEND
  5
88C
  8
0
  0
POLYLINE
  5
368
  8
0
 66
     1
 10
0.0
 20
0.0
 30
0.0
 70
     1
  0
VERTEX
  5
88D
  8
0
 10
790.0671828940421619
 20
393.9090422125373152
 30
0.0
  0
VERTEX
  5
88E
  8
0
 10
708.0671828940420482
 20
393.9090422125373152
 30
0.0
  0
VERTEX
  5
88F
  8
0
 10
708.0671828940420482
 20
420.4090422125373152
 30
0.0
  0
VERTEX
  5
890
  8
0
 10
790.0671828940421619
 20
420.4090422125373152
 30
0.0
  0
SEQEND
  5
891
  8
0
  0
POLYLINE
  5
36A
  8
0
 66
     1
 10
0.0
 20
0.0
 30
0.0
 70
     1
  0
VERTEX
  5
892
  8
0
 10
680.4603901365580896
 20
460.450576181290387
 30
0.0
  0
VERTEX
  5
893
  8
0
 10
762.4603901365579759
 20
460.450576181290387
 30
0.0
  0
VERTEX
  5
894
  8
0
 10
762.4603901365579759
 20
430.450576181290387
 30
0.0
  0
VERTEX
  5
895
  8
0
 10
680.4603901365580896
 20
430.450576181290387
 30
0.0
  0
SEQEND
  5
896
  8
0
  0
POLYLINE
  5
3BC
  8
0
 66
     1
 10
0.0
 20
0.0
 30
0.0
 70
     1
  0
VERTEX
  5
897
  8
0
 10
0.0
 20
0.0
 30
0.0
  0
VERTEX
  5
898
  8
0
 10
800.0
 20
0.0
 30
0.0
  0
VERTEX
  5
899
  8
0
 10
800.0
 20
600.0
 30
0.0
  0
VERTEX
  5
89A
  8
0
 10
0.0
 20
600.0
 30
0.0
  0
SEQEND
  5
89B
  8
0
  0
ENDSEC
  0
EOF
