  0
SECTION
  2
HEADER
  9
$ACADVER
  1
AC1014
  9
$HANDSEED
  5
FFFF
  9
$MEASUREMENT
 70
     1
  0
ENDSEC
  0
SECTION
  2
TABLES
  0
TABLE
  2
VPORT
  5
8
330
0
100
AcDbSymbolTable
 70
     4
  0
VPORT
  5
2E
330
8
100
AcDbSymbolTableRecord
100
AcDbViewportTableRecord
  2
*ACTIVE
 70
     0
 10
0.0
 20
0.0
 11
1.0
 21
1.0
 12
210.0
 22
148.5
 13
0.0
 23
0.0
 14
10.0
 24
10.0
 15
10.0
 25
10.0
 16
0.0
 26
0.0
 36
1.0
 17
0.0
 27
0.0
 37
0.0
 40
341.0
 41
1.24
 42
50.0
 43
0.0
 44
0.0
 50
0.0
 51
0.0
 71
     0
 72
   100
 73
     1
 74
     3
 75
     0
 76
     0
 77
     0
 78
     0
  0
ENDTAB
  0
TABLE
  2
LTYPE
  5
5
330
0
100
AcDbSymbolTable
 70
     1
  0
LTYPE
  5
14
330
5
100
AcDbSymbolTableRecord
100
AcDbLinetypeTableRecord
  2
BYBLOCK
 70
     0
  3

 72
    65
 73
     0
 40
0.0
  0
LTYPE
  5
15
330
5
100
AcDbSymbolTableRecord
100
AcDbLinetypeTableRecord
  2
BYLAYER
 70
     0
  3

 72
    65
 73
     0
 40
0.0
  0
LTYPE
  5
16
330
5
100
AcDbSymbolTableRecord
100
AcDbLinetypeTableRecord
  2
CONTINUOUS
 70
     0
  3
Solid line
 72
    65
 73
     0
 40
0.0
  0
ENDTAB
  0
TABLE
  2
LAYER
  5
2
100
AcDbSymbolTable
 70
2
  0
LAYER
  5
50
100
AcDbSymbolTableRecord
100
AcDbLayerTableRecord
  2
0
 70
0
  6
CONTINUOUS
  0
LAYER
  5
51
100
AcDbSymbolTableRecord
100
AcDbLayerTableRecord
  2
Image
 70
0
  6
CONTINUOUS
  0
ENDTAB
  0
TABLE
  2
STYLE
  5
3
330
0
100
AcDbSymbolTable
 70
     1
  0
STYLE
  5
11
330
3
100
AcDbSymbolTableRecord
100
AcDbTextStyleTableRecord
  2
STANDARD
 70
     0
 40
0.0
 41
1.0
 50
0.0
 71
     0
 42
2.5
  3
txt
  4

  0
ENDTAB
  0
TABLE
  2
VIEW
  5
6
330
0
100
AcDbSymbolTable
 70
     0
  0
ENDTAB
  0
TABLE
  2
UCS
  5
7
330
0
100
AcDbSymbolTable
 70
     0
  0
ENDTAB
  0
TABLE
  2
APPID
  5
9
330
0
100
AcDbSymbolTable
 70
     2
  0
APPID
  5
12
330
9
100
AcDbSymbolTableRecord
100
AcDbRegAppTableRecord
  2
ACAD
 70
     0
  0
ENDTAB
  0
TABLE
  2
DIMSTYLE
  5
A
330
0
100
AcDbSymbolTable
 70
     1
  0
DIMSTYLE
105
27
330
A
100
AcDbSymbolTableRecord
100
AcDbDimStyleTableRecord
  2
ISO-25
 70
     0
  3

  4

  5

  6

  7

 40
1.0
 41
2.5
 42
0.625
 43
3.75
 44
1.25
 45
0.0
 46
0.0
 47
0.0
 48
0.0
140
2.5
141
2.5
142
0.0
143
0.03937007874016
144
1.0
145
0.0
146
1.0
147
0.625
 71
     0
 72
     0
 73
     0
 74
     0
 75
     0
 76
     0
 77
     1
 78
     8
170
     0
171
     3
172
     1
173
     0
174
     0
175
     0
176
     0
177
     0
178
     0
270
     2
271
     2
272
     2
273
     2
274
     3
340
11
275
     0
280
     0
281
     0
282
     0
283
     0
284
     8
285
     0
286
     0
287
     3
288
     0
  0
ENDTAB
  0
TABLE
  2
BLOCK_RECORD
  5
1
330
0
100
AcDbSymbolTable
 70
     1
  0
BLOCK_RECORD
  5
1F
330
1
100
AcDbSymbolTableRecord
100
AcDbBlockTableRecord
  2
*MODEL_SPACE
  0
BLOCK_RECORD
  5
1B
330
1
100
AcDbSymbolTableRecord
100
AcDbBlockTableRecord
  2
*PAPER_SPACE
  0
ENDTAB
  0
ENDSEC
  0
SECTION
  2
BLOCKS
  0
BLOCK
  5
20
330
1F
100
AcDbEntity
  8
0
100
AcDbBlockBegin
  2
*MODEL_SPACE
 70
     0
 10
0.0
 20
0.0
 30
0.0
  3
*MODEL_SPACE
  1

  0
ENDBLK
  5
21
330
1F
100
AcDbEntity
  8
0
100
AcDbBlockEnd
  0
BLOCK
  5
1C
330
1B
100
AcDbEntity
 67
     1
  8
0
100
AcDbBlockBegin
  2
*PAPER_SPACE
  1

  0
ENDBLK
  5
1D
330
1B
100
AcDbEntity
 67
     1
  8
0
100
AcDbBlockEnd
  0
ENDSEC
  0
SECTION
  2
ENTITIES
  0
SPLINE
  5
100
100
AcDbEntity
  8
Image
 62
7
100
AcDbSpline
 70
8
 71
3
 72
8
 73
4
 74
0
 40
0
 40
0
 40
0
 40
0
 40
1
 40
1
 40
1
 40
1
 10
107.019413
 20
23.672220
 30
0.0
 10
103.386338
 20
24.999900
 30
0.0
 10
100.204725
 20
26.295277
 30
0.0
 10
99.949163
 20
26.550840
 30
0.0
  0
SPLINE
  5
101
100
AcDbEntity
  8
Image
 62
7
100
AcDbSpline
 70
8
 71
3
 72
8
 73
4
 74
0
 40
0
 40
0
 40
0
 40
0
 40
1
 40
1
 40
1
 40
1
 10
99.949163
 20
26.550840
 30
0.0
 10
99.265913
 20
27.234090
 30
0.0
 10
101.600145
 20
28.817032
 30
0.0
 10
108.750000
 20
32.519062
 30
0.0
  0
SPLINE
  5
102
100
AcDbEntity
  8
Image
 62
7
100
AcDbSpline
 70
8
 71
3
 72
8
 73
4
 74
0
 40
0
 40
0
 40
0
 40
0
 40
1
 40
1
 40
1
 40
1
 10
108.750000
 20
32.519062
 30
0.0
 10
120.116760
 20
38.404507
 30
0.0
 10
129.004515
 20
40.612942
 30
0.0
 10
145.302188
 20
41.601555
 30
0.0
  0
SPLINE
  5
103
100
AcDbEntity
  8
Image
 62
7
100
AcDbSpline
 70
8
 71
3
 72
8
 73
4
 74
0
 40
0
 40
0
 40
0
 40
0
 40
1
 40
1
 40
1
 40
1
 10
145.302188
 20
41.601555
 30
0.0
 10
157.974375
 20
42.370252
 30
0.0
 10
172.876733
 20
47.293012
 30
0.0
 10
182.430885
 20
53.866447
 30
0.0
  0
SPLINE
  5
104
100
AcDbEntity
  8
Image
 62
7
100
AcDbSpline
 70
8
 71
3
 72
8
 73
4
 74
0
 40
0
 40
0
 40
0
 40
0
 40
1
 40
1
 40
1
 40
1
 10
182.430885
 20
53.866447
 30
0.0
 10
190.285912
 20
59.270850
 30
0.0
 10
209.561415
 20
68.250000
 30
0.0
 10
213.307995
 20
68.250000
 30
0.0
  0
SPLINE
  5
105
100
AcDbEntity
  8
Image
 62
7
100
AcDbSpline
 70
8
 71
3
 72
8
 73
4
 74
0
 40
0
 40
0
 40
0
 40
0
 40
1
 40
1
 40
1
 40
1
 10
213.307995
 20
68.250000
 30
0.0
 10
214.070978
 20
68.250000
 30
0.0
 10
214.349092
 20
66.706395
 30
0.0
 10
214.428758
 20
62.029403
 30
0.0
  0
SPLINE
  5
106
100
AcDbEntity
  8
Image
 62
7
100
AcDbSpline
 70
8
 71
3
 72
8
 73
4
 74
0
 40
0
 40
0
 40
0
 40
0
 40
1
 40
1
 40
1
 40
1
 10
210.579862
 20
54.413258
 30
0.0
 10
205.041862
 20
52.459080
 30
0.0
 10
193.904167
 20
46.827180
 30
0.0
 10
189.000000
 20
43.501163
 30
0.0
  0
SPLINE
  5
107
100
AcDbEntity
  8
Image
 62
7
100
AcDbSpline
 70
8
 71
3
 72
8
 73
4
 74
0
 40
0
 40
0
 40
0
 40
0
 40
1
 40
1
 40
1
 40
1
 10
189.000000
 20
43.501163
 30
0.0
 10
177.381360
 20
35.621378
 30
0.0
 10
160.707555
 20
30.009435
 30
0.0
 10
148.875000
 20
29.996190
 30
0.0
  0
SPLINE
  5
108
100
AcDbEntity
  8
Image
 62
7
100
AcDbSpline
 70
8
 71
3
 72
8
 73
4
 74
0
 40
0
 40
0
 40
0
 40
0
 40
1
 40
1
 40
1
 40
1
 10
148.875000
 20
29.996190
 30
0.0
 10
138.809100
 20
29.984940
 30
0.0
 10
125.108438
 20
26.852512
 30
0.0
 10
116.250000
 20
22.537057
 30
0.0
  0
SPLINE
  5
109
100
AcDbEntity
  8
Image
 62
7
100
AcDbSpline
 70
8
 71
3
 72
8
 73
4
 74
0
 40
0
 40
0
 40
0
 40
0
 40
1
 40
1
 40
1
 40
1
 10
116.250000
 20
22.537057
 30
0.0
 10
113.670270
 20
21.280320
 30
0.0
 10
113.511090
 20
21.299895
 30
0.0
 10
107.019413
 20
23.672220
 30
0.0
  0
LWPOLYLINE
  5
10a
100
AcDbEntity
  8
Image
 62
7
100
AcDbPolyline
 90
3
 70
0
 10
214.428758
 20
62.029403
 30
0.0
 10
214.534717
 20
55.808805
 30
0.0
 10
210.579862
 20
54.413258
 30
0.0
  0
SPLINE
  5
10b
100
AcDbEntity
  8
Image
 62
7
100
AcDbSpline
 70
8
 71
3
 72
8
 73
4
 74
0
 40
0
 40
0
 40
0
 40
0
 40
1
 40
1
 40
1
 40
1
 10
79.125000
 20
35.539770
 30
0.0
 10
78.300000
 20
36.030758
 30
0.0
 10
75.466680
 20
37.545983
 30
0.0
 10
72.828731
 20
38.906940
 30
0.0
  0
LWPOLYLINE
  5
10c
100
AcDbEntity
  8
Image
 62
7
100
AcDbPolyline
 90
1
 70
1
 10
107.019413
 20
23.672220
 30
0.0
  0
SPLINE
  5
10d
100
AcDbEntity
  8
Image
 62
7
100
AcDbSpline
 70
8
 71
3
 72
8
 73
4
 74
0
 40
0
 40
0
 40
0
 40
0
 40
1
 40
1
 40
1
 40
1
 10
71.133611
 20
43.142887
 30
0.0
 10
72.839243
 20
44.111707
 30
0.0
 10
77.718322
 20
47.233785
 30
0.0
 10
81.976005
 20
50.080837
 30
0.0
  0
SPLINE
  5
10e
100
AcDbEntity
  8
Image
 62
7
100
AcDbSpline
 70
8
 71
3
 72
8
 73
4
 74
0
 40
0
 40
0
 40
0
 40
0
 40
1
 40
1
 40
1
 40
1
 10
81.976005
 20
50.080837
 30
0.0
 10
97.107150
 20
60.198832
 30
0.0
 10
105.596685
 20
63.174720
 30
0.0
 10
123.000000
 20
64.461255
 30
0.0
  0
SPLINE
  5
10f
100
AcDbEntity
  8
Image
 62
7
100
AcDbSpline
 70
8
 71
3
 72
8
 73
4
 74
0
 40
0
 40
0
 40
0
 40
0
 40
1
 40
1
 40
1
 40
1
 10
123.000000
 20
64.461255
 30
0.0
 10
142.115527
 20
65.874360
 30
0.0
 10
154.366905
 20
69.743640
 30
0.0
 10
167.625000
 20
78.554895
 30
0.0
  0
SPLINE
  5
110
100
AcDbEntity
  8
Image
 62
7
100
AcDbSpline
 70
8
 71
3
 72
8
 73
4
 74
0
 40
0
 40
0
 40
0
 40
0
 40
1
 40
1
 40
1
 40
1
 10
167.625000
 20
78.554895
 30
0.0
 10
180.132817
 20
86.867520
 30
0.0
 10
198.822098
 20
93.897570
 30
0.0
 10
210.375000
 20
94.635480
 30
0.0
  0
LWPOLYLINE
  5
111
100
AcDbEntity
  8
Image
 62
7
100
AcDbPolyline
 90
3
 70
0
 10
72.828731
 20
38.906940
 30
0.0
 10
68.032462
 20
41.381407
 30
0.0
 10
71.133611
 20
43.142887
 30
0.0
  0
SPLINE
  5
112
100
AcDbEntity
  8
Image
 62
7
100
AcDbSpline
 70
8
 71
3
 72
8
 73
4
 74
0
 40
0
 40
0
 40
0
 40
0
 40
1
 40
1
 40
1
 40
1
 10
209.716118
 20
82.570905
 30
0.0
 10
198.960188
 20
80.697840
 30
0.0
 10
182.283345
 20
73.690860
 30
0.0
 10
171.750000
 20
66.618967
 30
0.0
  0
SPLINE
  5
113
100
AcDbEntity
  8
Image
 62
7
100
AcDbSpline
 70
8
 71
3
 72
8
 73
4
 74
0
 40
0
 40
0
 40
0
 40
0
 40
1
 40
1
 40
1
 40
1
 10
171.750000
 20
66.618967
 30
0.0
 10
159.354533
 20
58.296885
 30
0.0
 10
146.660093
 20
54.330105
 30
0.0
 10
129.000000
 20
53.260387
 30
0.0
  0
SPLINE
  5
114
100
AcDbEntity
  8
Image
 62
7
100
AcDbSpline
 70
8
 71
3
 72
8
 73
4
 74
0
 40
0
 40
0
 40
0
 40
0
 40
1
 40
1
 40
1
 40
1
 10
129.000000
 20
53.260387
 30
0.0
 10
112.819590
 20
52.280295
 30
0.0
 10
101.570123
 20
48.403455
 30
0.0
 10
87.639653
 20
39.006592
 30
0.0
  0
SPLINE
  5
115
100
AcDbEntity
  8
Image
 62
7
100
AcDbSpline
 70
8
 71
3
 72
8
 73
4
 74
0
 40
0
 40
0
 40
0
 40
0
 40
1
 40
1
 40
1
 40
1
 10
87.639653
 20
39.006592
 30
0.0
 10
83.965193
 20
36.527962
 30
0.0
 10
80.883705
 20
34.533090
 30
0.0
 10
80.791905
 20
34.573537
 30
0.0
  0
SPLINE
  5
116
100
AcDbEntity
  8
Image
 62
7
100
AcDbSpline
 70
8
 71
3
 72
8
 73
4
 74
0
 40
0
 40
0
 40
0
 40
0
 40
1
 40
1
 40
1
 40
1
 10
80.791905
 20
34.573537
 30
0.0
 10
80.700105
 20
34.613963
 30
0.0
 10
79.950000
 20
35.048790
 30
0.0
 10
79.125000
 20
35.539770
 30
0.0
  0
LWPOLYLINE
  5
117
100
AcDbEntity
  8
Image
 62
7
100
AcDbPolyline
 90
5
 70
0
 10
210.375000
 20
94.635480
 30
0.0
 10
214.125000
 20
94.875000
 30
0.0
 10
214.342568
 20
89.144730
 30
0.0
 10
214.560135
 20
83.414452
 30
0.0
 10
209.716118
 20
82.570905
 30
0.0
  0
SPLINE
  5
118
100
AcDbEntity
  8
Image
 62
7
100
AcDbSpline
 70
8
 71
3
 72
8
 73
4
 74
0
 40
0
 40
0
 40
0
 40
0
 40
1
 40
1
 40
1
 40
1
 10
45.506996
 20
56.753408
 30
0.0
 10
40.860778
 20
60.666600
 30
0.0
 10
40.511026
 20
61.153185
 30
0.0
 10
41.712843
 20
62.031975
 30
0.0
  0
SPLINE
  5
119
100
AcDbEntity
  8
Image
 62
7
100
AcDbSpline
 70
8
 71
3
 72
8
 73
4
 74
0
 40
0
 40
0
 40
0
 40
0
 40
1
 40
1
 40
1
 40
1
 10
41.712843
 20
62.031975
 30
0.0
 10
42.440961
 20
62.564392
 30
0.0
 10
43.463285
 20
63.000000
 30
0.0
 10
43.984672
 20
63.000000
 30
0.0
  0
SPLINE
  5
11a
100
AcDbEntity
  8
Image
 62
7
100
AcDbSpline
 70
8
 71
3
 72
8
 73
4
 74
0
 40
0
 40
0
 40
0
 40
0
 40
1
 40
1
 40
1
 40
1
 10
43.984672
 20
63.000000
 30
0.0
 10
45.912436
 20
63.000000
 30
0.0
 10
55.345976
 20
67.946115
 30
0.0
 10
62.625000
 20
72.773333
 30
0.0
  0
SPLINE
  5
11b
100
AcDbEntity
  8
Image
 62
7
100
AcDbSpline
 70
8
 71
3
 72
8
 73
4
 74
0
 40
0
 40
0
 40
0
 40
0
 40
1
 40
1
 40
1
 40
1
 10
62.625000
 20
72.773333
 30
0.0
 10
72.321191
 20
79.203547
 30
0.0
 10
77.377545
 20
81.932648
 30
0.0
 10
84.136718
 20
84.383985
 30
0.0
  0
SPLINE
  5
11c
100
AcDbEntity
  8
Image
 62
7
100
AcDbSpline
 70
8
 71
3
 72
8
 73
4
 74
0
 40
0
 40
0
 40
0
 40
0
 40
1
 40
1
 40
1
 40
1
 10
84.136718
 20
84.383985
 30
0.0
 10
91.458600
 20
87.039398
 30
0.0
 10
99.370058
 20
88.500000
 30
0.0
 10
106.431383
 20
88.500000
 30
0.0
  0
SPLINE
  5
11d
100
AcDbEntity
  8
Image
 62
7
100
AcDbSpline
 70
8
 71
3
 72
8
 73
4
 74
0
 40
0
 40
0
 40
0
 40
0
 40
1
 40
1
 40
1
 40
1
 10
106.431383
 20
88.500000
 30
0.0
 10
117.036390
 20
88.500000
 30
0.0
 10
132.204015
 20
92.487112
 30
0.0
 10
142.173068
 20
97.895415
 30
0.0
  0
LWPOLYLINE
  5
11e
100
AcDbEntity
  8
Image
 62
7
100
AcDbPolyline
 90
1
 70
1
 10
79.125000
 20
35.539770
 30
0.0
  0
SPLINE
  5
11f
100
AcDbEntity
  8
Image
 62
7
100
AcDbSpline
 70
8
 71
3
 72
8
 73
4
 74
0
 40
0
 40
0
 40
0
 40
0
 40
1
 40
1
 40
1
 40
1
 10
158.673068
 20
101.250570
 30
0.0
 10
175.211138
 20
101.367750
 30
0.0
 10
174.520650
 20
101.633835
 30
0.0
 10
167.250000
 20
97.945470
 30
0.0
  0
SPLINE
  5
120
100
AcDbEntity
  8
Image
 62
7
100
AcDbSpline
 70
8
 71
3
 72
8
 73
4
 74
0
 40
0
 40
0
 40
0
 40
0
 40
1
 40
1
 40
1
 40
1
 10
167.250000
 20
97.945470
 30
0.0
 10
163.743750
 20
96.166763
 30
0.0
 10
157.226730
 20
92.491928
 30
0.0
 10
152.767725
 20
89.779170
 30
0.0
  0
SPLINE
  5
121
100
AcDbEntity
  8
Image
 62
7
100
AcDbSpline
 70
8
 71
3
 72
8
 73
4
 74
0
 40
0
 40
0
 40
0
 40
0
 40
1
 40
1
 40
1
 40
1
 10
152.767725
 20
89.779170
 30
0.0
 10
139.321643
 20
81.598868
 30
0.0
 10
129.026910
 20
78.432023
 30
0.0
 10
112.221465
 20
77.306438
 30
0.0
  0
SPLINE
  5
122
100
AcDbEntity
  8
Image
 62
7
100
AcDbSpline
 70
8
 71
3
 72
8
 73
4
 74
0
 40
0
 40
0
 40
0
 40
0
 40
1
 40
1
 40
1
 40
1
 10
112.221465
 20
77.306438
 30
0.0
 10
98.656305
 20
76.397873
 30
0.0
 10
91.198163
 20
74.461043
 30
0.0
 10
80.051145
 20
68.951993
 30
0.0
  0
SPLINE
  5
123
100
AcDbEntity
  8
Image
 62
7
100
AcDbSpline
 70
8
 71
3
 72
8
 73
4
 74
0
 40
0
 40
0
 40
0
 40
0
 40
1
 40
1
 40
1
 40
1
 10
80.051145
 20
68.951993
 30
0.0
 10
75.690818
 20
66.797048
 30
0.0
 10
67.923408
 20
61.925408
 30
0.0
 10
66.185185
 20
60.255405
 30
0.0
  0
SPLINE
  5
124
100
AcDbEntity
  8
Image
 62
7
100
AcDbSpline
 70
8
 71
3
 72
8
 73
4
 74
0
 40
0
 40
0
 40
0
 40
0
 40
1
 40
1
 40
1
 40
1
 10
66.185185
 20
60.255405
 30
0.0
 10
64.735025
 20
58.862160
 30
0.0
 10
54.604861
 20
53.419762
 30
0.0
 10
52.500000
 20
52.903080
 30
0.0
  0
SPLINE
  5
125
100
AcDbEntity
  8
Image
 62
7
100
AcDbSpline
 70
8
 71
3
 72
8
 73
4
 74
0
 40
0
 40
0
 40
0
 40
0
 40
1
 40
1
 40
1
 40
1
 10
52.500000
 20
52.903080
 30
0.0
 10
50.973915
 20
52.528478
 30
0.0
 10
49.672601
 20
53.244968
 30
0.0
 10
45.506996
 20
56.753370
 30
0.0
  0
LWPOLYLINE
  5
126
100
AcDbEntity
  8
Image
 62
7
100
AcDbPolyline
 90
3
 70
0
 10
142.173068
 20
97.895415
 30
0.0
 10
148.221135
 20
101.176545
 30
0.0
 10
158.673068
 20
101.250570
 30
0.0
  0
SPLINE
  5
127
100
AcDbEntity
  8
Image
 62
7
100
AcDbSpline
 70
8
 71
3
 72
8
 73
4
 74
0
 40
0
 40
0
 40
0
 40
0
 40
1
 40
1
 40
1
 40
1
 10
235.043993
 20
64.048485
 30
0.0
 10
231.093757
 20
65.887830
 30
0.0
 10
228.000000
 20
68.138618
 30
0.0
 10
228.000000
 20
69.173175
 30
0.0
  0
SPLINE
  5
128
100
AcDbEntity
  8
Image
 62
7
100
AcDbSpline
 70
8
 71
3
 72
8
 73
4
 74
0
 40
0
 40
0
 40
0
 40
0
 40
1
 40
1
 40
1
 40
1
 10
228.000000
 20
69.173175
 30
0.0
 10
228.000000
 20
70.325468
 30
0.0
 10
232.656585
 20
76.121400
 30
0.0
 10
233.410815
 20
75.907868
 30
0.0
  0
SPLINE
  5
129
100
AcDbEntity
  8
Image
 62
7
100
AcDbSpline
 70
8
 71
3
 72
8
 73
4
 74
0
 40
0
 40
0
 40
0
 40
0
 40
1
 40
1
 40
1
 40
1
 10
233.410815
 20
75.907868
 30
0.0
 10
233.832645
 20
75.788453
 30
0.0
 10
235.377128
 20
74.775952
 30
0.0
 10
236.843003
 20
73.657868
 30
0.0
  0
SPLINE
  5
12a
100
AcDbEntity
  8
Image
 62
7
100
AcDbSpline
 70
8
 71
3
 72
8
 73
4
 74
0
 40
0
 40
0
 40
0
 40
0
 40
1
 40
1
 40
1
 40
1
 10
236.843003
 20
73.657868
 30
0.0
 10
240.687698
 20
70.725382
 30
0.0
 10
246.134310
 20
70.758233
 30
0.0
 10
248.689935
 20
73.729343
 30
0.0
  0
SPLINE
  5
12b
100
AcDbEntity
  8
Image
 62
7
100
AcDbSpline
 70
8
 71
3
 72
8
 73
4
 74
0
 40
0
 40
0
 40
0
 40
0
 40
1
 40
1
 40
1
 40
1
 10
248.689935
 20
73.729343
 30
0.0
 10
249.685470
 20
74.886720
 30
0.0
 10
250.500000
 20
76.354440
 30
0.0
 10
250.500000
 20
76.990935
 30
0.0
  0
SPLINE
  5
12c
100
AcDbEntity
  8
Image
 62
7
100
AcDbSpline
 70
8
 71
3
 72
8
 73
4
 74
0
 40
0
 40
0
 40
0
 40
0
 40
1
 40
1
 40
1
 40
1
 10
250.500000
 20
76.990935
 30
0.0
 10
250.500000
 20
79.095840
 30
0.0
 10
246.296400
 20
82.098323
 30
0.0
 10
240.718748
 20
83.977350
 30
0.0
  0
SPLINE
  5
12d
100
AcDbEntity
  8
Image
 62
7
100
AcDbSpline
 70
8
 71
3
 72
8
 73
4
 74
0
 40
0
 40
0
 40
0
 40
0
 40
1
 40
1
 40
1
 40
1
 10
240.718748
 20
83.977350
 30
0.0
 10
231.443355
 20
87.102083
 30
0.0
 10
228.066225
 20
92.390115
 30
0.0
 10
230.225317
 20
100.408358
 30
0.0
  0
SPLINE
  5
12e
100
AcDbEntity
  8
Image
 62
7
100
AcDbSpline
 70
8
 71
3
 72
8
 73
4
 74
0
 40
0
 40
0
 40
0
 40
0
 40
1
 40
1
 40
1
 40
1
 10
230.225317
 20
100.408358
 30
0.0
 10
232.167315
 20
107.620373
 30
0.0
 10
238.710652
 20
111.600368
 30
0.0
 10
247.330568
 20
110.812628
 30
0.0
  0
SPLINE
  5
12f
100
AcDbEntity
  8
Image
 62
7
100
AcDbSpline
 70
8
 71
3
 72
8
 73
4
 74
0
 40
0
 40
0
 40
0
 40
0
 40
1
 40
1
 40
1
 40
1
 10
247.330568
 20
110.812628
 30
0.0
 10
251.492505
 20
110.432288
 30
0.0
 10
258.750000
 20
107.586255
 30
0.0
 10
258.750000
 20
106.334490
 30
0.0
  0
SPLINE
  5
130
100
AcDbEntity
  8
Image
 62
7
100
AcDbSpline
 70
8
 71
3
 72
8
 73
4
 74
0
 40
0
 40
0
 40
0
 40
0
 40
1
 40
1
 40
1
 40
1
 10
258.750000
 20
106.334490
 30
0.0
 10
258.750000
 20
105.995348
 30
0.0
 10
257.835915
 20
104.290725
 30
0.0
 10
256.718692
 20
102.546443
 30
0.0
  0
SPLINE
  5
131
100
AcDbEntity
  8
Image
 62
7
100
AcDbSpline
 70
8
 71
3
 72
8
 73
4
 74
0
 40
0
 40
0
 40
0
 40
0
 40
1
 40
1
 40
1
 40
1
 10
256.718692
 20
102.546443
 30
0.0
 10
255.601477
 20
100.802160
 30
0.0
 10
254.627040
 20
99.272460
 30
0.0
 10
254.553277
 20
99.147105
 30
0.0
  0
SPLINE
  5
132
100
AcDbEntity
  8
Image
 62
7
100
AcDbSpline
 70
8
 71
3
 72
8
 73
4
 74
0
 40
0
 40
0
 40
0
 40
0
 40
1
 40
1
 40
1
 40
1
 10
254.553277
 20
99.147105
 30
0.0
 10
254.479552
 20
99.021758
 30
0.0
 10
253.284232
 20
99.611115
 30
0.0
 10
251.897085
 20
100.456800
 30
0.0
  0
SPLINE
  5
133
100
AcDbEntity
  8
Image
 62
7
100
AcDbSpline
 70
8
 71
3
 72
8
 73
4
 74
0
 40
0
 40
0
 40
0
 40
0
 40
1
 40
1
 40
1
 40
1
 10
251.897085
 20
100.456800
 30
0.0
 10
246.767940
 20
103.583812
 30
0.0
 10
240.750000
 20
101.904015
 30
0.0
 10
240.750000
 20
97.345275
 30
0.0
  0
SPLINE
  5
134
100
AcDbEntity
  8
Image
 62
7
100
AcDbSpline
 70
8
 71
3
 72
8
 73
4
 74
0
 40
0
 40
0
 40
0
 40
0
 40
1
 40
1
 40
1
 40
1
 10
240.750000
 20
97.345275
 30
0.0
 10
240.750000
 20
94.850340
 30
0.0
 10
241.382865
 20
94.396388
 30
0.0
 10
249.302040
 20
91.210958
 30
0.0
  0
SPLINE
  5
135
100
AcDbEntity
  8
Image
 62
7
100
AcDbSpline
 70
8
 71
3
 72
8
 73
4
 74
0
 40
0
 40
0
 40
0
 40
0
 40
1
 40
1
 40
1
 40
1
 10
249.302040
 20
91.210958
 30
0.0
 10
252.974415
 20
89.733772
 30
0.0
 10
256.649122
 20
87.928875
 30
0.0
 10
257.468055
 20
87.200085
 30
0.0
  0
SPLINE
  5
136
100
AcDbEntity
  8
Image
 62
7
100
AcDbSpline
 70
8
 71
3
 72
8
 73
4
 74
0
 40
0
 40
0
 40
0
 40
0
 40
1
 40
1
 40
1
 40
1
 10
257.468055
 20
87.200085
 30
0.0
 10
260.989275
 20
84.066435
 30
0.0
 10
261.964808
 20
77.519565
 30
0.0
 10
259.758660
 20
71.827680
 30
0.0
  0
SPLINE
  5
137
100
AcDbEntity
  8
Image
 62
7
100
AcDbSpline
 70
8
 71
3
 72
8
 73
4
 74
0
 40
0
 40
0
 40
0
 40
0
 40
1
 40
1
 40
1
 40
1
 10
259.758660
 20
71.827680
 30
0.0
 10
258.069128
 20
67.468665
 30
0.0
 10
256.760385
 20
66.085837
 30
0.0
 10
252.375000
 20
64.026023
 30
0.0
  0
SPLINE
  5
138
100
AcDbEntity
  8
Image
 62
7
100
AcDbSpline
 70
8
 71
3
 72
8
 73
4
 74
0
 40
0
 40
0
 40
0
 40
0
 40
1
 40
1
 40
1
 40
1
 10
252.375000
 20
64.026023
 30
0.0
 10
247.197090
 20
61.593968
 30
0.0
 10
240.296182
 20
61.602908
 30
0.0
 10
235.043993
 20
64.048448
 30
0.0
  0
LWPOLYLINE
  5
139
100
AcDbEntity
  8
Image
 62
7
100
AcDbPolyline
 90
1
 70
1
 10
45.506996
 20
56.753370
 30
0.0
  0
SPLINE
  5
13a
100
AcDbEntity
  8
Image
 62
7
100
AcDbSpline
 70
8
 71
3
 72
8
 73
4
 74
0
 40
0
 40
0
 40
0
 40
0
 40
1
 40
1
 40
1
 40
1
 10
367.875000
 20
62.904990
 30
0.0
 10
360.934687
 20
64.715805
 30
0.0
 10
354.942788
 20
69.759412
 30
0.0
 10
351.940207
 20
76.317908
 30
0.0
  0
SPLINE
  5
13b
100
AcDbEntity
  8
Image
 62
7
100
AcDbSpline
 70
8
 71
3
 72
8
 73
4
 74
0
 40
0
 40
0
 40
0
 40
0
 40
1
 40
1
 40
1
 40
1
 10
351.940207
 20
76.317908
 30
0.0
 10
350.270317
 20
79.965435
 30
0.0
 10
350.113020
 20
81.118448
 30
0.0
 10
350.397367
 20
87.627263
 30
0.0
  0
SPLINE
  5
13c
100
AcDbEntity
  8
Image
 62
7
100
AcDbSpline
 70
8
 71
3
 72
8
 73
4
 74
0
 40
0
 40
0
 40
0
 40
0
 40
1
 40
1
 40
1
 40
1
 10
350.397367
 20
87.627263
 30
0.0
 10
350.764455
 20
96.030098
 30
0.0
 10
352.009290
 20
99.064245
 30
0.0
 10
357.125610
 20
104.026620
 30
0.0
  0
SPLINE
  5
13d
100
AcDbEntity
  8
Image
 62
7
100
AcDbSpline
 70
8
 71
3
 72
8
 73
4
 74
0
 40
0
 40
0
 40
0
 40
0
 40
1
 40
1
 40
1
 40
1
 10
357.125610
 20
104.026620
 30
0.0
 10
363.380880
 20
110.093670
 30
0.0
 10
372.789637
 20
112.403100
 30
0.0
 10
381.241665
 20
109.946033
 30
0.0
  0
LWPOLYLINE
  5
13e
100
AcDbEntity
  8
Image
 62
7
100
AcDbPolyline
 90
1
 70
1
 10
235.043993
 20
64.048448
 30
0.0
  0
SPLINE
  5
13f
100
AcDbEntity
  8
Image
 62
7
100
AcDbSpline
 70
8
 71
3
 72
8
 73
4
 74
0
 40
0
 40
0
 40
0
 40
0
 40
1
 40
1
 40
1
 40
1
 10
382.799565
 20
98.627767
 30
0.0
 10
372.960300
 20
105.304875
 30
0.0
 10
360.750000
 20
98.459685
 30
0.0
 10
360.750000
 20
86.266597
 30
0.0
  0
SPLINE
  5
140
100
AcDbEntity
  8
Image
 62
7
100
AcDbSpline
 70
8
 71
3
 72
8
 73
4
 74
0
 40
0
 40
0
 40
0
 40
0
 40
1
 40
1
 40
1
 40
1
 10
360.750000
 20
86.266597
 30
0.0
 10
360.750000
 20
80.981182
 30
0.0
 10
363.330975
 20
76.498328
 30
0.0
 10
367.923608
 20
73.806863
 30
0.0
  0
SPLINE
  5
141
100
AcDbEntity
  8
Image
 62
7
100
AcDbSpline
 70
8
 71
3
 72
8
 73
4
 74
0
 40
0
 40
0
 40
0
 40
0
 40
1
 40
1
 40
1
 40
1
 10
367.923608
 20
73.806863
 30
0.0
 10
372.491535
 20
71.129880
 30
0.0
 10
378.751748
 20
71.429198
 30
0.0
 10
382.801672
 20
74.518223
 30
0.0
  0
LWPOLYLINE
  5
142
100
AcDbEntity
  8
Image
 62
7
100
AcDbPolyline
 90
5
 70
0
 10
381.241665
 20
109.946033
 30
0.0
 10
385.500000
 20
108.708098
 30
0.0
 10
385.500000
 20
102.751650
 30
0.0
 10
385.500000
 20
96.795202
 30
0.0
 10
382.799565
 20
98.627767
 30
0.0
  0
SPLINE
  5
143
100
AcDbEntity
  8
Image
 62
7
100
AcDbSpline
 70
8
 71
3
 72
8
 73
4
 74
0
 40
0
 40
0
 40
0
 40
0
 40
1
 40
1
 40
1
 40
1
 10
385.500000
 20
70.564560
 30
0.0
 10
385.500000
 20
65.100630
 30
0.0
 10
385.346220
 20
64.469572
 30
0.0
 10
383.812500
 20
63.639788
 30
0.0
  0
SPLINE
  5
144
100
AcDbEntity
  8
Image
 62
7
100
AcDbSpline
 70
8
 71
3
 72
8
 73
4
 74
0
 40
0
 40
0
 40
0
 40
0
 40
1
 40
1
 40
1
 40
1
 10
383.812500
 20
63.639788
 30
0.0
 10
381.816367
 20
62.559817
 30
0.0
 10
371.092853
 20
62.065410
 30
0.0
 10
367.875000
 20
62.904990
 30
0.0
  0
LWPOLYLINE
  5
145
100
AcDbEntity
  8
Image
 62
7
100
AcDbPolyline
 90
3
 70
0
 10
382.801672
 20
74.518223
 30
0.0
 10
385.500000
 20
76.576335
 30
0.0
 10
385.500000
 20
70.564560
 30
0.0
  0
SPLINE
  5
146
100
AcDbEntity
  8
Image
 62
7
100
AcDbSpline
 70
8
 71
3
 72
8
 73
4
 74
0
 40
0
 40
0
 40
0
 40
0
 40
1
 40
1
 40
1
 40
1
 10
448.319310
 20
63.317198
 30
0.0
 10
443.881448
 20
64.901093
 30
0.0
 10
442.037460
 20
66.432600
 30
0.0
 10
440.335725
 20
69.947910
 30
0.0
  0
SPLINE
  5
147
100
AcDbEntity
  8
Image
 62
7
100
AcDbSpline
 70
8
 71
3
 72
8
 73
4
 74
0
 40
0
 40
0
 40
0
 40
0
 40
1
 40
1
 40
1
 40
1
 10
440.335725
 20
69.947910
 30
0.0
 10
434.502968
 20
81.996780
 30
0.0
 10
446.901412
 20
93.681967
 30
0.0
 10
459.025493
 20
87.562500
 30
0.0
  0
SPLINE
  5
148
100
AcDbEntity
  8
Image
 62
7
100
AcDbSpline
 70
8
 71
3
 72
8
 73
4
 74
0
 40
0
 40
0
 40
0
 40
0
 40
1
 40
1
 40
1
 40
1
 10
459.025493
 20
87.562500
 30
0.0
 10
466.966245
 20
83.554515
 30
0.0
 10
468.230355
 20
71.613668
 30
0.0
 10
461.328690
 20
65.806305
 30
0.0
  0
SPLINE
  5
149
100
AcDbEntity
  8
Image
 62
7
100
AcDbSpline
 70
8
 71
3
 72
8
 73
4
 74
0
 40
0
 40
0
 40
0
 40
0
 40
1
 40
1
 40
1
 40
1
 10
461.328690
 20
65.806305
 30
0.0
 10
459.080610
 20
63.914670
 30
0.0
 10
454.719165
 20
62.224028
 30
0.0
 10
452.250000
 20
62.287103
 30
0.0
  0
SPLINE
  5
14a
100
AcDbEntity
  8
Image
 62
7
100
AcDbSpline
 70
8
 71
3
 72
8
 73
4
 74
0
 40
0
 40
0
 40
0
 40
0
 40
1
 40
1
 40
1
 40
1
 10
452.250000
 20
62.287103
 30
0.0
 10
451.631250
 20
62.302927
 30
0.0
 10
449.862443
 20
62.766450
 30
0.0
 10
448.319310
 20
63.317197
 30
0.0
  0
LWPOLYLINE
  5
14b
100
AcDbEntity
  8
Image
 62
7
100
AcDbPolyline
 90
1
 70
1
 10
367.875000
 20
62.904990
 30
0.0
  0
SPLINE
  5
14c
100
AcDbEntity
  8
Image
 62
7
100
AcDbSpline
 70
8
 71
3
 72
8
 73
4
 74
0
 40
0
 40
0
 40
0
 40
0
 40
1
 40
1
 40
1
 40
1
 10
456.211590
 20
65.532630
 30
0.0
 10
464.752883
 20
69.187207
 30
0.0
 10
465.933060
 20
80.216093
 30
0.0
 10
458.326590
 20
85.297552
 30
0.0
  0
SPLINE
  5
14d
100
AcDbEntity
  8
Image
 62
7
100
AcDbSpline
 70
8
 71
3
 72
8
 73
4
 74
0
 40
0
 40
0
 40
0
 40
0
 40
1
 40
1
 40
1
 40
1
 10
458.326590
 20
85.297552
 30
0.0
 10
453.538088
 20
88.496475
 30
0.0
 10
446.231475
 20
86.949128
 30
0.0
 10
443.235585
 20
82.101675
 30
0.0
  0
SPLINE
  5
14e
100
AcDbEntity
  8
Image
 62
7
100
AcDbSpline
 70
8
 71
3
 72
8
 73
4
 74
0
 40
0
 40
0
 40
0
 40
0
 40
1
 40
1
 40
1
 40
1
 10
443.235585
 20
82.101675
 30
0.0
 10
439.862033
 20
76.643153
 30
0.0
 10
441.766395
 20
69.400740
 30
0.0
 10
447.416798
 20
66.200258
 30
0.0
  0
SPLINE
  5
14f
100
AcDbEntity
  8
Image
 62
7
100
AcDbSpline
 70
8
 71
3
 72
8
 73
4
 74
0
 40
0
 40
0
 40
0
 40
0
 40
1
 40
1
 40
1
 40
1
 10
447.416798
 20
66.200258
 30
0.0
 10
450.853980
 20
64.253370
 30
0.0
 10
452.864985
 20
64.100715
 30
0.0
 10
456.211590
 20
65.532630
 30
0.0
  0
LWPOLYLINE
  5
150
100
AcDbEntity
  8
Image
 62
7
100
AcDbPolyline
 90
1
 70
1
 10
448.319310
 20
63.317197
 30
0.0
  0
SPLINE
  5
151
100
AcDbEntity
  8
Image
 62
7
100
AcDbSpline
 70
8
 71
3
 72
8
 73
4
 74
0
 40
0
 40
0
 40
0
 40
0
 40
1
 40
1
 40
1
 40
1
 10
499.724768
 20
63.297278
 30
0.0
 10
498.962993
 20
64.627440
 30
0.0
 10
480.919620
 20
83.250000
 30
0.0
 10
480.392602
 20
83.250000
 30
0.0
  0
SPLINE
  5
152
100
AcDbEntity
  8
Image
 62
7
100
AcDbSpline
 70
8
 71
3
 72
8
 73
4
 74
0
 40
0
 40
0
 40
0
 40
0
 40
1
 40
1
 40
1
 40
1
 10
480.392602
 20
83.250000
 30
0.0
 10
480.176670
 20
83.250000
 30
0.0
 10
480.000000
 20
78.693750
 30
0.0
 10
480.000000
 20
73.125000
 30
0.0
  0
SPLINE
  5
153
100
AcDbEntity
  8
Image
 62
7
100
AcDbSpline
 70
8
 71
3
 72
8
 73
4
 74
0
 40
0
 40
0
 40
0
 40
0
 40
1
 40
1
 40
1
 40
1
 10
480.000000
 20
73.125000
 30
0.0
 10
480.000000
 20
64.625002
 30
0.0
 10
479.819445
 20
63.000000
 30
0.0
 10
478.875000
 20
63.000000
 30
0.0
  0
SPLINE
  5
154
100
AcDbEntity
  8
Image
 62
7
100
AcDbSpline
 70
8
 71
3
 72
8
 73
4
 74
0
 40
0
 40
0
 40
0
 40
0
 40
1
 40
1
 40
1
 40
1
 10
478.875000
 20
63.000000
 30
0.0
 10
477.916732
 20
63.000000
 30
0.0
 10
477.750000
 20
64.997565
 30
0.0
 10
477.750000
 20
76.478093
 30
0.0
  0
LWPOLYLINE
  5
155
100
AcDbEntity
  8
Image
 62
7
100
AcDbPolyline
 90
1
 70
1
 10
456.211590
 20
65.532630
 30
0.0
  0
SPLINE
  5
156
100
AcDbEntity
  8
Image
 62
7
100
AcDbSpline
 70
8
 71
3
 72
8
 73
4
 74
0
 40
0
 40
0
 40
0
 40
0
 40
1
 40
1
 40
1
 40
1
 10
487.553767
 20
79.665593
 30
0.0
 10
492.945840
 20
74.005770
 30
0.0
 10
497.670840
 20
69.262500
 30
0.0
 10
498.053767
 20
69.125002
 30
0.0
  0
SPLINE
  5
157
100
AcDbEntity
  8
Image
 62
7
100
AcDbSpline
 70
8
 71
3
 72
8
 73
4
 74
0
 40
0
 40
0
 40
0
 40
0
 40
1
 40
1
 40
1
 40
1
 10
498.053767
 20
69.125002
 30
0.0
 10
498.460177
 20
68.979068
 30
0.0
 10
498.750000
 20
73.115820
 30
0.0
 10
498.750000
 20
79.062502
 30
0.0
  0
SPLINE
  5
158
100
AcDbEntity
  8
Image
 62
7
100
AcDbSpline
 70
8
 71
3
 72
8
 73
4
 74
0
 40
0
 40
0
 40
0
 40
0
 40
1
 40
1
 40
1
 40
1
 10
498.750000
 20
79.062502
 30
0.0
 10
498.750000
 20
87.618053
 30
0.0
 10
498.930217
 20
89.250000
 30
0.0
 10
499.875000
 20
89.250000
 30
0.0
  0
SPLINE
  5
159
100
AcDbEntity
  8
Image
 62
7
100
AcDbSpline
 70
8
 71
3
 72
8
 73
4
 74
0
 40
0
 40
0
 40
0
 40
0
 40
1
 40
1
 40
1
 40
1
 10
499.875000
 20
89.250000
 30
0.0
 10
500.833335
 20
89.250000
 30
0.0
 10
501.000000
 20
87.249998
 30
0.0
 10
501.000000
 20
75.750000
 30
0.0
  0
SPLINE
  5
15a
100
AcDbEntity
  8
Image
 62
7
100
AcDbSpline
 70
8
 71
3
 72
8
 73
4
 74
0
 40
0
 40
0
 40
0
 40
0
 40
1
 40
1
 40
1
 40
1
 10
501.000000
 20
75.750000
 30
0.0
 10
501.000000
 20
68.325000
 30
0.0
 10
500.848020
 20
62.250000
 30
0.0
 10
500.662268
 20
62.250000
 30
0.0
  0
SPLINE
  5
15b
100
AcDbEntity
  8
Image
 62
7
100
AcDbSpline
 70
8
 71
3
 72
8
 73
4
 74
0
 40
0
 40
0
 40
0
 40
0
 40
1
 40
1
 40
1
 40
1
 10
500.662268
 20
62.250000
 30
0.0
 10
500.476515
 20
62.250000
 30
0.0
 10
500.054640
 20
62.721277
 30
0.0
 10
499.724768
 20
63.297278
 30
0.0
  0
LWPOLYLINE
  5
15c
100
AcDbEntity
  8
Image
 62
7
100
AcDbPolyline
 90
3
 70
0
 10
477.750000
 20
76.478093
 30
0.0
 10
477.750000
 20
89.956185
 30
0.0
 10
487.553767
 20
79.665593
 30
0.0
  0
LWPOLYLINE
  5
15d
100
AcDbEntity
  8
Image
 62
7
100
AcDbPolyline
 90
1
 70
1
 10
499.724768
 20
63.297278
 30
0.0
  0
SPLINE
  5
15e
100
AcDbEntity
  8
Image
 62
7
100
AcDbSpline
 70
8
 71
3
 72
8
 73
4
 74
0
 40
0
 40
0
 40
0
 40
0
 40
1
 40
1
 40
1
 40
1
 10
281.060992
 20
109.481280
 30
0.0
 10
293.644455
 20
109.061918
 30
0.0
 10
295.473240
 20
108.623070
 30
0.0
 10
298.639710
 20
105.262980
 30
0.0
  0
SPLINE
  5
15f
100
AcDbEntity
  8
Image
 62
7
100
AcDbSpline
 70
8
 71
3
 72
8
 73
4
 74
0
 40
0
 40
0
 40
0
 40
0
 40
1
 40
1
 40
1
 40
1
 10
298.639710
 20
105.262980
 30
0.0
 10
301.339792
 20
102.397800
 30
0.0
 10
302.249925
 20
99.731850
 30
0.0
 10
302.249925
 20
94.687965
 30
0.0
  0
SPLINE
  5
160
100
AcDbEntity
  8
Image
 62
7
100
AcDbSpline
 70
8
 71
3
 72
8
 73
4
 74
0
 40
0
 40
0
 40
0
 40
0
 40
1
 40
1
 40
1
 40
1
 10
302.249925
 20
94.687965
 30
0.0
 10
302.249925
 20
85.120747
 30
0.0
 10
297.140632
 20
80.373533
 30
0.0
 10
286.102522
 20
79.684890
 30
0.0
  0
LWPOLYLINE
  5
161
100
AcDbEntity
  8
Image
 62
7
100
AcDbPolyline
 90
3
 70
0
 10
269.248567
 20
86.437500
 30
0.0
 10
269.247067
 20
109.875000
 30
0.0
 10
281.060992
 20
109.481280
 30
0.0
  0
SPLINE
  5
162
100
AcDbEntity
  8
Image
 62
7
100
AcDbSpline
 70
8
 71
3
 72
8
 73
4
 74
0
 40
0
 40
0
 40
0
 40
0
 40
1
 40
1
 40
1
 40
1
 10
289.772730
 20
90.477270
 30
0.0
 10
292.392502
 20
93.097042
 30
0.0
 10
292.450072
 20
96.868110
 30
0.0
 10
289.909087
 20
99.409087
 30
0.0
  0
SPLINE
  5
163
100
AcDbEntity
  8
Image
 62
7
100
AcDbSpline
 70
8
 71
3
 72
8
 73
4
 74
0
 40
0
 40
0
 40
0
 40
0
 40
1
 40
1
 40
1
 40
1
 10
289.909087
 20
99.409087
 30
0.0
 10
288.397170
 20
100.921012
 30
0.0
 10
287.324917
 20
101.250000
 30
0.0
 10
283.909087
 20
101.250000
 30
0.0
  0
LWPOLYLINE
  5
164
100
AcDbEntity
  8
Image
 62
7
100
AcDbPolyline
 90
8
 70
0
 10
286.102522
 20
79.684890
 30
0.0
 10
279.750000
 20
79.288567
 30
0.0
 10
279.750000
 20
71.144280
 30
0.0
 10
279.750000
 20
63.000000
 30
0.0
 10
274.500000
 20
63.000000
 30
0.0
 10
269.250000
 20
63.000000
 30
0.0
 10
269.248500
 20
86.437500
 30
0.0
 10
269.248567
 20
86.437500
 30
0.0
  0
SPLINE
  5
165
100
AcDbEntity
  8
Image
 62
7
100
AcDbSpline
 70
8
 71
3
 72
8
 73
4
 74
0
 40
0
 40
0
 40
0
 40
0
 40
1
 40
1
 40
1
 40
1
 10
283.772730
 20
88.500000
 30
0.0
 10
287.119125
 20
88.500000
 30
0.0
 10
288.127890
 20
88.832437
 30
0.0
 10
289.772730
 20
90.477270
 30
0.0
  0
LWPOLYLINE
  5
166
100
AcDbEntity
  8
Image
 62
7
100
AcDbPolyline
 90
5
 70
0
 10
283.909087
 20
101.250000
 30
0.0
 10
279.750000
 20
101.250000
 30
0.0
 10
279.750000
 20
94.875000
 30
0.0
 10
279.750000
 20
88.500000
 30
0.0
 10
283.772730
 20
88.500000
 30
0.0
  0
SPLINE
  5
167
100
AcDbEntity
  8
Image
 62
7
100
AcDbSpline
 70
8
 71
3
 72
8
 73
4
 74
0
 40
0
 40
0
 40
0
 40
0
 40
1
 40
1
 40
1
 40
1
 10
301.055167
 20
64.277752
 30
0.0
 10
302.049915
 20
66.999900
 30
0.0
 10
319.029420
 20
109.134795
 30
0.0
 10
319.248645
 20
109.425135
 30
0.0
  0
SPLINE
  5
168
100
AcDbEntity
  8
Image
 62
7
100
AcDbSpline
 70
8
 71
3
 72
8
 73
4
 74
0
 40
0
 40
0
 40
0
 40
0
 40
1
 40
1
 40
1
 40
1
 10
319.248645
 20
109.425135
 30
0.0
 10
319.802347
 20
110.158447
 30
0.0
 10
328.872817
 20
109.363335
 30
0.0
 10
329.403833
 20
108.534922
 30
0.0
  0
SPLINE
  5
169
100
AcDbEntity
  8
Image
 62
7
100
AcDbSpline
 70
8
 71
3
 72
8
 73
4
 74
0
 40
0
 40
0
 40
0
 40
0
 40
1
 40
1
 40
1
 40
1
 10
329.403833
 20
108.534922
 30
0.0
 10
330.136703
 20
107.391615
 30
0.0
 10
347.250000
 20
64.223948
 30
0.0
 10
347.250000
 20
63.518603
 30
0.0
  0
SPLINE
  5
16a
100
AcDbEntity
  8
Image
 62
7
100
AcDbSpline
 70
8
 71
3
 72
8
 73
4
 74
0
 40
0
 40
0
 40
0
 40
0
 40
1
 40
1
 40
1
 40
1
 10
347.250000
 20
63.518603
 30
0.0
 10
347.250000
 20
63.233370
 30
0.0
 10
344.875507
 20
63.000000
 30
0.0
 10
341.973345
 20
63.000000
 30
0.0
  0
LWPOLYLINE
  5
16b
100
AcDbEntity
  8
Image
 62
7
100
AcDbPolyline
 90
1
 70
1
 10
289.772730
 20
90.477270
 30
0.0
  0
SPLINE
  5
16c
100
AcDbEntity
  8
Image
 62
7
100
AcDbSpline
 70
8
 71
3
 72
8
 73
4
 74
0
 40
0
 40
0
 40
0
 40
0
 40
1
 40
1
 40
1
 40
1
 10
335.223345
 20
66.437183
 30
0.0
 10
334.413007
 20
68.327625
 30
0.0
 10
333.750000
 20
70.362712
 30
0.0
 10
333.750000
 20
70.959585
 30
0.0
  0
SPLINE
  5
16d
100
AcDbEntity
  8
Image
 62
7
100
AcDbSpline
 70
8
 71
3
 72
8
 73
4
 74
0
 40
0
 40
0
 40
0
 40
0
 40
1
 40
1
 40
1
 40
1
 10
333.750000
 20
70.959585
 30
0.0
 10
333.750000
 20
71.860252
 30
0.0
 10
332.142562
 20
72.009120
 30
0.0
 10
324.298238
 20
71.834910
 30
0.0
  0
LWPOLYLINE
  5
16e
100
AcDbEntity
  8
Image
 62
7
100
AcDbPolyline
 90
3
 70
0
 10
341.973345
 20
63.000000
 30
0.0
 10
336.696697
 20
63.000000
 30
0.0
 10
335.223345
 20
66.437183
 30
0.0
  0
SPLINE
  5
16f
100
AcDbEntity
  8
Image
 62
7
100
AcDbSpline
 70
8
 71
3
 72
8
 73
4
 74
0
 40
0
 40
0
 40
0
 40
0
 40
1
 40
1
 40
1
 40
1
 10
306.050310
 20
63.152752
 30
0.0
 10
301.039170
 20
62.949802
 30
0.0
 10
300.605587
 20
63.047452
 30
0.0
 10
301.055167
 20
64.277752
 30
0.0
  0
LWPOLYLINE
  5
170
100
AcDbEntity
  8
Image
 62
7
100
AcDbPolyline
 90
5
 70
0
 10
324.298238
 20
71.834910
 30
0.0
 10
314.846482
 20
71.625000
 30
0.0
 10
313.192125
 20
67.500000
 30
0.0
 10
311.537767
 20
63.375000
 30
0.0
 10
306.050310
 20
63.152752
 30
0.0
  0
SPLINE
  5
171
100
AcDbEntity
  8
Image
 62
7
100
AcDbSpline
 70
8
 71
3
 72
8
 73
4
 74
0
 40
0
 40
0
 40
0
 40
0
 40
1
 40
1
 40
1
 40
1
 10
330.000000
 20
80.509575
 30
0.0
 10
330.000000
 20
80.801723
 30
0.0
 10
326.061427
 20
91.611398
 30
0.0
 10
324.902505
 20
94.500000
 30
0.0
  0
SPLINE
  5
172
100
AcDbEntity
  8
Image
 62
7
100
AcDbSpline
 70
8
 71
3
 72
8
 73
4
 74
0
 40
0
 40
0
 40
0
 40
0
 40
1
 40
1
 40
1
 40
1
 10
324.902505
 20
94.500000
 30
0.0
 10
324.088283
 20
96.529418
 30
0.0
 10
324.147728
 20
96.604177
 30
0.0
 10
322.218945
 20
91.125000
 30
0.0
  0
SPLINE
  5
173
100
AcDbEntity
  8
Image
 62
7
100
AcDbSpline
 70
8
 71
3
 72
8
 73
4
 74
0
 40
0
 40
0
 40
0
 40
0
 40
1
 40
1
 40
1
 40
1
 10
322.218945
 20
91.125000
 30
0.0
 10
321.638108
 20
89.475000
 30
0.0
 10
320.456153
 20
86.353125
 30
0.0
 10
319.592385
 20
84.187500
 30
0.0
  0
LWPOLYLINE
  5
174
100
AcDbEntity
  8
Image
 62
7
100
AcDbPolyline
 90
1
 70
1
 10
301.055167
 20
64.277752
 30
0.0
  0
SPLINE
  5
175
100
AcDbEntity
  8
Image
 62
7
100
AcDbSpline
 70
8
 71
3
 72
8
 73
4
 74
0
 40
0
 40
0
 40
0
 40
0
 40
1
 40
1
 40
1
 40
1
 10
324.010943
 20
80.250000
 30
0.0
 10
327.304927
 20
80.250000
 30
0.0
 10
330.000000
 20
80.366805
 30
0.0
 10
330.000000
 20
80.509575
 30
0.0
  0
LWPOLYLINE
  5
176
100
AcDbEntity
  8
Image
 62
7
100
AcDbPolyline
 90
3
 70
0
 10
319.592385
 20
84.187500
 30
0.0
 10
318.021885
 20
80.250000
 30
0.0
 10
324.010943
 20
80.250000
 30
0.0
  0
LWPOLYLINE
  5
177
100
AcDbEntity
  8
Image
 62
7
100
AcDbPolyline
 90
1
 70
1
 10
330.000000
 20
80.509575
 30
0.0
  0
SPLINE
  5
178
100
AcDbEntity
  8
Image
 62
7
100
AcDbSpline
 70
8
 71
3
 72
8
 73
4
 74
0
 40
0
 40
0
 40
0
 40
0
 40
1
 40
1
 40
1
 40
1
 10
412.694130
 20
91.500000
 30
0.0
 10
416.719658
 20
91.293750
 30
0.0
 10
420.010282
 20
90.871875
 30
0.0
 10
420.006630
 20
90.562500
 30
0.0
  0
SPLINE
  5
179
100
AcDbEntity
  8
Image
 62
7
100
AcDbSpline
 70
8
 71
3
 72
8
 73
4
 74
0
 40
0
 40
0
 40
0
 40
0
 40
1
 40
1
 40
1
 40
1
 10
420.006630
 20
90.562500
 30
0.0
 10
420.002880
 20
90.253125
 30
0.0
 10
419.999880
 20
88.312500
 30
0.0
 10
419.999880
 20
86.250000
 30
0.0
  0
SPLINE
  5
17a
100
AcDbEntity
  8
Image
 62
7
100
AcDbSpline
 70
8
 71
3
 72
8
 73
4
 74
0
 40
0
 40
0
 40
0
 40
0
 40
1
 40
1
 40
1
 40
1
 10
419.999880
 20
86.250000
 30
0.0
 10
419.999880
 20
84.187500
 30
0.0
 10
419.746755
 20
82.539967
 30
0.0
 10
419.437380
 20
82.588815
 30
0.0
  0
SPLINE
  5
17b
100
AcDbEntity
  8
Image
 62
7
100
AcDbSpline
 70
8
 71
3
 72
8
 73
4
 74
0
 40
0
 40
0
 40
0
 40
0
 40
1
 40
1
 40
1
 40
1
 10
419.437380
 20
82.588815
 30
0.0
 10
419.128005
 20
82.637640
 30
0.0
 10
415.753005
 20
82.637640
 30
0.0
 10
411.937380
 20
82.588815
 30
0.0
  0
LWPOLYLINE
  5
17c
100
AcDbEntity
  8
Image
 62
7
100
AcDbPolyline
 90
11
 70
0
 10
394.714065
 20
86.286698
 30
0.0
 10
394.875000
 20
109.573402
 30
0.0
 10
407.812560
 20
109.724198
 30
0.0
 10
420.750120
 20
109.875000
 30
0.0
 10
420.750060
 20
105.588735
 30
0.0
 10
420.750000
 20
101.302477
 30
0.0
 10
413.062500
 20
101.088735
 30
0.0
 10
405.375000
 20
100.875000
 30
0.0
 10
405.375000
 20
96.375000
 30
0.0
 10
405.375000
 20
91.875000
 30
0.0
 10
412.694130
 20
91.500000
 30
0.0
  0
SPLINE
  5
17d
100
AcDbEntity
  8
Image
 62
7
100
AcDbSpline
 70
8
 71
3
 72
8
 73
4
 74
0
 40
0
 40
0
 40
0
 40
0
 40
1
 40
1
 40
1
 40
1
 10
511.625003
 20
63.637530
 30
0.0
 10
514.565520
 20
71.136240
 30
0.0
 10
523.102560
 20
89.179253
 30
0.0
 10
523.498725
 20
88.732628
 30
0.0
  0
SPLINE
  5
17e
100
AcDbEntity
  8
Image
 62
7
100
AcDbSpline
 70
8
 71
3
 72
8
 73
4
 74
0
 40
0
 40
0
 40
0
 40
0
 40
1
 40
1
 40
1
 40
1
 10
523.498725
 20
88.732628
 30
0.0
 10
523.998510
 20
88.169197
 30
0.0
 10
527.472893
 20
80.237183
 30
0.0
 10
532.552650
 20
68.062500
 30
0.0
  0
SPLINE
  5
17f
100
AcDbEntity
  8
Image
 62
7
100
AcDbSpline
 70
8
 71
3
 72
8
 73
4
 74
0
 40
0
 40
0
 40
0
 40
0
 40
1
 40
1
 40
1
 40
1
 10
532.552650
 20
68.062500
 30
0.0
 10
534.433830
 20
63.553868
 30
0.0
 10
534.521753
 20
63.000000
 30
0.0
 10
533.356313
 20
63.000000
 30
0.0
  0
SPLINE
  5
180
100
AcDbEntity
  8
Image
 62
7
100
AcDbSpline
 70
8
 71
3
 72
8
 73
4
 74
0
 40
0
 40
0
 40
0
 40
0
 40
1
 40
1
 40
1
 40
1
 10
533.356313
 20
63.000000
 30
0.0
 10
532.497225
 20
63.000000
 30
0.0
 10
531.503468
 20
64.288162
 30
0.0
 10
530.463375
 20
66.750000
 30
0.0
  0
LWPOLYLINE
  5
181
100
AcDbEntity
  8
Image
 62
7
100
AcDbPolyline
 90
11
 70
0
 10
411.937380
 20
82.588815
 30
0.0
 10
405.000000
 20
82.500000
 30
0.0
 10
405.000000
 20
77.250000
 30
0.0
 10
405.000000
 20
72.000000
 30
0.0
 10
412.875000
 20
72.000000
 30
0.0
 10
420.750000
 20
72.000000
 30
0.0
 10
420.750000
 20
67.500000
 30
0.0
 10
420.750000
 20
63.000000
 30
0.0
 10
407.651565
 20
63.000000
 30
0.0
 10
394.553130
 20
63.000000
 30
0.0
 10
394.714065
 20
86.286698
 30
0.0
  0
SPLINE
  5
182
100
AcDbEntity
  8
Image
 62
7
100
AcDbSpline
 70
8
 71
3
 72
8
 73
4
 74
0
 40
0
 40
0
 40
0
 40
0
 40
1
 40
1
 40
1
 40
1
 10
515.697833
 20
66.750000
 30
0.0
 10
514.696058
 20
63.964147
 30
0.0
 10
513.966990
 20
63.000000
 30
0.0
 10
512.862180
 20
63.000000
 30
0.0
  0
SPLINE
  5
183
100
AcDbEntity
  8
Image
 62
7
100
AcDbSpline
 70
8
 71
3
 72
8
 73
4
 74
0
 40
0
 40
0
 40
0
 40
0
 40
1
 40
1
 40
1
 40
1
 10
512.862180
 20
63.000000
 30
0.0
 10
512.044230
 20
63.000000
 30
0.0
 10
511.487498
 20
63.286890
 30
0.0
 10
511.625002
 20
63.637530
 30
0.0
  0
LWPOLYLINE
  5
184
100
AcDbEntity
  8
Image
 62
7
100
AcDbPolyline
 90
5
 70
0
 10
530.463375
 20
66.750000
 30
0.0
 10
528.879045
 20
70.500000
 30
0.0
 10
522.962678
 20
70.500000
 30
0.0
 10
517.046318
 20
70.500000
 30
0.0
 10
515.697833
 20
66.750000
 30
0.0
  0
SPLINE
  5
185
100
AcDbEntity
  8
Image
 62
7
100
AcDbSpline
 70
8
 71
3
 72
8
 73
4
 74
0
 40
0
 40
0
 40
0
 40
0
 40
1
 40
1
 40
1
 40
1
 10
526.901490
 20
74.786483
 30
0.0
 10
526.260323
 20
77.341080
 30
0.0
 10
523.592025
 20
83.250000
 30
0.0
 10
523.079602
 20
83.250000
 30
0.0
  0
SPLINE
  5
186
100
AcDbEntity
  8
Image
 62
7
100
AcDbSpline
 70
8
 71
3
 72
8
 73
4
 74
0
 40
0
 40
0
 40
0
 40
0
 40
1
 40
1
 40
1
 40
1
 10
523.079602
 20
83.250000
 30
0.0
 10
522.734483
 20
83.250000
 30
0.0
 10
520.669058
 20
78.846180
 30
0.0
 10
518.946473
 20
74.437500
 30
0.0
  0
SPLINE
  5
187
100
AcDbEntity
  8
Image
 62
7
100
AcDbSpline
 70
8
 71
3
 72
8
 73
4
 74
0
 40
0
 40
0
 40
0
 40
0
 40
1
 40
1
 40
1
 40
1
 10
518.946473
 20
74.437500
 30
0.0
 10
518.306730
 20
72.800167
 30
0.0
 10
518.422770
 20
72.750000
 30
0.0
 10
522.849870
 20
72.750000
 30
0.0
  0
LWPOLYLINE
  5
188
100
AcDbEntity
  8
Image
 62
7
100
AcDbPolyline
 90
1
 70
1
 10
511.625002
 20
63.637530
 30
0.0
  0
LWPOLYLINE
  5
189
100
AcDbEntity
  8
Image
 62
7
100
AcDbPolyline
 90
3
 70
0
 10
522.849870
 20
72.750000
 30
0.0
 10
527.412615
 20
72.750000
 30
0.0
 10
526.901490
 20
74.786483
 30
0.0
  0
SPLINE
  5
18a
100
AcDbEntity
  8
Image
 62
7
100
AcDbSpline
 70
8
 71
3
 72
8
 73
4
 74
0
 40
0
 40
0
 40
0
 40
0
 40
1
 40
1
 40
1
 40
1
 10
27.584844
 20
86.814427
 30
0.0
 10
35.527124
 20
89.476628
 30
0.0
 10
47.779550
 20
95.666745
 30
0.0
 10
50.250000
 20
98.265218
 30
0.0
  0
SPLINE
  5
18b
100
AcDbEntity
  8
Image
 62
7
100
AcDbSpline
 70
8
 71
3
 72
8
 73
4
 74
0
 40
0
 40
0
 40
0
 40
0
 40
1
 40
1
 40
1
 40
1
 10
50.250000
 20
98.265218
 30
0.0
 10
50.456250
 20
98.482155
 30
0.0
 10
51.541251
 20
99.242475
 30
0.0
 10
52.661113
 20
99.954825
 30
0.0
  0
SPLINE
  5
18c
100
AcDbEntity
  8
Image
 62
7
100
AcDbSpline
 70
8
 71
3
 72
8
 73
4
 74
0
 40
0
 40
0
 40
0
 40
0
 40
1
 40
1
 40
1
 40
1
 10
52.661113
 20
99.954825
 30
0.0
 10
54.431738
 20
101.081122
 30
0.0
 10
56.778742
 20
101.244615
 30
0.0
 10
70.661113
 20
101.208705
 30
0.0
  0
LWPOLYLINE
  5
18d
100
AcDbEntity
  8
Image
 62
7
100
AcDbPolyline
 90
3
 70
0
 10
25.547798
 20
79.687500
 30
0.0
 10
22.544688
 20
85.125000
 30
0.0
 10
27.584844
 20
86.814427
 30
0.0
  0
SPLINE
  5
18e
100
AcDbEntity
  8
Image
 62
7
100
AcDbSpline
 70
8
 71
3
 72
8
 73
4
 74
0
 40
0
 40
0
 40
0
 40
0
 40
1
 40
1
 40
1
 40
1
 10
81.243668
 20
99.756817
 30
0.0
 10
74.004565
 20
97.859287
 30
0.0
 10
64.922623
 20
93.405780
 30
0.0
 10
55.993213
 20
87.374760
 30
0.0
  0
SPLINE
  5
18f
100
AcDbEntity
  8
Image
 62
7
100
AcDbSpline
 70
8
 71
3
 72
8
 73
4
 74
0
 40
0
 40
0
 40
0
 40
0
 40
1
 40
1
 40
1
 40
1
 10
55.993213
 20
87.374760
 30
0.0
 10
47.704678
 20
81.776588
 30
0.0
 10
40.866537
 20
78.202410
 30
0.0
 10
33.934513
 20
75.845055
 30
0.0
  0
SPLINE
  5
190
100
AcDbEntity
  8
Image
 62
7
100
AcDbSpline
 70
8
 71
3
 72
8
 73
4
 74
0
 40
0
 40
0
 40
0
 40
0
 40
1
 40
1
 40
1
 40
1
 10
33.934513
 20
75.845055
 30
0.0
 10
31.354746
 20
74.967788
 30
0.0
 10
29.088076
 20
74.250000
 30
0.0
 10
28.897468
 20
74.250000
 30
0.0
  0
SPLINE
  5
191
100
AcDbEntity
  8
Image
 62
7
100
AcDbSpline
 70
8
 71
3
 72
8
 73
4
 74
0
 40
0
 40
0
 40
0
 40
0
 40
1
 40
1
 40
1
 40
1
 10
28.897468
 20
74.250000
 30
0.0
 10
28.706860
 20
74.250000
 30
0.0
 10
27.199508
 20
76.696875
 30
0.0
 10
25.547798
 20
79.687500
 30
0.0
  0
LWPOLYLINE
  5
192
100
AcDbEntity
  8
Image
 62
7
100
AcDbPolyline
 90
3
 70
0
 10
70.661113
 20
101.208705
 30
0.0
 10
86.625000
 20
101.167380
 30
0.0
 10
81.243668
 20
99.756817
 30
0.0
  0
SPLINE
  5
193
100
AcDbEntity
  8
Image
 62
7
100
AcDbSpline
 70
8
 71
3
 72
8
 73
4
 74
0
 40
0
 40
0
 40
0
 40
0
 40
1
 40
1
 40
1
 40
1
 10
447.375000
 20
100.403025
 30
0.0
 10
443.825610
 20
102.607470
 30
0.0
 10
441.916793
 20
105.099600
 30
0.0
 10
440.919420
 20
108.831405
 30
0.0
  0
SPLINE
  5
194
100
AcDbEntity
  8
Image
 62
7
100
AcDbSpline
 70
8
 71
3
 72
8
 73
4
 74
0
 40
0
 40
0
 40
0
 40
0
 40
1
 40
1
 40
1
 40
1
 10
440.919420
 20
108.831405
 30
0.0
 10
438.986663
 20
116.063040
 30
0.0
 10
443.396197
 20
123.485850
 30
0.0
 10
450.660112
 20
125.228437
 30
0.0
  0
SPLINE
  5
195
100
AcDbEntity
  8
Image
 62
7
100
AcDbSpline
 70
8
 71
3
 72
8
 73
4
 74
0
 40
0
 40
0
 40
0
 40
0
 40
1
 40
1
 40
1
 40
1
 10
450.660112
 20
125.228437
 30
0.0
 10
455.008072
 20
126.271492
 30
0.0
 10
460.050412
 20
125.241412
 30
0.0
 10
461.210857
 20
123.073140
 30
0.0
  0
SPLINE
  5
196
100
AcDbEntity
  8
Image
 62
7
100
AcDbSpline
 70
8
 71
3
 72
8
 73
4
 74
0
 40
0
 40
0
 40
0
 40
0
 40
1
 40
1
 40
1
 40
1
 10
461.210857
 20
123.073140
 30
0.0
 10
462.229230
 20
121.170285
 30
0.0
 10
461.365500
 20
120.584047
 30
0.0
 10
459.484597
 20
121.901483
 30
0.0
  0
SPLINE
  5
197
100
AcDbEntity
  8
Image
 62
7
100
AcDbSpline
 70
8
 71
3
 72
8
 73
4
 74
0
 40
0
 40
0
 40
0
 40
0
 40
1
 40
1
 40
1
 40
1
 10
459.484597
 20
121.901483
 30
0.0
 10
457.069665
 20
123.592965
 30
0.0
 10
450.319830
 20
123.329880
 30
0.0
 10
447.666960
 20
121.440870
 30
0.0
  0
SPLINE
  5
198
100
AcDbEntity
  8
Image
 62
7
100
AcDbSpline
 70
8
 71
3
 72
8
 73
4
 74
0
 40
0
 40
0
 40
0
 40
0
 40
1
 40
1
 40
1
 40
1
 10
447.666960
 20
121.440870
 30
0.0
 10
441.447300
 20
117.012083
 30
0.0
 10
441.618097
 20
106.595003
 30
0.0
 10
447.973912
 20
102.719640
 30
0.0
  0
SPLINE
  5
199
100
AcDbEntity
  8
Image
 62
7
100
AcDbSpline
 70
8
 71
3
 72
8
 73
4
 74
0
 40
0
 40
0
 40
0
 40
0
 40
1
 40
1
 40
1
 40
1
 10
447.973912
 20
102.719640
 30
0.0
 10
450.820140
 20
100.984193
 30
0.0
 10
456.269100
 20
100.813875
 30
0.0
 10
459.000000
 20
102.375000
 30
0.0
  0
SPLINE
  5
19a
100
AcDbEntity
  8
Image
 62
7
100
AcDbSpline
 70
8
 71
3
 72
8
 73
4
 74
0
 40
0
 40
0
 40
0
 40
0
 40
1
 40
1
 40
1
 40
1
 10
459.000000
 20
102.375000
 30
0.0
 10
461.518080
 20
103.814468
 30
0.0
 10
461.927648
 20
103.760318
 30
0.0
 10
461.479650
 20
102.047175
 30
0.0
  0
SPLINE
  5
19b
100
AcDbEntity
  8
Image
 62
7
100
AcDbSpline
 70
8
 71
3
 72
8
 73
4
 74
0
 40
0
 40
0
 40
0
 40
0
 40
1
 40
1
 40
1
 40
1
 10
461.479650
 20
102.047175
 30
0.0
 10
460.675387
 20
98.971680
 30
0.0
 10
451.417260
 20
97.892475
 30
0.0
 10
447.375000
 20
100.403025
 30
0.0
  0
LWPOLYLINE
  5
19c
100
AcDbEntity
  8
Image
 62
7
100
AcDbPolyline
 90
1
 70
1
 10
25.547798
 20
79.687500
 30
0.0
  0
SPLINE
  5
19d
100
AcDbEntity
  8
Image
 62
7
100
AcDbSpline
 70
8
 71
3
 72
8
 73
4
 74
0
 40
0
 40
0
 40
0
 40
0
 40
1
 40
1
 40
1
 40
1
 10
481.402102
 20
106.312500
 30
0.0
 10
481.348252
 20
110.334375
 30
0.0
 10
481.298423
 20
116.156250
 30
0.0
 10
481.291365
 20
119.250000
 30
0.0
  0
LWPOLYLINE
  5
19e
100
AcDbEntity
  8
Image
 62
7
100
AcDbPolyline
 90
1
 70
1
 10
447.375000
 20
100.403025
 30
0.0
  0
SPLINE
  5
19f
100
AcDbEntity
  8
Image
 62
7
100
AcDbSpline
 70
8
 71
3
 72
8
 73
4
 74
0
 40
0
 40
0
 40
0
 40
0
 40
1
 40
1
 40
1
 40
1
 10
487.764277
 20
125.091697
 30
0.0
 10
493.196175
 20
125.273190
 30
0.0
 10
494.250015
 20
125.120873
 30
0.0
 10
494.250015
 20
124.154197
 30
0.0
  0
SPLINE
  5
1a0
100
AcDbEntity
  8
Image
 62
7
100
AcDbSpline
 70
8
 71
3
 72
8
 73
4
 74
0
 40
0
 40
0
 40
0
 40
0
 40
1
 40
1
 40
1
 40
1
 10
494.250015
 20
124.154197
 30
0.0
 10
494.250015
 20
123.225188
 30
0.0
 10
493.225710
 20
123.000000
 30
0.0
 10
489.000015
 20
123.000000
 30
0.0
  0
LWPOLYLINE
  5
1a1
100
AcDbEntity
  8
Image
 62
7
100
AcDbPolyline
 90
3
 70
0
 10
481.291365
 20
119.250000
 30
0.0
 10
481.278540
 20
124.875000
 30
0.0
 10
487.764277
 20
125.091697
 30
0.0
  0
SPLINE
  5
1a2
100
AcDbEntity
  8
Image
 62
7
100
AcDbSpline
 70
8
 71
3
 72
8
 73
4
 74
0
 40
0
 40
0
 40
0
 40
0
 40
1
 40
1
 40
1
 40
1
 10
489.000015
 20
114.750000
 30
0.0
 10
493.166685
 20
114.750000
 30
0.0
 10
494.250015
 20
114.517860
 30
0.0
 10
494.250015
 20
113.625000
 30
0.0
  0
SPLINE
  5
1a3
100
AcDbEntity
  8
Image
 62
7
100
AcDbSpline
 70
8
 71
3
 72
8
 73
4
 74
0
 40
0
 40
0
 40
0
 40
0
 40
1
 40
1
 40
1
 40
1
 10
494.250015
 20
113.625000
 30
0.0
 10
494.250015
 20
112.732140
 30
0.0
 10
493.166685
 20
112.500000
 30
0.0
 10
489.000015
 20
112.500000
 30
0.0
  0
LWPOLYLINE
  5
1a4
100
AcDbEntity
  8
Image
 62
7
100
AcDbPolyline
 90
5
 70
0
 10
489.000015
 20
123.000000
 30
0.0
 10
483.750015
 20
123.000000
 30
0.0
 10
483.750015
 20
118.875000
 30
0.0
 10
483.750015
 20
114.750000
 30
0.0
 10
489.000015
 20
114.750000
 30
0.0
  0
SPLINE
  5
1a5
100
AcDbEntity
  8
Image
 62
7
100
AcDbSpline
 70
8
 71
3
 72
8
 73
4
 74
0
 40
0
 40
0
 40
0
 40
0
 40
1
 40
1
 40
1
 40
1
 10
489.000015
 20
101.250000
 30
0.0
 10
493.166685
 20
101.250000
 30
0.0
 10
494.250015
 20
101.017860
 30
0.0
 10
494.250015
 20
100.125000
 30
0.0
  0
SPLINE
  5
1a6
100
AcDbEntity
  8
Image
 62
7
100
AcDbSpline
 70
8
 71
3
 72
8
 73
4
 74
0
 40
0
 40
0
 40
0
 40
0
 40
1
 40
1
 40
1
 40
1
 10
494.250015
 20
100.125000
 30
0.0
 10
494.250015
 20
99.213233
 30
0.0
 10
493.041682
 20
99.000000
 30
0.0
 10
487.875015
 20
99.000000
 30
0.0
  0
LWPOLYLINE
  5
1a7
100
AcDbEntity
  8
Image
 62
7
100
AcDbPolyline
 90
5
 70
0
 10
489.000015
 20
112.500000
 30
0.0
 10
483.750015
 20
112.500000
 30
0.0
 10
483.750015
 20
106.875000
 30
0.0
 10
483.750015
 20
101.250000
 30
0.0
 10
489.000015
 20
101.250000
 30
0.0
  0
SPLINE
  5
1a8
100
AcDbEntity
  8
Image
 62
7
100
AcDbSpline
 70
8
 71
3
 72
8
 73
4
 74
0
 40
0
 40
0
 40
0
 40
0
 40
1
 40
1
 40
1
 40
1
 10
516.750000
 20
112.125000
 30
0.0
 10
516.750000
 20
123.191213
 30
0.0
 10
516.923482
 20
125.250000
 30
0.0
 10
517.855957
 20
125.250000
 30
0.0
  0
SPLINE
  5
1a9
100
AcDbEntity
  8
Image
 62
7
100
AcDbSpline
 70
8
 71
3
 72
8
 73
4
 74
0
 40
0
 40
0
 40
0
 40
0
 40
1
 40
1
 40
1
 40
1
 10
517.855957
 20
125.250000
 30
0.0
 10
518.775008
 20
125.250000
 30
0.0
 10
518.996812
 20
123.253717
 30
0.0
 10
519.168457
 20
113.437500
 30
0.0
  0
LWPOLYLINE
  5
1aa
100
AcDbEntity
  8
Image
 62
7
100
AcDbPolyline
 90
4
 70
0
 10
487.875015
 20
99.000000
 30
0.0
 10
481.500015
 20
99.000000
 30
0.0
 10
481.402117
 20
106.312500
 30
0.0
 10
481.402102
 20
106.312500
 30
0.0
  0
SPLINE
  5
1ab
100
AcDbEntity
  8
Image
 62
7
100
AcDbSpline
 70
8
 71
3
 72
8
 73
4
 74
0
 40
0
 40
0
 40
0
 40
0
 40
1
 40
1
 40
1
 40
1
 10
525.562500
 20
101.407170
 30
0.0
 10
530.386808
 20
101.237325
 30
0.0
 10
531.750000
 20
100.948163
 30
0.0
 10
531.750000
 20
100.094670
 30
0.0
  0
SPLINE
  5
1ac
100
AcDbEntity
  8
Image
 62
7
100
AcDbSpline
 70
8
 71
3
 72
8
 73
4
 74
0
 40
0
 40
0
 40
0
 40
0
 40
1
 40
1
 40
1
 40
1
 10
531.750000
 20
100.094670
 30
0.0
 10
531.750000
 20
99.208087
 30
0.0
 10
530.324302
 20
99.000000
 30
0.0
 10
524.250000
 20
99.000000
 30
0.0
  0
LWPOLYLINE
  5
1ad
100
AcDbEntity
  8
Image
 62
7
100
AcDbPolyline
 90
3
 70
0
 10
519.168457
 20
113.437500
 30
0.0
 10
519.375000
 20
101.625000
 30
0.0
 10
525.562500
 20
101.407170
 30
0.0
  0
SPLINE
  5
1ae
100
AcDbEntity
  8
Image
 62
7
100
AcDbSpline
 70
8
 71
3
 72
8
 73
4
 74
0
 40
0
 40
0
 40
0
 40
0
 40
1
 40
1
 40
1
 40
1
 10
298.805175
 20
115.054882
 30
0.0
 10
282.701445
 20
118.964303
 30
0.0
 10
275.462812
 20
138.763178
 30
0.0
 10
285.045218
 20
152.690722
 30
0.0
  0
SPLINE
  5
1af
100
AcDbEntity
  8
Image
 62
7
100
AcDbSpline
 70
8
 71
3
 72
8
 73
4
 74
0
 40
0
 40
0
 40
0
 40
0
 40
1
 40
1
 40
1
 40
1
 10
285.045218
 20
152.690722
 30
0.0
 10
287.784780
 20
156.672540
 30
0.0
 10
292.421857
 20
160.104382
 30
0.0
 10
297.212505
 20
161.695583
 30
0.0
  0
SPLINE
  5
1b0
100
AcDbEntity
  8
Image
 62
7
100
AcDbSpline
 70
8
 71
3
 72
8
 73
4
 74
0
 40
0
 40
0
 40
0
 40
0
 40
1
 40
1
 40
1
 40
1
 10
297.212505
 20
161.695583
 30
0.0
 10
301.303065
 20
163.054252
 30
0.0
 10
310.677653
 20
162.874365
 30
0.0
 10
314.437500
 20
161.365065
 30
0.0
  0
SPLINE
  5
1b1
100
AcDbEntity
  8
Image
 62
7
100
AcDbSpline
 70
8
 71
3
 72
8
 73
4
 74
0
 40
0
 40
0
 40
0
 40
0
 40
1
 40
1
 40
1
 40
1
 10
314.437500
 20
161.365065
 30
0.0
 10
316.456095
 20
160.554750
 30
0.0
 10
316.499752
 20
160.405020
 30
0.0
 10
316.488518
 20
154.331062
 30
0.0
  0
SPLINE
  5
1b2
100
AcDbEntity
  8
Image
 62
7
100
AcDbSpline
 70
8
 71
3
 72
8
 73
4
 74
0
 40
0
 40
0
 40
0
 40
0
 40
1
 40
1
 40
1
 40
1
 10
316.488518
 20
154.331062
 30
0.0
 10
316.482518
 20
150.917730
 30
0.0
 10
316.229078
 20
148.504402
 30
0.0
 10
315.926018
 20
148.968120
 30
0.0
  0
SPLINE
  5
1b3
100
AcDbEntity
  8
Image
 62
7
100
AcDbSpline
 70
8
 71
3
 72
8
 73
4
 74
0
 40
0
 40
0
 40
0
 40
0
 40
1
 40
1
 40
1
 40
1
 10
315.926018
 20
148.968120
 30
0.0
 10
314.525482
 20
151.111095
 30
0.0
 10
309.996037
 20
152.994487
 30
0.0
 10
306.236325
 20
152.997195
 30
0.0
  0
SPLINE
  5
1b4
100
AcDbEntity
  8
Image
 62
7
100
AcDbSpline
 70
8
 71
3
 72
8
 73
4
 74
0
 40
0
 40
0
 40
0
 40
0
 40
1
 40
1
 40
1
 40
1
 10
306.236325
 20
152.997195
 30
0.0
 10
301.714125
 20
153.000195
 30
0.0
 10
298.829310
 20
152.055203
 30
0.0
 10
296.364510
 20
149.762542
 30
0.0
  0
SPLINE
  5
1b5
100
AcDbEntity
  8
Image
 62
7
100
AcDbSpline
 70
8
 71
3
 72
8
 73
4
 74
0
 40
0
 40
0
 40
0
 40
0
 40
1
 40
1
 40
1
 40
1
 10
296.364510
 20
149.762542
 30
0.0
 10
289.844738
 20
143.698087
 30
0.0
 10
290.317395
 20
130.934265
 30
0.0
 10
297.217755
 20
126.721500
 30
0.0
  0
SPLINE
  5
1b6
100
AcDbEntity
  8
Image
 62
7
100
AcDbSpline
 70
8
 71
3
 72
8
 73
4
 74
0
 40
0
 40
0
 40
0
 40
0
 40
1
 40
1
 40
1
 40
1
 10
297.217755
 20
126.721500
 30
0.0
 10
303.067035
 20
123.150420
 30
0.0
 10
308.881605
 20
123.034815
 30
0.0
 10
313.827578
 20
126.391237
 30
0.0
  0
LWPOLYLINE
  5
1b7
100
AcDbEntity
  8
Image
 62
7
100
AcDbPolyline
 90
3
 70
0
 10
524.250000
 20
99.000000
 30
0.0
 10
516.750000
 20
99.000000
 30
0.0
 10
516.750000
 20
112.125000
 30
0.0
  0
SPLINE
  5
1b8
100
AcDbEntity
  8
Image
 62
7
100
AcDbSpline
 70
8
 71
3
 72
8
 73
4
 74
0
 40
0
 40
0
 40
0
 40
0
 40
1
 40
1
 40
1
 40
1
 10
312.613875
 20
115.154055
 30
0.0
 10
308.056485
 20
113.800658
 30
0.0
 10
304.088992
 20
113.772165
 30
0.0
 10
298.805175
 20
115.054883
 30
0.0
  0
LWPOLYLINE
  5
1b9
100
AcDbEntity
  8
Image
 62
7
100
AcDbPolyline
 90
5
 70
0
 10
313.827578
 20
126.391237
 30
0.0
 10
316.500000
 20
128.204797
 30
0.0
 10
316.500000
 20
122.256450
 30
0.0
 10
316.500000
 20
116.308110
 30
0.0
 10
312.613875
 20
115.154055
 30
0.0
  0
SPLINE
  5
1ba
100
AcDbEntity
  8
Image
 62
7
100
AcDbSpline
 70
8
 71
3
 72
8
 73
4
 74
0
 40
0
 40
0
 40
0
 40
0
 40
1
 40
1
 40
1
 40
1
 10
67.500000
 20
115.867298
 30
0.0
 10
67.500000
 20
116.190472
 30
0.0
 10
74.260027
 20
132.971767
 30
0.0
 10
83.062455
 20
154.500000
 30
0.0
  0
LWPOLYLINE
  5
1bb
100
AcDbEntity
  8
Image
 62
7
100
AcDbPolyline
 90
1
 70
1
 10
298.805175
 20
115.054883
 30
0.0
  0
SPLINE
  5
1bc
100
AcDbEntity
  8
Image
 62
7
100
AcDbSpline
 70
8
 71
3
 72
8
 73
4
 74
0
 40
0
 40
0
 40
0
 40
0
 40
1
 40
1
 40
1
 40
1
 10
101.617057
 20
147.218700
 30
0.0
 10
104.854290
 20
139.054665
 30
0.0
 10
108.753112
 20
129.168750
 30
0.0
 10
110.281125
 20
125.250000
 30
0.0
  0
SPLINE
  5
1bd
100
AcDbEntity
  8
Image
 62
7
100
AcDbSpline
 70
8
 71
3
 72
8
 73
4
 74
0
 40
0
 40
0
 40
0
 40
0
 40
1
 40
1
 40
1
 40
1
 10
110.281125
 20
125.250000
 30
0.0
 10
111.809130
 20
121.331250
 30
0.0
 10
113.307075
 20
117.534375
 30
0.0
 10
113.609902
 20
116.812500
 30
0.0
  0
SPLINE
  5
1be
100
AcDbEntity
  8
Image
 62
7
100
AcDbSpline
 70
8
 71
3
 72
8
 73
4
 74
0
 40
0
 40
0
 40
0
 40
0
 40
1
 40
1
 40
1
 40
1
 10
113.609902
 20
116.812500
 30
0.0
 10
114.105322
 20
115.631498
 30
0.0
 10
113.607653
 20
115.500000
 30
0.0
 10
108.638925
 20
115.500000
 30
0.0
  0
LWPOLYLINE
  5
1bf
100
AcDbEntity
  8
Image
 62
7
100
AcDbPolyline
 90
5
 70
0
 10
83.062455
 20
154.500000
 30
0.0
 10
85.975718
 20
161.625000
 30
0.0
 10
90.853455
 20
161.843700
 30
0.0
 10
95.731185
 20
162.062408
 30
0.0
 10
101.617057
 20
147.218700
 30
0.0
  0
SPLINE
  5
1c0
100
AcDbEntity
  8
Image
 62
7
100
AcDbSpline
 70
8
 71
3
 72
8
 73
4
 74
0
 40
0
 40
0
 40
0
 40
0
 40
1
 40
1
 40
1
 40
1
 10
72.941318
 20
115.500000
 30
0.0
 10
69.948593
 20
115.500000
 30
0.0
 10
67.500000
 20
115.665285
 30
0.0
 10
67.500000
 20
115.867298
 30
0.0
  0
LWPOLYLINE
  5
1c1
100
AcDbEntity
  8
Image
 62
7
100
AcDbPolyline
 90
9
 70
0
 10
108.638925
 20
115.500000
 30
0.0
 10
103.117365
 20
115.500000
 30
0.0
 10
101.404185
 20
119.918160
 30
0.0
 10
99.691005
 20
124.336328
 30
0.0
 10
90.794625
 20
124.451415
 30
0.0
 10
81.898252
 20
124.566503
 30
0.0
 10
80.140447
 20
120.033248
 30
0.0
 10
78.382635
 20
115.500000
 30
0.0
 10
72.941318
 20
115.500000
 30
0.0
  0
SPLINE
  5
1c2
100
AcDbEntity
  8
Image
 62
7
100
AcDbSpline
 70
8
 71
3
 72
8
 73
4
 74
0
 40
0
 40
0
 40
0
 40
0
 40
1
 40
1
 40
1
 40
1
 10
96.567615
 20
132.937500
 30
0.0
 10
96.379035
 20
133.453125
 30
0.0
 10
95.109877
 20
137.012572
 30
0.0
 10
93.747263
 20
140.847390
 30
0.0
  0
SPLINE
  5
1c3
100
AcDbEntity
  8
Image
 62
7
100
AcDbSpline
 70
8
 71
3
 72
8
 73
4
 74
0
 40
0
 40
0
 40
0
 40
0
 40
1
 40
1
 40
1
 40
1
 10
93.747263
 20
140.847390
 30
0.0
 10
92.384640
 20
144.682200
 30
0.0
 10
91.004618
 20
147.550950
 30
0.0
 10
90.680527
 20
147.222390
 30
0.0
  0
SPLINE
  5
1c4
100
AcDbEntity
  8
Image
 62
7
100
AcDbSpline
 70
8
 71
3
 72
8
 73
4
 74
0
 40
0
 40
0
 40
0
 40
0
 40
1
 40
1
 40
1
 40
1
 10
90.680527
 20
147.222390
 30
0.0
 10
90.356445
 20
146.893822
 30
0.0
 10
89.088983
 20
143.925000
 30
0.0
 10
87.863947
 20
140.625000
 30
0.0
  0
SPLINE
  5
1c5
100
AcDbEntity
  8
Image
 62
7
100
AcDbSpline
 70
8
 71
3
 72
8
 73
4
 74
0
 40
0
 40
0
 40
0
 40
0
 40
1
 40
1
 40
1
 40
1
 10
87.863947
 20
140.625000
 30
0.0
 10
86.638912
 20
137.325000
 30
0.0
 10
85.401007
 20
134.034375
 30
0.0
 10
85.113060
 20
133.312500
 30
0.0
  0
SPLINE
  5
1c6
100
AcDbEntity
  8
Image
 62
7
100
AcDbSpline
 70
8
 71
3
 72
8
 73
4
 74
0
 40
0
 40
0
 40
0
 40
0
 40
1
 40
1
 40
1
 40
1
 10
85.113060
 20
133.312500
 30
0.0
 10
84.639990
 20
132.126532
 30
0.0
 10
85.183410
 20
132.000000
 30
0.0
 10
90.750000
 20
132.000000
 30
0.0
  0
SPLINE
  5
1c7
100
AcDbEntity
  8
Image
 62
7
100
AcDbSpline
 70
8
 71
3
 72
8
 73
4
 74
0
 40
0
 40
0
 40
0
 40
0
 40
1
 40
1
 40
1
 40
1
 10
90.750000
 20
132.000000
 30
0.0
 10
95.361247
 20
132.000000
 30
0.0
 10
96.824257
 20
132.235762
 30
0.0
 10
96.567615
 20
132.937500
 30
0.0
  0
LWPOLYLINE
  5
1c8
100
AcDbEntity
  8
Image
 62
7
100
AcDbPolyline
 90
1
 70
1
 10
67.500000
 20
115.867298
 30
0.0
  0
SPLINE
  5
1c9
100
AcDbEntity
  8
Image
 62
7
100
AcDbSpline
 70
8
 71
3
 72
8
 73
4
 74
0
 40
0
 40
0
 40
0
 40
0
 40
1
 40
1
 40
1
 40
1
 10
118.035600
 20
116.812500
 30
0.0
 10
118.248278
 20
117.534375
 30
0.0
 10
119.451030
 20
124.706250
 30
0.0
 10
120.708375
 20
132.750000
 30
0.0
  0
SPLINE
  5
1ca
100
AcDbEntity
  8
Image
 62
7
100
AcDbSpline
 70
8
 71
3
 72
8
 73
4
 74
0
 40
0
 40
0
 40
0
 40
0
 40
1
 40
1
 40
1
 40
1
 10
120.708375
 20
132.750000
 30
0.0
 10
121.965727
 20
140.793750
 30
0.0
 10
123.496072
 20
150.412500
 30
0.0
 10
124.109145
 20
154.125000
 30
0.0
  0
SPLINE
  5
1cb
100
AcDbEntity
  8
Image
 62
7
100
AcDbSpline
 70
8
 71
3
 72
8
 73
4
 74
0
 40
0
 40
0
 40
0
 40
0
 40
1
 40
1
 40
1
 40
1
 10
124.109145
 20
154.125000
 30
0.0
 10
124.722210
 20
157.837500
 30
0.0
 10
125.229705
 20
161.128125
 30
0.0
 10
125.236905
 20
161.437500
 30
0.0
  0
SPLINE
  5
1cc
100
AcDbEntity
  8
Image
 62
7
100
AcDbSpline
 70
8
 71
3
 72
8
 73
4
 74
0
 40
0
 40
0
 40
0
 40
0
 40
1
 40
1
 40
1
 40
1
 10
125.236905
 20
161.437500
 30
0.0
 10
125.244405
 20
161.746875
 30
0.0
 10
127.238355
 20
162.000000
 30
0.0
 10
129.668565
 20
162.000000
 30
0.0
  0
SPLINE
  5
1cd
100
AcDbEntity
  8
Image
 62
7
100
AcDbSpline
 70
8
 71
3
 72
8
 73
4
 74
0
 40
0
 40
0
 40
0
 40
0
 40
1
 40
1
 40
1
 40
1
 10
129.668565
 20
162.000000
 30
0.0
 10
134.067585
 20
162.000000
 30
0.0
 10
134.092275
 20
161.987550
 30
0.0
 10
135.250808
 20
159.187500
 30
0.0
  0
SPLINE
  5
1ce
100
AcDbEntity
  8
Image
 62
7
100
AcDbSpline
 70
8
 71
3
 72
8
 73
4
 74
0
 40
0
 40
0
 40
0
 40
0
 40
1
 40
1
 40
1
 40
1
 10
135.250808
 20
159.187500
 30
0.0
 10
135.890835
 20
157.640625
 30
0.0
 10
138.410850
 20
151.546005
 30
0.0
 10
140.850848
 20
145.643895
 30
0.0
  0
SPLINE
  5
1cf
100
AcDbEntity
  8
Image
 62
7
100
AcDbSpline
 70
8
 71
3
 72
8
 73
4
 74
0
 40
0
 40
0
 40
0
 40
0
 40
1
 40
1
 40
1
 40
1
 10
140.850848
 20
145.643895
 30
0.0
 10
143.290845
 20
139.741792
 30
0.0
 10
145.588215
 20
134.925173
 30
0.0
 10
145.956105
 20
134.940300
 30
0.0
  0
SPLINE
  5
1d0
100
AcDbEntity
  8
Image
 62
7
100
AcDbSpline
 70
8
 71
3
 72
8
 73
4
 74
0
 40
0
 40
0
 40
0
 40
0
 40
1
 40
1
 40
1
 40
1
 10
145.956105
 20
134.940300
 30
0.0
 10
146.580330
 20
134.965950
 30
0.0
 10
149.914185
 20
142.459958
 30
0.0
 10
155.408355
 20
156.187500
 30
0.0
  0
LWPOLYLINE
  5
1d1
100
AcDbEntity
  8
Image
 62
7
100
AcDbPolyline
 90
1
 70
1
 10
96.567615
 20
132.937500
 30
0.0
  0
SPLINE
  5
1d2
100
AcDbEntity
  8
Image
 62
7
100
AcDbSpline
 70
8
 71
3
 72
8
 73
4
 74
0
 40
0
 40
0
 40
0
 40
0
 40
1
 40
1
 40
1
 40
1
 10
162.103058
 20
162.000000
 30
0.0
 10
167.179178
 20
162.000000
 30
0.0
 10
166.491645
 20
163.354357
 30
0.0
 10
168.765922
 20
148.875000
 30
0.0
  0
SPLINE
  5
1d3
100
AcDbEntity
  8
Image
 62
7
100
AcDbSpline
 70
8
 71
3
 72
8
 73
4
 74
0
 40
0
 40
0
 40
0
 40
0
 40
1
 40
1
 40
1
 40
1
 10
168.765922
 20
148.875000
 30
0.0
 10
169.608210
 20
143.512500
 30
0.0
 10
170.933288
 20
135.243750
 30
0.0
 10
171.710543
 20
130.500000
 30
0.0
  0
SPLINE
  5
1d4
100
AcDbEntity
  8
Image
 62
7
100
AcDbSpline
 70
8
 71
3
 72
8
 73
4
 74
0
 40
0
 40
0
 40
0
 40
0
 40
1
 40
1
 40
1
 40
1
 10
171.710543
 20
130.500000
 30
0.0
 10
172.487790
 20
125.756250
 30
0.0
 10
173.324873
 20
120.440625
 30
0.0
 10
173.570723
 20
118.687500
 30
0.0
  0
LWPOLYLINE
  5
1d5
100
AcDbEntity
  8
Image
 62
7
100
AcDbPolyline
 90
3
 70
0
 10
155.408355
 20
156.187500
 30
0.0
 10
157.734690
 20
162.000000
 30
0.0
 10
162.103058
 20
162.000000
 30
0.0
  0
SPLINE
  5
1d6
100
AcDbEntity
  8
Image
 62
7
100
AcDbSpline
 70
8
 71
3
 72
8
 73
4
 74
0
 40
0
 40
0
 40
0
 40
0
 40
1
 40
1
 40
1
 40
1
 10
163.256798
 20
118.312500
 30
0.0
 10
163.017593
 20
119.859375
 30
0.0
 10
162.239663
 20
125.934375
 30
0.0
 10
161.528063
 20
131.812500
 30
0.0
  0
SPLINE
  5
1d7
100
AcDbEntity
  8
Image
 62
7
100
AcDbSpline
 70
8
 71
3
 72
8
 73
4
 74
0
 40
0
 40
0
 40
0
 40
0
 40
1
 40
1
 40
1
 40
1
 10
161.528063
 20
131.812500
 30
0.0
 10
160.816455
 20
137.690625
 30
0.0
 10
160.011930
 20
142.500000
 30
0.0
 10
159.740228
 20
142.500000
 30
0.0
  0
SPLINE
  5
1d8
100
AcDbEntity
  8
Image
 62
7
100
AcDbSpline
 70
8
 71
3
 72
8
 73
4
 74
0
 40
0
 40
0
 40
0
 40
0
 40
1
 40
1
 40
1
 40
1
 10
159.740228
 20
142.500000
 30
0.0
 10
159.468525
 20
142.500000
 30
0.0
 10
156.743948
 20
136.509375
 30
0.0
 10
153.685613
 20
129.187500
 30
0.0
  0
SPLINE
  5
1d9
100
AcDbEntity
  8
Image
 62
7
100
AcDbSpline
 70
8
 71
3
 72
8
 73
4
 74
0
 40
0
 40
0
 40
0
 40
0
 40
1
 40
1
 40
1
 40
1
 10
153.685613
 20
129.187500
 30
0.0
 10
148.524045
 20
116.830335
 30
0.0
 10
147.977018
 20
115.857975
 30
0.0
 10
146.062868
 20
115.637715
 30
0.0
  0
SPLINE
  5
1da
100
AcDbEntity
  8
Image
 62
7
100
AcDbSpline
 70
8
 71
3
 72
8
 73
4
 74
0
 40
0
 40
0
 40
0
 40
0
 40
1
 40
1
 40
1
 40
1
 10
146.062868
 20
115.637715
 30
0.0
 10
144.387623
 20
115.444957
 30
0.0
 10
143.850885
 20
115.796737
 30
0.0
 10
143.202083
 20
117.512715
 30
0.0
  0
SPLINE
  5
1db
100
AcDbEntity
  8
Image
 62
7
100
AcDbSpline
 70
8
 71
3
 72
8
 73
4
 74
0
 40
0
 40
0
 40
0
 40
0
 40
1
 40
1
 40
1
 40
1
 10
143.202083
 20
117.512715
 30
0.0
 10
141.200633
 20
122.806207
 30
0.0
 10
133.201268
 20
141.444810
 30
0.0
 10
132.672833
 20
142.045980
 30
0.0
  0
SPLINE
  5
1dc
100
AcDbEntity
  8
Image
 62
7
100
AcDbSpline
 70
8
 71
3
 72
8
 73
4
 74
0
 40
0
 40
0
 40
0
 40
0
 40
1
 40
1
 40
1
 40
1
 10
132.672833
 20
142.045980
 30
0.0
 10
131.937233
 20
142.882837
 30
0.0
 10
131.682323
 20
141.579540
 30
0.0
 10
130.121228
 20
129.000000
 30
0.0
  0
SPLINE
  5
1dd
100
AcDbEntity
  8
Image
 62
7
100
AcDbSpline
 70
8
 71
3
 72
8
 73
4
 74
0
 40
0
 40
0
 40
0
 40
0
 40
1
 40
1
 40
1
 40
1
 10
130.121228
 20
129.000000
 30
0.0
 10
128.281628
 20
114.176220
 30
0.0
 10
128.992845
 20
115.500000
 30
0.0
 10
122.868150
 20
115.500000
 30
0.0
  0
SPLINE
  5
1de
100
AcDbEntity
  8
Image
 62
7
100
AcDbSpline
 70
8
 71
3
 72
8
 73
4
 74
0
 40
0
 40
0
 40
0
 40
0
 40
1
 40
1
 40
1
 40
1
 10
122.868150
 20
115.500000
 30
0.0
 10
118.250145
 20
115.500000
 30
0.0
 10
117.693465
 20
115.651192
 30
0.0
 10
118.035600
 20
116.812500
 30
0.0
  0
LWPOLYLINE
  5
1df
100
AcDbEntity
  8
Image
 62
7
100
AcDbPolyline
 90
5
 70
0
 10
173.570723
 20
118.687500
 30
0.0
 10
174.017730
 20
115.500000
 30
0.0
 10
168.854723
 20
115.500000
 30
0.0
 10
163.691715
 20
115.500000
 30
0.0
 10
163.256798
 20
118.312500
 30
0.0
  0
LWPOLYLINE
  5
1e0
100
AcDbEntity
  8
Image
 62
7
100
AcDbPolyline
 90
1
 70
1
 10
118.035600
 20
116.812500
 30
0.0
  0
LWPOLYLINE
  5
1e1
100
AcDbEntity
  8
Image
 62
7
100
AcDbPolyline
 90
24
 70
1
 10
182.833417
 20
138.749603
 30
0.0
 10
183.041843
 20
162.000000
 30
0.0
 10
196.145917
 20
162.000000
 30
0.0
 10
209.250000
 20
162.000000
 30
0.0
 10
209.250000
 20
157.500000
 30
0.0
 10
209.250000
 20
153.000000
 30
0.0
 10
201.339210
 20
153.000000
 30
0.0
 10
193.428427
 20
153.000000
 30
0.0
 10
193.651710
 20
148.312500
 30
0.0
 10
193.875000
 20
143.625000
 30
0.0
 10
201.000000
 20
143.487008
 30
0.0
 10
208.125000
 20
143.349015
 30
0.0
 10
208.349925
 20
139.174508
 30
0.0
 10
208.574858
 20
135.000000
 30
0.0
 10
201.037425
 20
135.000000
 30
0.0
 10
193.500000
 20
135.000000
 30
0.0
 10
193.500000
 20
129.375000
 30
0.0
 10
193.500000
 20
123.750000
 30
0.0
 10
201.375000
 20
123.750000
 30
0.0
 10
209.250000
 20
123.750000
 30
0.0
 10
209.250000
 20
119.625000
 30
0.0
 10
209.250000
 20
115.500000
 30
0.0
 10
195.937500
 20
115.499603
 30
0.0
 10
182.625000
 20
115.499205
 30
0.0
  0
SPLINE
  5
1e2
100
AcDbEntity
  8
Image
 62
7
100
AcDbSpline
 70
8
 71
3
 72
8
 73
4
 74
0
 40
0
 40
0
 40
0
 40
0
 40
1
 40
1
 40
1
 40
1
 10
227.812500
 20
161.995500
 30
0.0
 10
233.071875
 20
161.993250
 30
0.0
 10
238.708523
 20
161.621093
 30
0.0
 10
240.338377
 20
161.168588
 30
0.0
  0
SPLINE
  5
1e3
100
AcDbEntity
  8
Image
 62
7
100
AcDbSpline
 70
8
 71
3
 72
8
 73
4
 74
0
 40
0
 40
0
 40
0
 40
0
 40
1
 40
1
 40
1
 40
1
 10
240.338377
 20
161.168588
 30
0.0
 10
247.355512
 20
159.220410
 30
0.0
 10
251.071680
 20
153.505433
 30
0.0
 10
250.284000
 20
145.873553
 30
0.0
  0
SPLINE
  5
1e4
100
AcDbEntity
  8
Image
 62
7
100
AcDbSpline
 70
8
 71
3
 72
8
 73
4
 74
0
 40
0
 40
0
 40
0
 40
0
 40
1
 40
1
 40
1
 40
1
 10
250.284000
 20
145.873553
 30
0.0
 10
249.768240
 20
140.876317
 30
0.0
 10
247.762582
 20
137.839665
 30
0.0
 10
243.758610
 20
135.993825
 30
0.0
  0
SPLINE
  5
1e5
100
AcDbEntity
  8
Image
 62
7
100
AcDbSpline
 70
8
 71
3
 72
8
 73
4
 74
0
 40
0
 40
0
 40
0
 40
0
 40
1
 40
1
 40
1
 40
1
 10
243.758610
 20
135.993825
 30
0.0
 10
242.125155
 20
135.240795
 30
0.0
 10
240.784215
 20
134.455935
 30
0.0
 10
240.778740
 20
134.249685
 30
0.0
  0
SPLINE
  5
1e6
100
AcDbEntity
  8
Image
 62
7
100
AcDbSpline
 70
8
 71
3
 72
8
 73
4
 74
0
 40
0
 40
0
 40
0
 40
0
 40
1
 40
1
 40
1
 40
1
 10
240.778740
 20
134.249685
 30
0.0
 10
240.773490
 20
134.043435
 30
0.0
 10
243.149280
 20
130.668435
 30
0.0
 10
246.058778
 20
126.749685
 30
0.0
  0
SPLINE
  5
1e7
100
AcDbEntity
  8
Image
 62
7
100
AcDbSpline
 70
8
 71
3
 72
8
 73
4
 74
0
 40
0
 40
0
 40
0
 40
0
 40
1
 40
1
 40
1
 40
1
 10
246.058778
 20
126.749685
 30
0.0
 10
248.968283
 20
122.830935
 30
0.0
 10
252.024540
 20
118.696560
 30
0.0
 10
252.850463
 20
117.562185
 30
0.0
  0
LWPOLYLINE
  5
1e8
100
AcDbEntity
  8
Image
 62
7
100
AcDbPolyline
 90
3
 70
0
 10
218.250000
 20
138.750000
 30
0.0
 10
218.250000
 20
162.000000
 30
0.0
 10
227.812500
 20
161.995500
 30
0.0
  0
SPLINE
  5
1e9
100
AcDbEntity
  8
Image
 62
7
100
AcDbSpline
 70
8
 71
3
 72
8
 73
4
 74
0
 40
0
 40
0
 40
0
 40
0
 40
1
 40
1
 40
1
 40
1
 10
235.783350
 20
124.093703
 30
0.0
 10
232.533758
 20
128.820413
 30
0.0
 10
229.621875
 20
132.701662
 30
0.0
 10
229.312500
 20
132.718703
 30
0.0
  0
SPLINE
  5
1ea
100
AcDbEntity
  8
Image
 62
7
100
AcDbSpline
 70
8
 71
3
 72
8
 73
4
 74
0
 40
0
 40
0
 40
0
 40
0
 40
1
 40
1
 40
1
 40
1
 10
229.312500
 20
132.718703
 30
0.0
 10
229.003125
 20
132.736058
 30
0.0
 10
228.750000
 20
128.868750
 30
0.0
 10
228.750000
 20
124.125000
 30
0.0
  0
LWPOLYLINE
  5
1eb
100
AcDbEntity
  8
Image
 62
7
100
AcDbPolyline
 90
5
 70
0
 10
252.850463
 20
117.562185
 30
0.0
 10
254.352143
 20
115.499685
 30
0.0
 10
248.021918
 20
115.499685
 30
0.0
 10
241.691693
 20
115.499685
 30
0.0
 10
235.783350
 20
124.093703
 30
0.0
  0
SPLINE
  5
1ec
100
AcDbEntity
  8
Image
 62
7
100
AcDbSpline
 70
8
 71
3
 72
8
 73
4
 74
0
 40
0
 40
0
 40
0
 40
0
 40
1
 40
1
 40
1
 40
1
 10
234.936300
 20
141.039105
 30
0.0
 10
238.372552
 20
141.993405
 30
0.0
 10
240.356850
 20
145.237673
 30
0.0
 10
239.687273
 20
148.806833
 30
0.0
  0
SPLINE
  5
1ed
100
AcDbEntity
  8
Image
 62
7
100
AcDbSpline
 70
8
 71
3
 72
8
 73
4
 74
0
 40
0
 40
0
 40
0
 40
0
 40
1
 40
1
 40
1
 40
1
 10
239.687273
 20
148.806833
 30
0.0
 10
239.128192
 20
151.786988
 30
0.0
 10
236.004683
 20
153.750000
 30
0.0
 10
231.821782
 20
153.750000
 30
0.0
  0
LWPOLYLINE
  5
1ee
100
AcDbEntity
  8
Image
 62
7
100
AcDbPolyline
 90
5
 70
0
 10
228.750000
 20
124.125000
 30
0.0
 10
228.750000
 20
115.500000
 30
0.0
 10
223.500000
 20
115.500000
 30
0.0
 10
218.250000
 20
115.500000
 30
0.0
 10
218.250000
 20
138.750000
 30
0.0
  0
SPLINE
  5
1ef
100
AcDbEntity
  8
Image
 62
7
100
AcDbSpline
 70
8
 71
3
 72
8
 73
4
 74
0
 40
0
 40
0
 40
0
 40
0
 40
1
 40
1
 40
1
 40
1
 10
228.750000
 20
147.000000
 30
0.0
 10
228.750000
 20
139.412865
 30
0.0
 10
228.823950
 20
139.341615
 30
0.0
 10
234.936300
 20
141.039105
 30
0.0
  0
LWPOLYLINE
  5
1f0
100
AcDbEntity
  8
Image
 62
7
100
AcDbPolyline
 90
3
 70
0
 10
231.821782
 20
153.750000
 30
0.0
 10
228.750000
 20
153.750000
 30
0.0
 10
228.750000
 20
147.000000
 30
0.0
  0
LWPOLYLINE
  5
1f1
100
AcDbEntity
  8
Image
 62
7
100
AcDbPolyline
 90
1
 70
1
 10
234.936300
 20
141.039105
 30
0.0
  0
SPLINE
  5
1f2
100
AcDbEntity
  8
Image
 62
7
100
AcDbSpline
 70
8
 71
3
 72
8
 73
4
 74
0
 40
0
 40
0
 40
0
 40
0
 40
1
 40
1
 40
1
 40
1
 10
321.000000
 20
115.783410
 30
0.0
 10
321.000000
 20
116.166630
 30
0.0
 10
323.141107
 20
121.510357
 30
0.0
 10
324.041775
 20
123.375000
 30
0.0
  0
SPLINE
  5
1f3
100
AcDbEntity
  8
Image
 62
7
100
AcDbSpline
 70
8
 71
3
 72
8
 73
4
 74
0
 40
0
 40
0
 40
0
 40
0
 40
1
 40
1
 40
1
 40
1
 10
324.041775
 20
123.375000
 30
0.0
 10
324.440265
 20
124.200000
 30
0.0
 10
328.071577
 20
133.143750
 30
0.0
 10
332.111355
 20
143.250000
 30
0.0
  0
LWPOLYLINE
  5
1f4
100
AcDbEntity
  8
Image
 62
7
100
AcDbPolyline
 90
8
 70
1
 10
261.750000
 20
138.750000
 30
0.0
 10
261.750000
 20
162.000000
 30
0.0
 10
267.000000
 20
162.000000
 30
0.0
 10
272.250000
 20
162.000000
 30
0.0
 10
272.250000
 20
138.750000
 30
0.0
 10
272.250000
 20
115.500000
 30
0.0
 10
267.000000
 20
115.500000
 30
0.0
 10
261.750000
 20
115.500000
 30
0.0
  0
SPLINE
  5
1f5
100
AcDbEntity
  8
Image
 62
7
100
AcDbSpline
 70
8
 71
3
 72
8
 73
4
 74
0
 40
0
 40
0
 40
0
 40
0
 40
1
 40
1
 40
1
 40
1
 10
357.989348
 20
140.094390
 30
0.0
 10
362.773065
 20
128.011230
 30
0.0
 10
366.906045
 20
117.534375
 30
0.0
 10
367.173750
 20
116.812500
 30
0.0
  0
SPLINE
  5
1f6
100
AcDbEntity
  8
Image
 62
7
100
AcDbSpline
 70
8
 71
3
 72
8
 73
4
 74
0
 40
0
 40
0
 40
0
 40
0
 40
1
 40
1
 40
1
 40
1
 10
367.173750
 20
116.812500
 30
0.0
 10
367.609762
 20
115.636763
 30
0.0
 10
367.081147
 20
115.500000
 30
0.0
 10
362.100652
 20
115.500000
 30
0.0
  0
LWPOLYLINE
  5
1f7
100
AcDbEntity
  8
Image
 62
7
100
AcDbPolyline
 90
5
 70
0
 10
332.111355
 20
143.250000
 30
0.0
 10
339.456405
 20
161.625000
 30
0.0
 10
344.374042
 20
161.844390
 30
0.0
 10
349.291680
 20
162.063787
 30
0.0
 10
357.989348
 20
140.094390
 30
0.0
  0
SPLINE
  5
1f8
100
AcDbEntity
  8
Image
 62
7
100
AcDbSpline
 70
8
 71
3
 72
8
 73
4
 74
0
 40
0
 40
0
 40
0
 40
0
 40
1
 40
1
 40
1
 40
1
 10
326.441317
 20
115.500007
 30
0.0
 10
323.448593
 20
115.500000
 30
0.0
 10
321.000000
 20
115.627530
 30
0.0
 10
321.000000
 20
115.783410
 30
0.0
  0
LWPOLYLINE
  5
1f9
100
AcDbEntity
  8
Image
 62
7
100
AcDbPolyline
 90
9
 70
0
 10
362.100652
 20
115.500000
 30
0.0
 10
356.540827
 20
115.500000
 30
0.0
 10
355.020082
 20
119.759370
 30
0.0
 10
353.499337
 20
124.018732
 30
0.0
 10
344.363115
 20
124.071907
 30
0.0
 10
335.226900
 20
124.125007
 30
0.0
 10
333.554767
 20
119.812507
 30
0.0
 10
331.882635
 20
115.500007
 30
0.0
 10
326.441317
 20
115.500007
 30
0.0
  0
SPLINE
  5
1fa
100
AcDbEntity
  8
Image
 62
7
100
AcDbSpline
 70
8
 71
3
 72
8
 73
4
 74
0
 40
0
 40
0
 40
0
 40
0
 40
1
 40
1
 40
1
 40
1
 10
350.250000
 20
132.432330
 30
0.0
 10
350.250000
 20
133.547677
 30
0.0
 10
344.697218
 20
147.697215
 30
0.0
 10
344.382870
 20
147.382875
 30
0.0
  0
SPLINE
  5
1fb
100
AcDbEntity
  8
Image
 62
7
100
AcDbSpline
 70
8
 71
3
 72
8
 73
4
 74
0
 40
0
 40
0
 40
0
 40
0
 40
1
 40
1
 40
1
 40
1
 10
344.382870
 20
147.382875
 30
0.0
 10
344.068538
 20
147.068542
 30
0.0
 10
338.260537
 20
132.671182
 30
0.0
 10
338.252940
 20
132.187500
 30
0.0
  0
SPLINE
  5
1fc
100
AcDbEntity
  8
Image
 62
7
100
AcDbSpline
 70
8
 71
3
 72
8
 73
4
 74
0
 40
0
 40
0
 40
0
 40
0
 40
1
 40
1
 40
1
 40
1
 10
338.252940
 20
132.187500
 30
0.0
 10
338.251440
 20
132.084375
 30
0.0
 10
340.950000
 20
132.000000
 30
0.0
 10
344.250000
 20
132.000000
 30
0.0
  0
SPLINE
  5
1fd
100
AcDbEntity
  8
Image
 62
7
100
AcDbSpline
 70
8
 71
3
 72
8
 73
4
 74
0
 40
0
 40
0
 40
0
 40
0
 40
1
 40
1
 40
1
 40
1
 10
344.250000
 20
132.000000
 30
0.0
 10
347.550000
 20
132.000000
 30
0.0
 10
350.250000
 20
132.194550
 30
0.0
 10
350.250000
 20
132.432330
 30
0.0
  0
LWPOLYLINE
  5
1fe
100
AcDbEntity
  8
Image
 62
7
100
AcDbPolyline
 90
1
 70
1
 10
321.000000
 20
115.783410
 30
0.0
  0
LWPOLYLINE
  5
1ff
100
AcDbEntity
  8
Image
 62
7
100
AcDbPolyline
 90
1
 70
1
 10
350.250000
 20
132.432330
 30
0.0
  0
SPLINE
  5
200
100
AcDbEntity
  8
Image
 62
7
100
AcDbSpline
 70
8
 71
3
 72
8
 73
4
 74
0
 40
0
 40
0
 40
0
 40
0
 40
1
 40
1
 40
1
 40
1
 10
393.375000
 20
149.458095
 30
0.0
 10
399.150000
 20
142.565828
 30
0.0
 10
404.962740
 20
135.733875
 30
0.0
 10
406.292205
 20
134.275980
 30
0.0
  0
LWPOLYLINE
  5
201
100
AcDbEntity
  8
Image
 62
7
100
AcDbPolyline
 90
5
 70
0
 10
373.500000
 20
138.750000
 30
0.0
 10
373.500000
 20
162.000000
 30
0.0
 10
378.187500
 20
161.994750
 30
0.0
 10
382.875000
 20
161.989500
 30
0.0
 10
393.375000
 20
149.458095
 30
0.0
  0
SPLINE
  5
202
100
AcDbEntity
  8
Image
 62
7
100
AcDbSpline
 70
8
 71
3
 72
8
 73
4
 74
0
 40
0
 40
0
 40
0
 40
0
 40
1
 40
1
 40
1
 40
1
 10
406.793325
 20
119.062500
 30
0.0
 10
405.205275
 20
121.021875
 30
0.0
 10
403.506030
 20
123.042075
 30
0.0
 10
403.017225
 20
123.551828
 30
0.0
  0
SPLINE
  5
203
100
AcDbEntity
  8
Image
 62
7
100
AcDbSpline
 70
8
 71
3
 72
8
 73
4
 74
0
 40
0
 40
0
 40
0
 40
0
 40
1
 40
1
 40
1
 40
1
 10
403.017225
 20
123.551828
 30
0.0
 10
402.528420
 20
124.061580
 30
0.0
 10
398.337442
 20
129.039705
 30
0.0
 10
393.703935
 20
134.614328
 30
0.0
  0
SPLINE
  5
204
100
AcDbEntity
  8
Image
 62
7
100
AcDbSpline
 70
8
 71
3
 72
8
 73
4
 74
0
 40
0
 40
0
 40
0
 40
0
 40
1
 40
1
 40
1
 40
1
 10
393.703935
 20
134.614328
 30
0.0
 10
389.070435
 20
140.188950
 30
0.0
 10
384.991523
 20
144.750000
 30
0.0
 10
384.639690
 20
144.750000
 30
0.0
  0
SPLINE
  5
205
100
AcDbEntity
  8
Image
 62
7
100
AcDbSpline
 70
8
 71
3
 72
8
 73
4
 74
0
 40
0
 40
0
 40
0
 40
0
 40
1
 40
1
 40
1
 40
1
 10
384.639690
 20
144.750000
 30
0.0
 10
384.287858
 20
144.750000
 30
0.0
 10
384.000000
 20
138.168750
 30
0.0
 10
384.000000
 20
130.125000
 30
0.0
  0
LWPOLYLINE
  5
206
100
AcDbEntity
  8
Image
 62
7
100
AcDbPolyline
 90
11
 70
0
 10
406.292205
 20
134.275980
 30
0.0
 10
408.709410
 20
131.625270
 30
0.0
 10
408.729735
 20
146.812770
 30
0.0
 10
408.750000
 20
162.000000
 30
0.0
 10
414.000000
 20
162.000000
 30
0.0
 10
419.250000
 20
162.000000
 30
0.0
 10
419.250000
 20
138.750000
 30
0.0
 10
419.250000
 20
115.500000
 30
0.0
 10
414.465345
 20
115.500000
 30
0.0
 10
409.680690
 20
115.500000
 30
0.0
 10
406.793325
 20
119.062500
 30
0.0
  0
SPLINE
  5
207
100
AcDbEntity
  8
Image
 62
7
100
AcDbSpline
 70
8
 71
3
 72
8
 73
4
 74
0
 40
0
 40
0
 40
0
 40
0
 40
1
 40
1
 40
1
 40
1
 10
443.750002
 20
135.500002
 30
0.0
 10
443.475000
 20
135.774998
 30
0.0
 10
443.250000
 20
141.720570
 30
0.0
 10
443.250000
 20
148.712370
 30
0.0
  0
LWPOLYLINE
  5
208
100
AcDbEntity
  8
Image
 62
7
100
AcDbPolyline
 90
5
 70
0
 10
384.000000
 20
130.125000
 30
0.0
 10
384.000000
 20
115.500000
 30
0.0
 10
378.750000
 20
115.500000
 30
0.0
 10
373.500000
 20
115.500000
 30
0.0
 10
373.500000
 20
138.750000
 30
0.0
  0
SPLINE
  5
209
100
AcDbEntity
  8
Image
 62
7
100
AcDbSpline
 70
8
 71
3
 72
8
 73
4
 74
0
 40
0
 40
0
 40
0
 40
0
 40
1
 40
1
 40
1
 40
1
 10
448.225215
 20
161.107943
 30
0.0
 10
452.290882
 20
160.849065
 30
0.0
 10
453.456330
 20
160.475122
 30
0.0
 10
454.600215
 20
159.062483
 30
0.0
  0
SPLINE
  5
20a
100
AcDbEntity
  8
Image
 62
7
100
AcDbSpline
 70
8
 71
3
 72
8
 73
4
 74
0
 40
0
 40
0
 40
0
 40
0
 40
1
 40
1
 40
1
 40
1
 10
454.600215
 20
159.062483
 30
0.0
 10
456.250770
 20
157.024140
 30
0.0
 10
456.427537
 20
153.121380
 30
0.0
 10
454.960192
 20
151.114673
 30
0.0
  0
SPLINE
  5
20b
100
AcDbEntity
  8
Image
 62
7
100
AcDbSpline
 70
8
 71
3
 72
8
 73
4
 74
0
 40
0
 40
0
 40
0
 40
0
 40
1
 40
1
 40
1
 40
1
 10
454.960192
 20
151.114673
 30
0.0
 10
454.032285
 20
149.845687
 30
0.0
 10
454.153357
 20
149.475023
 30
0.0
 10
456.085192
 20
147.670417
 30
0.0
  0
SPLINE
  5
20c
100
AcDbEntity
  8
Image
 62
7
100
AcDbSpline
 70
8
 71
3
 72
8
 73
4
 74
0
 40
0
 40
0
 40
0
 40
0
 40
1
 40
1
 40
1
 40
1
 10
456.085192
 20
147.670417
 30
0.0
 10
457.759830
 20
146.106075
 30
0.0
 10
458.244600
 20
144.994583
 30
0.0
 10
458.226150
 20
142.761593
 30
0.0
  0
SPLINE
  5
20d
100
AcDbEntity
  8
Image
 62
7
100
AcDbSpline
 70
8
 71
3
 72
8
 73
4
 74
0
 40
0
 40
0
 40
0
 40
0
 40
1
 40
1
 40
1
 40
1
 10
458.226150
 20
142.761593
 30
0.0
 10
458.196975
 20
139.228845
 30
0.0
 10
457.045245
 20
137.610195
 30
0.0
 10
453.509722
 20
136.132957
 30
0.0
  0
SPLINE
  5
20e
100
AcDbEntity
  8
Image
 62
7
100
AcDbSpline
 70
8
 71
3
 72
8
 73
4
 74
0
 40
0
 40
0
 40
0
 40
0
 40
1
 40
1
 40
1
 40
1
 10
453.509722
 20
136.132957
 30
0.0
 10
450.756690
 20
134.982667
 30
0.0
 10
444.662565
 20
134.587440
 30
0.0
 10
443.750002
 20
135.500002
 30
0.0
  0
LWPOLYLINE
  5
20f
100
AcDbEntity
  8
Image
 62
7
100
AcDbPolyline
 90
3
 70
0
 10
443.250000
 20
148.712370
 30
0.0
 10
443.250000
 20
161.424743
 30
0.0
 10
448.225215
 20
161.107943
 30
0.0
  0
SPLINE
  5
210
100
AcDbEntity
  8
Image
 62
7
100
AcDbSpline
 70
8
 71
3
 72
8
 73
4
 74
0
 40
0
 40
0
 40
0
 40
0
 40
1
 40
1
 40
1
 40
1
 10
454.500000
 20
139.500000
 30
0.0
 10
456.262538
 20
141.262538
 30
0.0
 10
456.398498
 20
143.784900
 30
0.0
 10
454.841917
 20
145.843478
 30
0.0
  0
SPLINE
  5
211
100
AcDbEntity
  8
Image
 62
7
100
AcDbSpline
 70
8
 71
3
 72
8
 73
4
 74
0
 40
0
 40
0
 40
0
 40
0
 40
1
 40
1
 40
1
 40
1
 10
454.841917
 20
145.843478
 30
0.0
 10
453.994552
 20
146.964105
 30
0.0
 10
452.801025
 20
147.319418
 30
0.0
 10
449.803267
 20
147.343478
 30
0.0
  0
LWPOLYLINE
  5
212
100
AcDbEntity
  8
Image
 62
7
100
AcDbPolyline
 90
1
 70
1
 10
443.750002
 20
135.500002
 30
0.0
  0
SPLINE
  5
213
100
AcDbEntity
  8
Image
 62
7
100
AcDbSpline
 70
8
 71
3
 72
8
 73
4
 74
0
 40
0
 40
0
 40
0
 40
0
 40
1
 40
1
 40
1
 40
1
 10
449.214210
 20
138.000000
 30
0.0
 10
452.000002
 20
138.000000
 30
0.0
 10
453.396217
 20
138.396218
 30
0.0
 10
454.500000
 20
139.500000
 30
0.0
  0
LWPOLYLINE
  5
214
100
AcDbEntity
  8
Image
 62
7
100
AcDbPolyline
 90
5
 70
0
 10
449.803267
 20
147.343478
 30
0.0
 10
445.875000
 20
147.375000
 30
0.0
 10
445.651710
 20
142.687500
 30
0.0
 10
445.428427
 20
138.000000
 30
0.0
 10
449.214210
 20
138.000000
 30
0.0
  0
SPLINE
  5
215
100
AcDbEntity
  8
Image
 62
7
100
AcDbSpline
 70
8
 71
3
 72
8
 73
4
 74
0
 40
0
 40
0
 40
0
 40
0
 40
1
 40
1
 40
1
 40
1
 10
452.083117
 20
151.167525
 30
0.0
 10
455.813205
 20
153.780180
 30
0.0
 10
453.162127
 20
159.324907
 30
0.0
 10
448.402635
 20
158.865248
 30
0.0
  0
SPLINE
  5
216
100
AcDbEntity
  8
Image
 62
7
100
AcDbSpline
 70
8
 71
3
 72
8
 73
4
 74
0
 40
0
 40
0
 40
0
 40
0
 40
1
 40
1
 40
1
 40
1
 10
448.402635
 20
158.865248
 30
0.0
 10
446.055652
 20
158.638590
 30
0.0
 10
445.899840
 20
158.441745
 30
0.0
 10
445.647562
 20
155.384550
 30
0.0
  0
SPLINE
  5
217
100
AcDbEntity
  8
Image
 62
7
100
AcDbSpline
 70
8
 71
3
 72
8
 73
4
 74
0
 40
0
 40
0
 40
0
 40
0
 40
1
 40
1
 40
1
 40
1
 10
445.647562
 20
155.384550
 30
0.0
 10
445.500487
 20
153.602310
 30
0.0
 10
445.565272
 20
151.661685
 30
0.0
 10
445.791540
 20
151.072050
 30
0.0
  0
SPLINE
  5
218
100
AcDbEntity
  8
Image
 62
7
100
AcDbSpline
 70
8
 71
3
 72
8
 73
4
 74
0
 40
0
 40
0
 40
0
 40
0
 40
1
 40
1
 40
1
 40
1
 10
445.791540
 20
151.072050
 30
0.0
 10
446.337360
 20
149.649668
 30
0.0
 10
449.995320
 20
149.705175
 30
0.0
 10
452.083117
 20
151.167525
 30
0.0
  0
LWPOLYLINE
  5
219
100
AcDbEntity
  8
Image
 62
7
100
AcDbPolyline
 90
1
 70
1
 10
454.500000
 20
139.500000
 30
0.0
  0
SPLINE
  5
21a
100
AcDbEntity
  8
Image
 62
7
100
AcDbSpline
 70
8
 71
3
 72
8
 73
4
 74
0
 40
0
 40
0
 40
0
 40
0
 40
1
 40
1
 40
1
 40
1
 10
474.750000
 20
135.653963
 30
0.0
 10
474.750000
 20
136.453717
 30
0.0
 10
479.544030
 20
147.849863
 30
0.0
 10
483.750233
 20
157.048920
 30
0.0
  0
LWPOLYLINE
  5
21b
100
AcDbEntity
  8
Image
 62
7
100
AcDbPolyline
 90
1
 70
1
 10
452.083117
 20
151.167525
 30
0.0
  0
SPLINE
  5
21c
100
AcDbEntity
  8
Image
 62
7
100
AcDbSpline
 70
8
 71
3
 72
8
 73
4
 74
0
 40
0
 40
0
 40
0
 40
0
 40
1
 40
1
 40
1
 40
1
 10
491.682990
 20
149.264768
 30
0.0
 10
494.744843
 20
142.137825
 30
0.0
 10
497.250000
 20
136.044285
 30
0.0
 10
497.250000
 20
135.723563
 30
0.0
  0
SPLINE
  5
21d
100
AcDbEntity
  8
Image
 62
7
100
AcDbSpline
 70
8
 71
3
 72
8
 73
4
 74
0
 40
0
 40
0
 40
0
 40
0
 40
1
 40
1
 40
1
 40
1
 10
497.250000
 20
135.723563
 30
0.0
 10
497.250000
 20
135.402840
 30
0.0
 10
496.619902
 20
135.305205
 30
0.0
 10
495.849788
 20
135.506595
 30
0.0
  0
SPLINE
  5
21e
100
AcDbEntity
  8
Image
 62
7
100
AcDbSpline
 70
8
 71
3
 72
8
 73
4
 74
0
 40
0
 40
0
 40
0
 40
0
 40
1
 40
1
 40
1
 40
1
 10
495.849788
 20
135.506595
 30
0.0
 10
495.038407
 20
135.718777
 30
0.0
 10
494.040247
 20
137.113043
 30
0.0
 10
493.476203
 20
138.822113
 30
0.0
  0
SPLINE
  5
21f
100
AcDbEntity
  8
Image
 62
7
100
AcDbSpline
 70
8
 71
3
 72
8
 73
4
 74
0
 40
0
 40
0
 40
0
 40
0
 40
1
 40
1
 40
1
 40
1
 10
493.476203
 20
138.822113
 30
0.0
 10
492.940845
 20
140.444258
 30
0.0
 10
492.082568
 20
142.120252
 30
0.0
 10
491.568923
 20
142.546545
 30
0.0
  0
SPLINE
  5
220
100
AcDbEntity
  8
Image
 62
7
100
AcDbSpline
 70
8
 71
3
 72
8
 73
4
 74
0
 40
0
 40
0
 40
0
 40
0
 40
1
 40
1
 40
1
 40
1
 10
491.568923
 20
142.546545
 30
0.0
 10
491.055278
 20
142.972830
 30
0.0
 10
488.347545
 20
143.221125
 30
0.0
 10
485.551748
 20
143.098305
 30
0.0
  0
LWPOLYLINE
  5
221
100
AcDbEntity
  8
Image
 62
7
100
AcDbPolyline
 90
3
 70
0
 10
483.750233
 20
157.048920
 30
0.0
 10
486.115972
 20
162.222840
 30
0.0
 10
491.682990
 20
149.264768
 30
0.0
  0
SPLINE
  5
222
100
AcDbEntity
  8
Image
 62
7
100
AcDbSpline
 70
8
 71
3
 72
8
 73
4
 74
0
 40
0
 40
0
 40
0
 40
0
 40
1
 40
1
 40
1
 40
1
 10
478.546740
 20
139.168290
 30
0.0
 10
476.758342
 20
135.718770
 30
0.0
 10
474.750000
 20
133.859813
 30
0.0
 10
474.750000
 20
135.653963
 30
0.0
  0
LWPOLYLINE
  5
223
100
AcDbEntity
  8
Image
 62
7
100
AcDbPolyline
 90
3
 70
0
 10
485.551748
 20
143.098305
 30
0.0
 10
480.468473
 20
142.875000
 30
0.0
 10
478.546740
 20
139.168290
 30
0.0
  0
SPLINE
  5
224
100
AcDbEntity
  8
Image
 62
7
100
AcDbSpline
 70
8
 71
3
 72
8
 73
4
 74
0
 40
0
 40
0
 40
0
 40
0
 40
1
 40
1
 40
1
 40
1
 10
490.367512
 20
146.062500
 30
0.0
 10
490.225898
 20
146.371875
 30
0.0
 10
489.308805
 20
148.734375
 30
0.0
 10
488.329523
 20
151.312500
 30
0.0
  0
SPLINE
  5
225
100
AcDbEntity
  8
Image
 62
7
100
AcDbSpline
 70
8
 71
3
 72
8
 73
4
 74
0
 40
0
 40
0
 40
0
 40
0
 40
1
 40
1
 40
1
 40
1
 10
488.329523
 20
151.312500
 30
0.0
 10
487.350240
 20
153.890625
 30
0.0
 10
486.341108
 20
155.999557
 30
0.0
 10
486.087008
 20
155.999010
 30
0.0
  0
SPLINE
  5
226
100
AcDbEntity
  8
Image
 62
7
100
AcDbSpline
 70
8
 71
3
 72
8
 73
4
 74
0
 40
0
 40
0
 40
0
 40
0
 40
1
 40
1
 40
1
 40
1
 10
486.087008
 20
155.999010
 30
0.0
 10
485.615813
 20
155.998260
 30
0.0
 10
482.902560
 20
150.241095
 30
0.0
 10
481.934108
 20
147.187500
 30
0.0
  0
SPLINE
  5
227
100
AcDbEntity
  8
Image
 62
7
100
AcDbSpline
 70
8
 71
3
 72
8
 73
4
 74
0
 40
0
 40
0
 40
0
 40
0
 40
1
 40
1
 40
1
 40
1
 10
481.934108
 20
147.187500
 30
0.0
 10
481.418708
 20
145.562400
 30
0.0
 10
481.569488
 20
145.500000
 30
0.0
 10
486.011963
 20
145.500000
 30
0.0
  0
SPLINE
  5
228
100
AcDbEntity
  8
Image
 62
7
100
AcDbSpline
 70
8
 71
3
 72
8
 73
4
 74
0
 40
0
 40
0
 40
0
 40
0
 40
1
 40
1
 40
1
 40
1
 10
486.011963
 20
145.500000
 30
0.0
 10
488.549130
 20
145.500000
 30
0.0
 10
490.509135
 20
145.753125
 30
0.0
 10
490.367513
 20
146.062500
 30
0.0
  0
LWPOLYLINE
  5
229
100
AcDbEntity
  8
Image
 62
7
100
AcDbPolyline
 90
1
 70
1
 10
474.750000
 20
135.653963
 30
0.0
  0
LWPOLYLINE
  5
22a
100
AcDbEntity
  8
Image
 62
7
100
AcDbPolyline
 90
1
 70
1
 10
490.367513
 20
146.062500
 30
0.0
  0
SPLINE
  5
22b
100
AcDbEntity
  8
Image
 62
7
100
AcDbSpline
 70
8
 71
3
 72
8
 73
4
 74
0
 40
0
 40
0
 40
0
 40
0
 40
1
 40
1
 40
1
 40
1
 10
520.451175
 20
161.250000
 30
0.0
 10
525.678510
 20
161.250000
 30
0.0
 10
527.885505
 20
160.207208
 30
0.0
 10
529.171343
 20
157.129770
 30
0.0
  0
SPLINE
  5
22c
100
AcDbEntity
  8
Image
 62
7
100
AcDbSpline
 70
8
 71
3
 72
8
 73
4
 74
0
 40
0
 40
0
 40
0
 40
0
 40
1
 40
1
 40
1
 40
1
 10
529.171343
 20
157.129770
 30
0.0
 10
530.128882
 20
154.838063
 30
0.0
 10
530.131815
 20
154.168958
 30
0.0
 10
529.194142
 20
151.924815
 30
0.0
  0
SPLINE
  5
22d
100
AcDbEntity
  8
Image
 62
7
100
AcDbSpline
 70
8
 71
3
 72
8
 73
4
 74
0
 40
0
 40
0
 40
0
 40
0
 40
1
 40
1
 40
1
 40
1
 10
529.194142
 20
151.924815
 30
0.0
 10
528.582900
 20
150.461910
 30
0.0
 10
527.115375
 20
148.831065
 30
0.0
 10
525.796485
 20
148.149037
 30
0.0
  0
SPLINE
  5
22e
100
AcDbEntity
  8
Image
 62
7
100
AcDbSpline
 70
8
 71
3
 72
8
 73
4
 74
0
 40
0
 40
0
 40
0
 40
0
 40
1
 40
1
 40
1
 40
1
 10
525.796485
 20
148.149037
 30
0.0
 10
523.133025
 20
146.771715
 30
0.0
 10
523.160662
 20
146.669977
 30
0.0
 10
527.920350
 20
140.330970
 30
0.0
  0
SPLINE
  5
22f
100
AcDbEntity
  8
Image
 62
7
100
AcDbSpline
 70
8
 71
3
 72
8
 73
4
 74
0
 40
0
 40
0
 40
0
 40
0
 40
1
 40
1
 40
1
 40
1
 10
527.920350
 20
140.330970
 30
0.0
 10
530.782065
 20
136.519695
 30
0.0
 10
531.364237
 20
134.278942
 30
0.0
 10
529.161660
 20
135.553215
 30
0.0
  0
SPLINE
  5
230
100
AcDbEntity
  8
Image
 62
7
100
AcDbSpline
 70
8
 71
3
 72
8
 73
4
 74
0
 40
0
 40
0
 40
0
 40
0
 40
1
 40
1
 40
1
 40
1
 10
529.161660
 20
135.553215
 30
0.0
 10
528.160650
 20
136.132335
 30
0.0
 10
524.209073
 20
141.161317
 30
0.0
 10
521.787847
 20
144.937500
 30
0.0
  0
SPLINE
  5
231
100
AcDbEntity
  8
Image
 62
7
100
AcDbSpline
 70
8
 71
3
 72
8
 73
4
 74
0
 40
0
 40
0
 40
0
 40
0
 40
1
 40
1
 40
1
 40
1
 10
521.787847
 20
144.937500
 30
0.0
 10
519.635130
 20
148.294942
 30
0.0
 10
519.000000
 20
147.397905
 30
0.0
 10
519.000000
 20
141.000000
 30
0.0
  0
SPLINE
  5
232
100
AcDbEntity
  8
Image
 62
7
100
AcDbSpline
 70
8
 71
3
 72
8
 73
4
 74
0
 40
0
 40
0
 40
0
 40
0
 40
1
 40
1
 40
1
 40
1
 10
519.000000
 20
141.000000
 30
0.0
 10
519.000000
 20
136.166670
 30
0.0
 10
518.781248
 20
135.000000
 30
0.0
 10
517.875000
 20
135.000000
 30
0.0
  0
SPLINE
  5
233
100
AcDbEntity
  8
Image
 62
7
100
AcDbSpline
 70
8
 71
3
 72
8
 73
4
 74
0
 40
0
 40
0
 40
0
 40
0
 40
1
 40
1
 40
1
 40
1
 10
517.875000
 20
135.000000
 30
0.0
 10
516.917857
 20
135.000000
 30
0.0
 10
516.750000
 20
136.958332
 30
0.0
 10
516.750000
 20
148.125000
 30
0.0
  0
LWPOLYLINE
  5
234
100
AcDbEntity
  8
Image
 62
7
100
AcDbPolyline
 90
3
 70
0
 10
516.750000
 20
148.125000
 30
0.0
 10
516.750000
 20
161.250000
 30
0.0
 10
520.451175
 20
161.250000
 30
0.0
  0
SPLINE
  5
235
100
AcDbEntity
  8
Image
 62
7
100
AcDbSpline
 70
8
 71
3
 72
8
 73
4
 74
0
 40
0
 40
0
 40
0
 40
0
 40
1
 40
1
 40
1
 40
1
 10
526.286182
 20
151.218600
 30
0.0
 10
528.875092
 20
154.759140
 30
0.0
 10
526.475775
 20
159.000000
 30
0.0
 10
521.883758
 20
159.000000
 30
0.0
  0
LWPOLYLINE
  5
236
100
AcDbEntity
  8
Image
 62
7
100
AcDbPolyline
 90
1
 70
1
 10
516.750000
 20
148.125000
 30
0.0
  0
SPLINE
  5
237
100
AcDbEntity
  8
Image
 62
7
100
AcDbSpline
 70
8
 71
3
 72
8
 73
4
 74
0
 40
0
 40
0
 40
0
 40
0
 40
1
 40
1
 40
1
 40
1
 10
522.161182
 20
149.476500
 30
0.0
 10
523.908488
 20
149.710860
 30
0.0
 10
525.753450
 20
150.490043
 30
0.0
 10
526.286182
 20
151.218600
 30
0.0
  0
LWPOLYLINE
  5
238
100
AcDbEntity
  8
Image
 62
7
100
AcDbPolyline
 90
5
 70
0
 10
521.883758
 20
159.000000
 30
0.0
 10
519.000000
 20
159.000000
 30
0.0
 10
519.000000
 20
154.026248
 30
0.0
 10
519.000000
 20
149.052495
 30
0.0
 10
522.161182
 20
149.476500
 30
0.0
  0
SPLINE
  5
239
100
AcDbEntity
  8
Image
 62
7
100
AcDbSpline
 70
8
 71
3
 72
8
 73
4
 74
0
 40
0
 40
0
 40
0
 40
0
 40
1
 40
1
 40
1
 40
1
 10
268.562498
 20
175.778540
 30
0.0
 10
268.734375
 20
175.931737
 30
0.0
 10
271.815690
 20
177.247077
 30
0.0
 10
275.409870
 20
178.701517
 30
0.0
  0
SPLINE
  5
23a
100
AcDbEntity
  8
Image
 62
7
100
AcDbSpline
 70
8
 71
3
 72
8
 73
4
 74
0
 40
0
 40
0
 40
0
 40
0
 40
1
 40
1
 40
1
 40
1
 10
275.409870
 20
178.701517
 30
0.0
 10
279.004050
 20
180.155958
 30
0.0
 10
285.552135
 20
183.788309
 30
0.0
 10
289.961183
 20
186.773410
 30
0.0
  0
SPLINE
  5
23b
100
AcDbEntity
  8
Image
 62
7
100
AcDbSpline
 70
8
 71
3
 72
8
 73
4
 74
0
 40
0
 40
0
 40
0
 40
0
 40
1
 40
1
 40
1
 40
1
 10
289.961183
 20
186.773410
 30
0.0
 10
306.362775
 20
197.877954
 30
0.0
 10
316.902908
 20
201.711348
 30
0.0
 10
334.125000
 20
202.835576
 30
0.0
  0
SPLINE
  5
23c
100
AcDbEntity
  8
Image
 62
7
100
AcDbSpline
 70
8
 71
3
 72
8
 73
4
 74
0
 40
0
 40
0
 40
0
 40
0
 40
1
 40
1
 40
1
 40
1
 10
334.125000
 20
202.835576
 30
0.0
 10
348.153847
 20
203.751354
 30
0.0
 10
358.928993
 20
206.411215
 30
0.0
 10
368.791110
 20
211.392962
 30
0.0
  0
SPLINE
  5
23d
100
AcDbEntity
  8
Image
 62
7
100
AcDbSpline
 70
8
 71
3
 72
8
 73
4
 74
0
 40
0
 40
0
 40
0
 40
0
 40
1
 40
1
 40
1
 40
1
 10
368.791110
 20
211.392962
 30
0.0
 10
372.974085
 20
213.505948
 30
0.0
 10
374.100105
 20
213.740924
 30
0.0
 10
379.666110
 20
213.662337
 30
0.0
  0
SPLINE
  5
23e
100
AcDbEntity
  8
Image
 62
7
100
AcDbSpline
 70
8
 71
3
 72
8
 73
4
 74
0
 40
0
 40
0
 40
0
 40
0
 40
1
 40
1
 40
1
 40
1
 10
379.666110
 20
213.662337
 30
0.0
 10
389.170447
 20
213.528145
 30
0.0
 10
395.955788
 20
212.687248
 30
0.0
 10
394.125000
 20
211.870468
 30
0.0
  0
SPLINE
  5
23f
100
AcDbEntity
  8
Image
 62
7
100
AcDbSpline
 70
8
 71
3
 72
8
 73
4
 74
0
 40
0
 40
0
 40
0
 40
0
 40
1
 40
1
 40
1
 40
1
 10
394.125000
 20
211.870468
 30
0.0
 10
391.536360
 20
210.715584
 30
0.0
 10
382.226490
 20
205.290789
 30
0.0
 10
379.875000
 20
203.567090
 30
0.0
  0
SPLINE
  5
240
100
AcDbEntity
  8
Image
 62
7
100
AcDbSpline
 70
8
 71
3
 72
8
 73
4
 74
0
 40
0
 40
0
 40
0
 40
0
 40
1
 40
1
 40
1
 40
1
 10
379.875000
 20
203.567090
 30
0.0
 10
370.786320
 20
196.904872
 30
0.0
 10
355.579815
 20
192.443241
 30
0.0
 10
337.900778
 20
191.251738
 30
0.0
  0
SPLINE
  5
241
100
AcDbEntity
  8
Image
 62
7
100
AcDbSpline
 70
8
 71
3
 72
8
 73
4
 74
0
 40
0
 40
0
 40
0
 40
0
 40
1
 40
1
 40
1
 40
1
 10
337.900778
 20
191.251738
 30
0.0
 10
322.933883
 20
190.243022
 30
0.0
 10
311.574630
 20
186.417140
 30
0.0
 10
299.820983
 20
178.426177
 30
0.0
  0
LWPOLYLINE
  5
242
100
AcDbEntity
  8
Image
 62
7
100
AcDbPolyline
 90
1
 70
1
 10
526.286182
 20
151.218600
 30
0.0
  0
SPLINE
  5
243
100
AcDbEntity
  8
Image
 62
7
100
AcDbSpline
 70
8
 71
3
 72
8
 73
4
 74
0
 40
0
 40
0
 40
0
 40
0
 40
1
 40
1
 40
1
 40
1
 10
281.883480
 20
175.500000
 30
0.0
 10
274.385070
 20
175.500000
 30
0.0
 10
268.390627
 20
175.625343
 30
0.0
 10
268.562498
 20
175.778540
 30
0.0
  0
LWPOLYLINE
  5
244
100
AcDbEntity
  8
Image
 62
7
100
AcDbPolyline
 90
3
 70
0
 10
299.820983
 20
178.426177
 30
0.0
 10
295.516965
 20
175.500000
 30
0.0
 10
281.883480
 20
175.500000
 30
0.0
  0
SPLINE
  5
245
100
AcDbEntity
  8
Image
 62
7
100
AcDbSpline
 70
8
 71
3
 72
8
 73
4
 74
0
 40
0
 40
0
 40
0
 40
0
 40
1
 40
1
 40
1
 40
1
 10
356.250000
 20
177.671406
 30
0.0
 10
364.734233
 20
180.416662
 30
0.0
 10
370.237687
 20
183.168687
 30
0.0
 10
378.459203
 20
188.777213
 30
0.0
  0
SPLINE
  5
246
100
AcDbEntity
  8
Image
 62
7
100
AcDbSpline
 70
8
 71
3
 72
8
 73
4
 74
0
 40
0
 40
0
 40
0
 40
0
 40
1
 40
1
 40
1
 40
1
 10
378.459203
 20
188.777213
 30
0.0
 10
394.315912
 20
199.594290
 30
0.0
 10
405.497948
 20
203.540590
 30
0.0
 10
423.750000
 20
204.760985
 30
0.0
  0
SPLINE
  5
247
100
AcDbEntity
  8
Image
 62
7
100
AcDbSpline
 70
8
 71
3
 72
8
 73
4
 74
0
 40
0
 40
0
 40
0
 40
0
 40
1
 40
1
 40
1
 40
1
 10
423.750000
 20
204.760985
 30
0.0
 10
429.731250
 20
205.160911
 30
0.0
 10
436.481250
 20
206.000113
 30
0.0
 10
438.750000
 20
206.625879
 30
0.0
  0
SPLINE
  5
248
100
AcDbEntity
  8
Image
 62
7
100
AcDbSpline
 70
8
 71
3
 72
8
 73
4
 74
0
 40
0
 40
0
 40
0
 40
0
 40
1
 40
1
 40
1
 40
1
 10
438.750000
 20
206.625879
 30
0.0
 10
442.566577
 20
207.678565
 30
0.0
 10
443.660078
 20
207.645598
 30
0.0
 10
453.375000
 20
206.184945
 30
0.0
  0
SPLINE
  5
249
100
AcDbEntity
  8
Image
 62
7
100
AcDbSpline
 70
8
 71
3
 72
8
 73
4
 74
0
 40
0
 40
0
 40
0
 40
0
 40
1
 40
1
 40
1
 40
1
 10
453.375000
 20
206.184945
 30
0.0
 10
459.150000
 20
205.316665
 30
0.0
 10
464.381250
 20
204.441527
 30
0.0
 10
465.000000
 20
204.240194
 30
0.0
  0
SPLINE
  5
24a
100
AcDbEntity
  8
Image
 62
7
100
AcDbSpline
 70
8
 71
3
 72
8
 73
4
 74
0
 40
0
 40
0
 40
0
 40
0
 40
1
 40
1
 40
1
 40
1
 10
465.000000
 20
204.240194
 30
0.0
 10
465.718718
 20
204.006332
 30
0.0
 10
464.770718
 20
203.177996
 30
0.0
 10
462.375000
 20
201.946532
 30
0.0
  0
SPLINE
  5
24b
100
AcDbEntity
  8
Image
 62
7
100
AcDbSpline
 70
8
 71
3
 72
8
 73
4
 74
0
 40
0
 40
0
 40
0
 40
0
 40
1
 40
1
 40
1
 40
1
 10
462.375000
 20
201.946532
 30
0.0
 10
452.716320
 20
196.981712
 30
0.0
 10
439.323345
 20
193.502160
 30
0.0
 10
429.854648
 20
193.497604
 30
0.0
  0
SPLINE
  5
24c
100
AcDbEntity
  8
Image
 62
7
100
AcDbSpline
 70
8
 71
3
 72
8
 73
4
 74
0
 40
0
 40
0
 40
0
 40
0
 40
1
 40
1
 40
1
 40
1
 10
429.854648
 20
193.497604
 30
0.0
 10
423.752895
 20
193.494679
 30
0.0
 10
413.027820
 20
191.677825
 30
0.0
 10
406.920855
 20
189.612590
 30
0.0
  0
SPLINE
  5
24d
100
AcDbEntity
  8
Image
 62
7
100
AcDbSpline
 70
8
 71
3
 72
8
 73
4
 74
0
 40
0
 40
0
 40
0
 40
0
 40
1
 40
1
 40
1
 40
1
 10
406.920855
 20
189.612590
 30
0.0
 10
400.400813
 20
187.407660
 30
0.0
 10
391.289190
 20
182.766424
 30
0.0
 10
385.823138
 20
178.865930
 30
0.0
  0
LWPOLYLINE
  5
24e
100
AcDbEntity
  8
Image
 62
7
100
AcDbPolyline
 90
1
 70
1
 10
268.562498
 20
175.778540
 30
0.0
  0
SPLINE
  5
24f
100
AcDbEntity
  8
Image
 62
7
100
AcDbSpline
 70
8
 71
3
 72
8
 73
4
 74
0
 40
0
 40
0
 40
0
 40
0
 40
1
 40
1
 40
1
 40
1
 10
417.012563
 20
176.212172
 30
0.0
 10
419.838000
 20
177.867754
 30
0.0
 10
431.196593
 20
180.049412
 30
0.0
 10
440.424120
 20
180.708857
 30
0.0
  0
SPLINE
  5
250
100
AcDbEntity
  8
Image
 62
7
100
AcDbSpline
 70
8
 71
3
 72
8
 73
4
 74
0
 40
0
 40
0
 40
0
 40
0
 40
1
 40
1
 40
1
 40
1
 10
440.424120
 20
180.708857
 30
0.0
 10
458.995950
 20
182.036092
 30
0.0
 10
468.853365
 20
185.267447
 30
0.0
 10
484.656570
 20
195.208682
 30
0.0
  0
LWPOLYLINE
  5
251
100
AcDbEntity
  8
Image
 62
7
100
AcDbPolyline
 90
5
 70
0
 10
385.823138
 20
178.865930
 30
0.0
 10
381.106207
 20
175.500000
 30
0.0
 10
365.490608
 20
175.554319
 30
0.0
 10
349.875000
 20
175.608637
 30
0.0
 10
356.250000
 20
177.671406
 30
0.0
  0
SPLINE
  5
252
100
AcDbEntity
  8
Image
 62
7
100
AcDbSpline
 70
8
 71
3
 72
8
 73
4
 74
0
 40
0
 40
0
 40
0
 40
0
 40
1
 40
1
 40
1
 40
1
 10
495.531570
 20
198.272723
 30
0.0
 10
497.920455
 20
197.698120
 30
0.0
 10
502.365120
 20
196.665131
 30
0.0
 10
505.408605
 20
195.977193
 30
0.0
  0
LWPOLYLINE
  5
253
100
AcDbEntity
  8
Image
 62
7
100
AcDbPolyline
 90
3
 70
0
 10
484.656570
 20
195.208682
 30
0.0
 10
491.188132
 20
199.317457
 30
0.0
 10
495.531570
 20
198.272723
 30
0.0
  0
SPLINE
  5
254
100
AcDbEntity
  8
Image
 62
7
100
AcDbSpline
 70
8
 71
3
 72
8
 73
4
 74
0
 40
0
 40
0
 40
0
 40
0
 40
1
 40
1
 40
1
 40
1
 10
502.687028
 20
190.833354
 30
0.0
 10
498.146678
 20
188.692181
 30
0.0
 10
491.944058
 20
185.330845
 30
0.0
 10
488.903423
 20
183.363719
 30
0.0
  0
SPLINE
  5
255
100
AcDbEntity
  8
Image
 62
7
100
AcDbSpline
 70
8
 71
3
 72
8
 73
4
 74
0
 40
0
 40
0
 40
0
 40
0
 40
1
 40
1
 40
1
 40
1
 10
488.903423
 20
183.363719
 30
0.0
 10
485.862788
 20
181.396592
 30
0.0
 10
481.476998
 20
178.822522
 30
0.0
 10
479.157225
 20
177.643563
 30
0.0
  0
LWPOLYLINE
  5
256
100
AcDbEntity
  8
Image
 62
7
100
AcDbPolyline
 90
3
 70
0
 10
505.408605
 20
195.977193
 30
0.0
 10
510.942203
 20
194.726397
 30
0.0
 10
502.687028
 20
190.833354
 30
0.0
  0
SPLINE
  5
257
100
AcDbEntity
  8
Image
 62
7
100
AcDbSpline
 70
8
 71
3
 72
8
 73
4
 74
0
 40
0
 40
0
 40
0
 40
0
 40
1
 40
1
 40
1
 40
1
 10
445.407225
 20
175.522807
 30
0.0
 10
427.818750
 20
175.536389
 30
0.0
 10
416.335065
 20
175.815190
 30
0.0
 10
417.012563
 20
176.212172
 30
0.0
  0
LWPOLYLINE
  5
258
100
AcDbEntity
  8
Image
 62
7
100
AcDbPolyline
 90
3
 70
0
 10
479.157225
 20
177.643563
 30
0.0
 10
474.939443
 20
175.500000
 30
0.0
 10
445.407225
 20
175.522807
 30
0.0
  0
SPLINE
  5
259
100
AcDbEntity
  8
Image
 62
7
100
AcDbSpline
 70
8
 71
3
 72
8
 73
4
 74
0
 40
0
 40
0
 40
0
 40
0
 40
1
 40
1
 40
1
 40
1
 10
509.250000
 20
175.839883
 30
0.0
 10
509.250000
 20
177.233541
 30
0.0
 10
533.162355
 20
186.750000
 30
0.0
 10
536.664247
 20
186.750000
 30
0.0
  0
SPLINE
  5
25a
100
AcDbEntity
  8
Image
 62
7
100
AcDbSpline
 70
8
 71
3
 72
8
 73
4
 74
0
 40
0
 40
0
 40
0
 40
0
 40
1
 40
1
 40
1
 40
1
 10
536.664247
 20
186.750000
 30
0.0
 10
538.346445
 20
186.750000
 30
0.0
 10
551.628547
 20
182.531460
 30
0.0
 10
556.794060
 20
180.356551
 30
0.0
  0
SPLINE
  5
25b
100
AcDbEntity
  8
Image
 62
7
100
AcDbSpline
 70
8
 71
3
 72
8
 73
4
 74
0
 40
0
 40
0
 40
0
 40
0
 40
1
 40
1
 40
1
 40
1
 10
556.794060
 20
180.356551
 30
0.0
 10
559.122360
 20
179.376233
 30
0.0
 10
559.122877
 20
179.374703
 30
0.0
 10
557.250000
 20
179.006024
 30
0.0
  0
SPLINE
  5
25c
100
AcDbEntity
  8
Image
 62
7
100
AcDbSpline
 70
8
 71
3
 72
8
 73
4
 74
0
 40
0
 40
0
 40
0
 40
0
 40
1
 40
1
 40
1
 40
1
 10
557.250000
 20
179.006024
 30
0.0
 10
556.218750
 20
178.803021
 30
0.0
 10
552.337500
 20
178.022866
 30
0.0
 10
548.625000
 20
177.272345
 30
0.0
  0
SPLINE
  5
25d
100
AcDbEntity
  8
Image
 62
7
100
AcDbSpline
 70
8
 71
3
 72
8
 73
4
 74
0
 40
0
 40
0
 40
0
 40
0
 40
1
 40
1
 40
1
 40
1
 10
548.625000
 20
177.272345
 30
0.0
 10
543.646380
 20
176.265866
 30
0.0
 10
537.594165
 20
175.846940
 30
0.0
 10
525.562500
 20
175.675992
 30
0.0
  0
SPLINE
  5
25e
100
AcDbEntity
  8
Image
 62
7
100
AcDbSpline
 70
8
 71
3
 72
8
 73
4
 74
0
 40
0
 40
0
 40
0
 40
0
 40
1
 40
1
 40
1
 40
1
 10
525.562500
 20
175.675992
 30
0.0
 10
516.590625
 20
175.548518
 30
0.0
 10
509.250000
 20
175.622270
 30
0.0
 10
509.250000
 20
175.839883
 30
0.0
  0
LWPOLYLINE
  5
25f
100
AcDbEntity
  8
Image
 62
7
100
AcDbPolyline
 90
1
 70
1
 10
417.012563
 20
176.212172
 30
0.0
  0
LWPOLYLINE
  5
260
100
AcDbEntity
  8
Image
 62
7
100
AcDbPolyline
 90
1
 70
1
 10
509.250000
 20
175.839883
 30
0.0
  0
ENDSEC
  0
SECTION
  2
OBJECTS
  0
DICTIONARY
  5
C
330
0
100
AcDbDictionary
  3
ACAD_GROUP
350
D
  3
ACAD_MLINESTYLE
350
17
  0
DICTIONARY
  5
D
330
C
100
AcDbDictionary
  0
DICTIONARY
  5
1A
330
C
100
AcDbDictionary
  0
DICTIONARY
  5
17
330
C
100
AcDbDictionary
  3
STANDARD
350
18
  0
DICTIONARY
  5
19
330
C
100
AcDbDictionary
  0
ENDSEC
  0
EOF
