  0
SECTION
  2
HEADER
  9
$ACADVER
  1
AC1009
  9
$INSBASE
 10
0.0
 20
0.0
 30
0.0
  9
$EXTMIN
 10
-0.0512748498781548
 20
-0.0388212694160757
 30
-0.0000000000000058
  9
$EXTMAX
 10
800.0256094396871731
 20
600.0867351978786246
 30
0.0000000000000104
  9
$LIMMIN
 10
0.0
 20
0.0
  9
$LIMMAX
 10
420.0
 20
297.0
  9
$ORTHOMODE
 70
     0
  9
$REGENMODE
 70
     1
  9
$FILLMODE
 70
     1
  9
$QTEXTMODE
 70
     0
  9
$MIRRTEXT
 70
     0
  9
$DRAGMODE
 70
     2
  9
$LTSCALE
 40
1.0
  9
$OSMODE
 70
    37
  9
$ATTMODE
 70
     1
  9
$TEXTSIZE
 40
2.5
  9
$TRACEWID
 40
1.0
  9
$TEXTSTYLE
  7
STANDARD
  9
$CLAYER
  8
0
  9
$CELTYPE
  6
BYLAYER
  9
$CECOLOR
 62
   256
  9
$DIMSCALE
 40
1.0
  9
$DIMASZ
 40
2.5
  9
$DIMEXO
 40
0.625
  9
$DIMDLI
 40
3.75
  9
$DIMRND
 40
0.0
  9
$DIMDLE
 40
0.0
  9
$DIMEXE
 40
1.25
  9
$DIMTP
 40
0.0
  9
$DIMTM
 40
0.0
  9
$DIMTXT
 40
2.5
  9
$DIMCEN
 40
2.5
  9
$DIMTSZ
 40
0.0
  9
$DIMTOL
 70
     0
  9
$DIMLIM
 70
     0
  9
$DIMTIH
 70
     0
  9
$DIMTOH
 70
     0
  9
$DIMSE1
 70
     0
  9
$DIMSE2
 70
     0
  9
$DIMTAD
 70
     1
  9
$DIMZIN
 70
     8
  9
$DIMBLK
  1

  9
$DIMASO
 70
     1
  9
$DIMSHO
 70
     1
  9
$DIMPOST
  1

  9
$DIMAPOST
  1

  9
$DIMALT
 70
     0
  9
$DIMALTD
 70
     3
  9
$DIMALTF
 40
0.03937007874016
  9
$DIMLFAC
 40
1.0
  9
$DIMTOFL
 70
     1
  9
$DIMTVP
 40
0.0
  9
$DIMTIX
 70
     0
  9
$DIMSOXD
 70
     0
  9
$DIMSAH
 70
     0
  9
$DIMBLK1
  1

  9
$DIMBLK2
  1

  9
$DIMSTYLE
  2
ISO-25
  9
$DIMCLRD
 70
     0
  9
$DIMCLRE
 70
     0
  9
$DIMCLRT
 70
     0
  9
$DIMTFAC
 40
1.0
  9
$DIMGAP
 40
0.625
  9
$LUNITS
 70
     2
  9
$LUPREC
 70
     4
  9
$SKETCHINC
 40
1.0
  9
$FILLETRAD
 40
0.0
  9
$AUNITS
 70
     0
  9
$AUPREC
 70
     0
  9
$MENU
  1
.
  9
$ELEVATION
 40
0.0
  9
$PELEVATION
 40
0.0
  9
$THICKNESS
 40
0.0
  9
$LIMCHECK
 70
     0
  9
$BLIPMODE
 70
     0
  9
$CHAMFERA
 40
0.0
  9
$CHAMFERB
 40
0.0
  9
$SKPOLY
 70
     0
  9
$TDCREATE
 40
2459877.5022569447755814
  9
$TDUPDATE
 40
2459892.779456018935889
  9
$TDINDWG
 40
0.235625
  9
$TDUSRTIMER
 40
0.235625
  9
$USRTIMER
 70
     1
  9
$ANGBASE
 50
0.0
  9
$ANGDIR
 70
     0
  9
$PDMODE
 70
     0
  9
$PDSIZE
 40
0.0
  9
$PLINEWID
 40
0.0
  9
$COORDS
 70
     1
  9
$SPLFRAME
 70
     0
  9
$SPLINETYPE
 70
     6
  9
$SPLINESEGS
 70
     8
  9
$ATTDIA
 70
     1
  9
$ATTREQ
 70
     1
  9
$HANDLING
 70
     1
  9
$HANDSEED
  5
7E6
  9
$SURFTAB1
 70
     6
  9
$SURFTAB2
 70
     6
  9
$SURFTYPE
 70
     6
  9
$SURFU
 70
     6
  9
$SURFV
 70
     6
  9
$UCSNAME
  2

  9
$UCSORG
 10
0.0
 20
0.0
 30
0.0
  9
$UCSXDIR
 10
1.0
 20
0.0
 30
0.0
  9
$UCSYDIR
 10
0.0
 20
1.0
 30
0.0
  9
$PUCSNAME
  2

  9
$PUCSORG
 10
0.0
 20
0.0
 30
0.0
  9
$PUCSXDIR
 10
1.0
 20
0.0
 30
0.0
  9
$PUCSYDIR
 10
0.0
 20
1.0
 30
0.0
  9
$USERI1
 70
     0
  9
$USERI2
 70
     0
  9
$USERI3
 70
     0
  9
$USERI4
 70
     0
  9
$USERI5
 70
     0
  9
$USERR1
 40
0.0
  9
$USERR2
 40
0.0
  9
$USERR3
 40
0.0
  9
$USERR4
 40
0.0
  9
$USERR5
 40
0.0
  9
$WORLDVIEW
 70
     1
  9
$SHADEDGE
 70
     3
  9
$SHADEDIF
 70
    70
  9
$TILEMODE
 70
     1
  9
$MAXACTVP
 70
    64
  9
$PLIMCHECK
 70
     0
  9
$PEXTMIN
 10
0.0
 20
0.0
 30
0.0
  9
$PEXTMAX
 10
0.0
 20
0.0
 30
0.0
  9
$PLIMMIN
 10
0.0
 20
0.0
  9
$PLIMMAX
 10
12.0
 20
9.0
  9
$UNITMODE
 70
     0
  9
$VISRETAIN
 70
     1
  9
$PLINEGEN
 70
     0
  9
$PSLTSCALE
 70
     1
  0
ENDSEC
  0
SECTION
  2
TABLES
  0
TABLE
  2
VPORT
 70
     1
  0
VPORT
  2
*ACTIVE
 70
     0
 10
0.0
 20
0.0
 11
1.0
 21
1.0
 12
399.9871672949046228
 22
300.0239569642312745
 13
0.0
 23
0.0
 14
10.0
 24
10.0
 15
10.0
 25
10.0
 16
0.0
 26
0.0
 36
1.0
 17
0.0
 27
0.0
 37
0.0
 40
605.3064965231274073
 41
2.7478386167146969
 42
50.0
 43
0.0
 44
0.0
 50
0.0
 51
0.0
 71
     0
 72
  1000
 73
     1
 74
     3
 75
     0
 76
     1
 77
     0
 78
     0
  0
ENDTAB
  0
TABLE
  2
LTYPE
 70
     2
  0
LTYPE
  2
CONTINUOUS
 70
     0
  3
Solid line
 72
    65
 73
     0
 40
0.0
  0
ENDTAB
  0
TABLE
  2
LAYER
 70
     1
  0
LAYER
  2
0
 70
     0
 62
     7
  6
CONTINUOUS
  0
ENDTAB
  0
TABLE
  2
STYLE
 70
     3
  0
STYLE
  2
STANDARD
 70
     0
 40
0.0
 41
1.0
 50
0.0
 71
     0
 42
2.5
  3
txt
  4

  0
STYLE
  2
ANOTATIVO
 70
     0
 40
0.0
 41
1.0
 50
0.0
 71
     0
 42
2.5
  3
txt
  4

  0
ENDTAB
  0
TABLE
  2
VIEW
 70
     0
  0
ENDTAB
  0
TABLE
  2
UCS
 70
     0
  0
ENDTAB
  0
TABLE
  2
APPID
 70
     9
  0
APPID
  2
ACAD
 70
     0
  0
APPID
  2
ACAD_PSEXT
 70
     0
  0
APPID
  2
ACADANNOPO
 70
     0
  0
APPID
  2
ACADANNOTATIVE
 70
     0
  0
APPID
  2
ACAD_DSTYLE_DIMJAG
 70
     0
  0
APPID
  2
ACAD_DSTYLE_DIMTALN
 70
     0
  0
APPID
  2
ACAD_MLEADERVER
 70
     0
  0
APPID
  2
ACAD_NAV_VCDISPLAY
 70
     0
  0
APPID
  2
ACAD_EXEMPT_FROM_CAD_STANDARDS
 70
     0
  0
ENDTAB
  0
TABLE
  2
DIMSTYLE
 70
     5
  0
DIMSTYLE
  2
STANDARD
 70
     0
  3

  4

  5

  6

  7

 40
1.0
 41
0.18
 42
0.0625
 43
0.38
 44
0.18
 45
0.0
 46
0.0
 47
0.0
 48
0.0
140
0.18
141
0.09
142
0.0
143
25.3999999999999986
144
1.0
145
0.0
146
1.0
147
0.09
 71
     0
 72
     0
 73
     1
 74
     1
 75
     0
 76
     0
 77
     0
 78
     0
170
     0
171
     2
172
     0
173
     0
174
     0
175
     0
176
     0
177
     0
178
     0
  0
DIMSTYLE
  2
ANOTATIVO
 70
     0
  3

  4

  5

  6

  7

 40
0.0
 41
2.5
 42
0.625
 43
3.75
 44
1.25
 45
0.0
 46
0.0
 47
0.0
 48
0.0
140
2.5
141
2.5
142
0.0
143
0.03937007874016
144
1.0
145
0.0
146
1.0
147
0.625
 71
     0
 72
     0
 73
     0
 74
     0
 75
     0
 76
     0
 77
     1
 78
     8
170
     0
171
     3
172
     1
173
     0
174
     0
175
     0
176
     0
177
     0
178
     0
  0
DIMSTYLE
  2
ISO-25
 70
     0
  3

  4

  5

  6

  7

 40
1.0
 41
2.5
 42
0.625
 43
3.75
 44
1.25
 45
0.0
 46
0.0
 47
0.0
 48
0.0
140
2.5
141
2.5
142
0.0
143
0.03937007874016
144
1.0
145
0.0
146
1.0
147
0.625
 71
     0
 72
     0
 73
     0
 74
     0
 75
     0
 76
     0
 77
     1
 78
     8
170
     0
171
     3
172
     1
173
     0
174
     0
175
     0
176
     0
177
     0
178
     0
  0
ENDTAB
  0
ENDSEC
  0
SECTION
  2
BLOCKS
  0
BLOCK
  8
0
  2
$MODEL_SPACE
 70
     0
 10
0.0
 20
0.0
 30
0.0
  3
$MODEL_SPACE
  1

  0
ENDBLK
  5
21
  8
0
  0
BLOCK
 67
     1
  8
0
  2
$PAPER_SPACE
 70
     0
 10
0.0
 20
0.0
 30
0.0
  3
$PAPER_SPACE
  1

  0
ENDBLK
  5
D5
 67
     1
  8
0
  0
ENDSEC
  0
SECTION
  2
ENTITIES
  0
POLYLINE
  5
2DF
  8
0
 66
     1
 10
0.0
 20
0.0
 30
0.0
  0
VERTEX
  5
76D
  8
0
 10
6.0297167715616524
 20
471.8360569103306261
 30
0.0
  0
VERTEX
  5
76E
  8
0
 10
606.0297167715616524
 20
471.8360569103306261
 30
0.0
  0
VERTEX
  5
76F
  8
0
 10
606.0297167715616524
 20
481.8360569103306261
 30
0.0
  0
SEQEND
  5
770
  8
0
  0
POLYLINE
  5
2E0
  8
0
 66
     1
 10
0.0
 20
0.0
 30
0.0
  0
VERTEX
  5
771
  8
0
 10
6.0297167715616524
 20
471.8360569103306261
 30
0.0
  0
VERTEX
  5
772
  8
0
 10
6.0297167715616524
 20
481.8360569103306261
 30
0.0
  0
SEQEND
  5
773
  8
0
  0
POLYLINE
  5
2E1
  8
0
 66
     1
 10
0.0
 20
0.0
 30
0.0
  0
VERTEX
  5
774
  8
0
 10
6.0297167715616524
 20
481.8360569103306261
 30
0.0
  0
VERTEX
  5
775
  8
0
 10
180.0297167715615956
 20
521.8360569103306261
 30
0.0
  0
VERTEX
  5
776
  8
0
 10
184.0297167715615956
 20
521.8360569103306261
 30
0.0
  0
VERTEX
  5
777
  8
0
 10
606.0297167715616524
 20
481.8360569103306261
 30
0.0
  0
SEQEND
  5
778
  8
0
  0
POLYLINE
  5
2E8
  8
0
 66
     1
 10
0.0
 20
0.0
 30
0.0
 70
     1
  0
VERTEX
  5
779
  8
0
 10
651.5497452748868454
 20
122.7367670827388935
 30
0.0
  0
VERTEX
  5
77A
  8
0
 10
651.5497452748868454
 20
7.7367670827388793
 30
0.0
  0
VERTEX
  5
77B
  8
0
 10
771.5497452748868454
 20
7.7367670827388793
 30
0.0
  0
VERTEX
  5
77C
  8
0
 10
771.5497452748868454
 20
122.7367670827388935
 30
0.0
  0
SEQEND
  5
77D
  8
0
  0
POLYLINE
  5
2EF
  8
0
 66
     1
 10
0.0
 20
0.0
 30
0.0
 70
     1
  0
VERTEX
  5
77E
  8
0
 10
702.9182904548115403
 20
130.3060331680252943
 30
0.0
  0
VERTEX
  5
77F
  8
0
 10
702.9182904548115403
 20
260.306033168025408
 30
0.0
  0
VERTEX
  5
780
  8
0
 10
652.9182904548115403
 20
260.306033168025408
 30
0.0
  0
VERTEX
  5
781
  8
0
 10
652.9182904548115403
 20
130.3060331680252943
 30
0.0
  0
SEQEND
  5
782
  8
0
  0
POLYLINE
  5
2F2
  8
0
 66
     1
 10
0.0
 20
0.0
 30
0.0
 70
     1
  0
VERTEX
  5
783
  8
0
 10
791.0461107688405491
 20
8.5449674490982943
 30
0.0
  0
VERTEX
  5
784
  8
0
 10
791.0461107688405491
 20
308.5449674490982943
 30
0.0
  0
VERTEX
  5
785
  8
0
 10
781.0461107688405491
 20
308.5449674490982943
 30
0.0
  0
VERTEX
  5
786
  8
0
 10
781.0461107688405491
 20
8.5449674490982943
 30
0.0
  0
SEQEND
  5
787
  8
0
  0
POLYLINE
  5
2F8
  8
0
 66
     1
 10
0.0
 20
0.0
 30
0.0
 70
     1
  0
VERTEX
  5
788
  8
0
 10
6.996474511910491
 20
8.4813379184793121
 30
0.0
  0
VERTEX
  5
789
  8
0
 10
646.9964745119104919
 20
8.4813379184793121
 30
0.0
  0
VERTEX
  5
78A
  8
0
 10
646.9964745119104919
 20
466.4813379184793121
 30
0.0
  0
VERTEX
  5
78B
  8
0
 10
6.996474511910491
 20
466.4813379184793121
 30
0.0
  0
SEQEND
  5
78C
  8
0
  0
POLYLINE
  5
304
  8
0
 66
     1
 10
0.0
 20
0.0
 30
0.0
 70
     1
  0
VERTEX
  5
78D
  8
0
 10
424.2512859435028076
 20
566.606985474201565
 30
0.0
  0
VERTEX
  5
78E
  8
0
 10
424.2512859435028076
 20
546.6069854742014513
 30
0.0
  0
VERTEX
  5
78F
  8
0
 10
6.2512859435028068
 20
546.6069854741990639
 30
0.0
  0
VERTEX
  5
790
  8
0
 10
6.2512859435028068
 20
566.6069854741989502
 30
0.0
  0
SEQEND
  5
791
  8
0
  0
POLYLINE
  5
306
  8
0
 66
     1
 10
0.0
 20
0.0
 30
0.0
 70
     1
  0
VERTEX
  5
792
  8
0
 10
4.203636950379404
 20
575.2186097885936533
 30
0.0
  0
VERTEX
  5
793
  8
0
 10
4.203636950379404
 20
595.2186097885936533
 30
0.0
  0
VERTEX
  5
794
  8
0
 10
644.2036369503794049
 20
595.2186097885936533
 30
0.0
  0
VERTEX
  5
795
  8
0
 10
644.2036369503794049
 20
575.2186097885936533
 30
0.0
  0
SEQEND
  5
796
  8
0
  0
POLYLINE
  5
308
  8
0
 66
     1
 10
0.0
 20
0.0
 30
0.0
 70
     1
  0
VERTEX
  5
797
  8
0
 10
673.6415107761686158
 20
353.4608625805112752
 30
0.0
  0
VERTEX
  5
798
  8
0
 10
653.6415107761686158
 20
353.4608625805112752
 30
0.0
  0
VERTEX
  5
799
  8
0
 10
653.6415107761686158
 20
503.4608625805112752
 30
0.0
  0
VERTEX
  5
79A
  8
0
 10
673.6415107761686158
 20
503.4608625805112752
 30
0.0
  0
SEQEND
  5
79B
  8
0
  0
POLYLINE
  5
309
  8
0
 66
     1
 10
0.0
 20
0.0
 30
0.0
 70
     1
  0
VERTEX
  5
79C
  8
0
 10
699.5822689185479248
 20
353.5234177751535753
 30
0.0
  0
VERTEX
  5
79D
  8
0
 10
679.5822689185479248
 20
353.5234177751535753
 30
0.0
  0
VERTEX
  5
79E
  8
0
 10
679.5822689185479248
 20
503.5234177751535753
 30
0.0
  0
VERTEX
  5
79F
  8
0
 10
699.5822689185479248
 20
503.5234177751535753
 30
0.0
  0
SEQEND
  5
7A0
  8
0
  0
POLYLINE
  5
30A
  8
0
 66
     1
 10
0.0
 20
0.0
 30
0.0
 70
     1
  0
VERTEX
  5
7A1
  8
0
 10
725.52937555138476
 20
354.1585446705067284
 30
0.0
  0
VERTEX
  5
7A2
  8
0
 10
705.52937555138476
 20
354.1585446705067284
 30
0.0
  0
VERTEX
  5
7A3
  8
0
 10
705.52937555138476
 20
504.1585446705067284
 30
0.0
  0
VERTEX
  5
7A4
  8
0
 10
725.52937555138476
 20
504.1585446705067284
 30
0.0
  0
SEQEND
  5
7A5
  8
0
  0
POLYLINE
  5
30B
  8
0
 66
     1
 10
0.0
 20
0.0
 30
0.0
 70
     1
  0
VERTEX
  5
7A6
  8
0
 10
752.0481879257813489
 20
353.1333084613506799
 30
0.0
  0
VERTEX
  5
7A7
  8
0
 10
732.0481879257813489
 20
353.1333084613506799
 30
0.0
  0
VERTEX
  5
7A8
  8
0
 10
732.0481879257813489
 20
503.133308461350623
 30
0.0
  0
VERTEX
  5
7A9
  8
0
 10
752.0481879257813489
 20
503.133308461350623
 30
0.0
  0
SEQEND
  5
7AA
  8
0
  0
POLYLINE
  5
30F
  8
0
 66
     1
 10
0.0
 20
0.0
 30
0.0
 70
     1
  0
VERTEX
  5
7AB
  8
0
 10
777.6097398033070931
 20
353.6158361460438755
 30
0.0
  0
VERTEX
  5
7AC
  8
0
 10
757.6097398033070931
 20
353.6158361460438755
 30
0.0
  0
VERTEX
  5
7AD
  8
0
 10
757.6097398033070931
 20
503.6158361460438186
 30
0.0
  0
VERTEX
  5
7AE
  8
0
 10
777.6097398033070931
 20
503.6158361460438186
 30
0.0
  0
SEQEND
  5
7AF
  8
0
  0
POLYLINE
  5
310
  8
0
 66
     1
 10
0.0
 20
0.0
 30
0.0
 70
     1
  0
VERTEX
  5
7B0
  8
0
 10
612.5321435849091358
 20
486.6589027945078101
 30
0.0
  0
VERTEX
  5
7B1
  8
0
 10
190.5321435849091074
 20
526.6589027945077532
 30
0.0
  0
VERTEX
  5
7B2
  8
0
 10
190.5321435849091074
 20
536.6589027945077532
 30
0.0
  0
VERTEX
  5
7B3
  8
0
 10
612.5321435849091358
 20
536.6589027945077532
 30
0.0
  0
SEQEND
  5
7B4
  8
0
  0
POLYLINE
  5
311
  8
0
 66
     1
 10
0.0
 20
0.0
 30
0.0
 70
     1
  0
VERTEX
  5
7B5
  8
0
 10
5.9667493512952197
 20
489.8164500618181023
 30
0.0
  0
VERTEX
  5
7B6
  8
0
 10
9.9667493512952205
 20
489.8164500618181023
 30
0.0
  0
VERTEX
  5
7B7
  8
0
 10
183.9667493512951921
 20
529.8164500618180455
 30
0.0
  0
VERTEX
  5
7B8
  8
0
 10
183.9667493512951921
 20
539.8164500618180455
 30
0.0
  0
VERTEX
  5
7B9
  8
0
 10
5.9667493512952197
 20
539.8164500618180455
 30
0.0
  0
SEQEND
  5
7BA
  8
0
  0
POLYLINE
  5
369
  8
0
 66
     1
 10
0.0
 20
0.0
 30
0.0
 70
     1
  0
VERTEX
  5
7BB
  8
0
 10
654.0399371455922619
 20
310.8828380949024108
 30
0.0
  0
VERTEX
  5
7BC
  8
0
 10
736.0399371455922619
 20
310.8828380949024108
 30
0.0
  0
VERTEX
  5
7BD
  8
0
 10
736.0399371455922619
 20
280.8828380949022971
 30
0.0
  0
VERTEX
  5
7BE
  8
0
 10
654.0399371455922619
 20
280.8828380949022971
 30
0.0
  0
SEQEND
  5
7BF
  8
0
  0
POLYLINE
  5
36B
  8
0
 66
     1
 10
0.0
 20
0.0
 30
0.0
 70
     1
  0
VERTEX
  5
7C0
  8
0
 10
651.64411247481803
 20
511.9901757672705003
 30
0.0
  0
VERTEX
  5
7C1
  8
0
 10
651.64411247481803
 20
593.9901757672704434
 30
0.0
  0
VERTEX
  5
7C2
  8
0
 10
681.64411247481803
 20
593.9901757672704434
 30
0.0
  0
VERTEX
  5
7C3
  8
0
 10
681.64411247481803
 20
511.9901757672705003
 30
0.0
  0
SEQEND
  5
7C4
  8
0
  0
POLYLINE
  5
36C
  8
0
 66
     1
 10
0.0
 20
0.0
 30
0.0
 70
     1
  0
VERTEX
  5
7C5
  8
0
 10
690.2532742833882367
 20
511.9901757672701024
 30
0.0
  0
VERTEX
  5
7C6
  8
0
 10
690.2532742833882367
 20
593.9901757672701024
 30
0.0
  0
VERTEX
  5
7C7
  8
0
 10
720.2532742833882367
 20
593.9901757672701024
 30
0.0
  0
VERTEX
  5
7C8
  8
0
 10
720.2532742833882367
 20
511.9901757672701024
 30
0.0
  0
SEQEND
  5
7C9
  8
0
  0
POLYLINE
  5
36D
  8
0
 66
     1
 10
0.0
 20
0.0
 30
0.0
 70
     1
  0
VERTEX
  5
7CA
  8
0
 10
725.8925214799528476
 20
511.9901787917096954
 30
0.0
  0
VERTEX
  5
7CB
  8
0
 10
725.8925214799528476
 20
593.9901787917095817
 30
0.0
  0
VERTEX
  5
7CC
  8
0
 10
755.8925214799528476
 20
593.9901787917095817
 30
0.0
  0
VERTEX
  5
7CD
  8
0
 10
755.8925214799528476
 20
511.9901787917096954
 30
0.0
  0
SEQEND
  5
7CE
  8
0
  0
POLYLINE
  5
36E
  8
0
 66
     1
 10
0.0
 20
0.0
 30
0.0
 70
     1
  0
VERTEX
  5
7CF
  8
0
 10
761.5317522006080253
 20
511.9901757672705003
 30
0.0
  0
VERTEX
  5
7D0
  8
0
 10
761.5317522006080253
 20
593.9901757672704434
 30
0.0
  0
VERTEX
  5
7D1
  8
0
 10
791.5317522006080253
 20
593.9901757672704434
 30
0.0
  0
VERTEX
  5
7D2
  8
0
 10
791.5317522006080253
 20
511.9901757672705003
 30
0.0
  0
SEQEND
  5
7D3
  8
0
  0
POLYLINE
  5
370
  8
0
 66
     1
 10
0.0
 20
0.0
 30
0.0
 70
     1
  0
VERTEX
  5
7D4
  8
0
 10
708.8848006571533915
 20
132.0395048419366049
 30
0.0
  0
VERTEX
  5
7D5
  8
0
 10
708.8848006571533915
 20
234.0395048419366049
 30
0.0
  0
VERTEX
  5
7D6
  8
0
 10
771.3848006571533915
 20
234.0395048419366049
 30
0.0
  0
VERTEX
  5
7D7
  8
0
 10
771.3848006571533915
 20
132.0395048419366049
 30
0.0
  0
SEQEND
  5
7D8
  8
0
  0
POLYLINE
  5
371
  8
0
 66
     1
 10
0.0
 20
0.0
 30
0.0
 70
     1
  0
VERTEX
  5
7D9
  8
0
 10
654.0493191787481919
 20
347.3637272778200895
 30
0.0
  0
VERTEX
  5
7DA
  8
0
 10
756.0493191787481919
 20
347.3637272778200895
 30
0.0
  0
VERTEX
  5
7DB
  8
0
 10
756.0493191787481919
 20
316.8637272778200895
 30
0.0
  0
VERTEX
  5
7DC
  8
0
 10
654.0493191787481919
 20
316.8637272778200895
 30
0.0
  0
SEQEND
  5
7DD
  8
0
  0
POLYLINE
  5
3B5
  8
0
 66
     1
 10
0.0
 20
0.0
 30
0.0
 70
     1
  0
VERTEX
  5
7DE
  8
0
 10
0.0
 20
0.0
 30
0.0
  0
VERTEX
  5
7DF
  8
0
 10
800.0
 20
0.0
 30
0.0
  0
VERTEX
  5
7E0
  8
0
 10
800.0
 20
600.0
 30
0.0
  0
VERTEX
  5
7E1
  8
0
 10
0.0
 20
600.0
 30
0.0
  0
SEQEND
  5
7E2
  8
0
  0
ENDSEC
  0
EOF
