  0
SECTION
  2
HEADER
  9
$ACADVER
  1
AC1009
  9
$INSBASE
 10
0.0
 20
0.0
 30
0.0
  9
$EXTMIN
 10
-0.0512748498781548
 20
-0.0388212694160757
 30
-0.0000000000000058
  9
$EXTMAX
 10
800.0256094396871731
 20
600.0867351978786246
 30
0.0000000000000104
  9
$LIMMIN
 10
0.0
 20
0.0
  9
$LIMMAX
 10
420.0
 20
297.0
  9
$ORTHOMODE
 70
     0
  9
$REGENMODE
 70
     1
  9
$FILLMODE
 70
     1
  9
$QTEXTMODE
 70
     0
  9
$MIRRTEXT
 70
     0
  9
$DRAGMODE
 70
     2
  9
$LTSCALE
 40
1.0
  9
$OSMODE
 70
    37
  9
$ATTMODE
 70
     1
  9
$TEXTSIZE
 40
2.5
  9
$TRACEWID
 40
1.0
  9
$TEXTSTYLE
  7
STANDARD
  9
$CLAYER
  8
0
  9
$CELTYPE
  6
BYLAYER
  9
$CECOLOR
 62
   256
  9
$DIMSCALE
 40
1.0
  9
$DIMASZ
 40
2.5
  9
$DIMEXO
 40
0.625
  9
$DIMDLI
 40
3.75
  9
$DIMRND
 40
0.0
  9
$DIMDLE
 40
0.0
  9
$DIMEXE
 40
1.25
  9
$DIMTP
 40
0.0
  9
$DIMTM
 40
0.0
  9
$DIMTXT
 40
2.5
  9
$DIMCEN
 40
2.5
  9
$DIMTSZ
 40
0.0
  9
$DIMTOL
 70
     0
  9
$DIMLIM
 70
     0
  9
$DIMTIH
 70
     0
  9
$DIMTOH
 70
     0
  9
$DIMSE1
 70
     0
  9
$DIMSE2
 70
     0
  9
$DIMTAD
 70
     1
  9
$DIMZIN
 70
     8
  9
$DIMBLK
  1

  9
$DIMASO
 70
     1
  9
$DIMSHO
 70
     1
  9
$DIMPOST
  1

  9
$DIMAPOST
  1

  9
$DIMALT
 70
     0
  9
$DIMALTD
 70
     3
  9
$DIMALTF
 40
0.03937007874016
  9
$DIMLFAC
 40
1.0
  9
$DIMTOFL
 70
     1
  9
$DIMTVP
 40
0.0
  9
$DIMTIX
 70
     0
  9
$DIMSOXD
 70
     0
  9
$DIMSAH
 70
     0
  9
$DIMBLK1
  1

  9
$DIMBLK2
  1

  9
$DIMSTYLE
  2
ISO-25
  9
$DIMCLRD
 70
     0
  9
$DIMCLRE
 70
     0
  9
$DIMCLRT
 70
     0
  9
$DIMTFAC
 40
1.0
  9
$DIMGAP
 40
0.625
  9
$LUNITS
 70
     2
  9
$LUPREC
 70
     4
  9
$SKETCHINC
 40
1.0
  9
$FILLETRAD
 40
0.0
  9
$AUNITS
 70
     0
  9
$AUPREC
 70
     0
  9
$MENU
  1
.
  9
$ELEVATION
 40
0.0
  9
$PELEVATION
 40
0.0
  9
$THICKNESS
 40
0.0
  9
$LIMCHECK
 70
     0
  9
$BLIPMODE
 70
     0
  9
$CHAMFERA
 40
0.0
  9
$CHAMFERB
 40
0.0
  9
$SKPOLY
 70
     0
  9
$TDCREATE
 40
2459877.5022569447755814
  9
$TDUPDATE
 40
2459892.778634259942919
  9
$TDINDWG
 40
0.2348032407
  9
$TDUSRTIMER
 40
0.2348032407
  9
$USRTIMER
 70
     1
  9
$ANGBASE
 50
0.0
  9
$ANGDIR
 70
     0
  9
$PDMODE
 70
     0
  9
$PDSIZE
 40
0.0
  9
$PLINEWID
 40
0.0
  9
$COORDS
 70
     1
  9
$SPLFRAME
 70
     0
  9
$SPLINETYPE
 70
     6
  9
$SPLINESEGS
 70
     8
  9
$ATTDIA
 70
     1
  9
$ATTREQ
 70
     1
  9
$HANDLING
 70
     1
  9
$HANDSEED
  5
716
  9
$SURFTAB1
 70
     6
  9
$SURFTAB2
 70
     6
  9
$SURFTYPE
 70
     6
  9
$SURFU
 70
     6
  9
$SURFV
 70
     6
  9
$UCSNAME
  2

  9
$UCSORG
 10
0.0
 20
0.0
 30
0.0
  9
$UCSXDIR
 10
1.0
 20
0.0
 30
0.0
  9
$UCSYDIR
 10
0.0
 20
1.0
 30
0.0
  9
$PUCSNAME
  2

  9
$PUCSORG
 10
0.0
 20
0.0
 30
0.0
  9
$PUCSXDIR
 10
1.0
 20
0.0
 30
0.0
  9
$PUCSYDIR
 10
0.0
 20
1.0
 30
0.0
  9
$USERI1
 70
     0
  9
$USERI2
 70
     0
  9
$USERI3
 70
     0
  9
$USERI4
 70
     0
  9
$USERI5
 70
     0
  9
$USERR1
 40
0.0
  9
$USERR2
 40
0.0
  9
$USERR3
 40
0.0
  9
$USERR4
 40
0.0
  9
$USERR5
 40
0.0
  9
$WORLDVIEW
 70
     1
  9
$SHADEDGE
 70
     3
  9
$SHADEDIF
 70
    70
  9
$TILEMODE
 70
     1
  9
$MAXACTVP
 70
    64
  9
$PLIMCHECK
 70
     0
  9
$PEXTMIN
 10
0.0
 20
0.0
 30
0.0
  9
$PEXTMAX
 10
0.0
 20
0.0
 30
0.0
  9
$PLIMMIN
 10
0.0
 20
0.0
  9
$PLIMMAX
 10
12.0
 20
9.0
  9
$UNITMODE
 70
     0
  9
$VISRETAIN
 70
     1
  9
$PLINEGEN
 70
     0
  9
$PSLTSCALE
 70
     1
  0
ENDSEC
  0
SECTION
  2
TABLES
  0
TABLE
  2
VPORT
 70
     1
  0
VPORT
  2
*ACTIVE
 70
     0
 10
0.0
 20
0.0
 11
1.0
 21
1.0
 12
399.9871672949046228
 22
300.0239569642312745
 13
0.0
 23
0.0
 14
10.0
 24
10.0
 15
10.0
 25
10.0
 16
0.0
 26
0.0
 36
1.0
 17
0.0
 27
0.0
 37
0.0
 40
605.3064965231274073
 41
2.7478386167146969
 42
50.0
 43
0.0
 44
0.0
 50
0.0
 51
0.0
 71
     0
 72
  1000
 73
     1
 74
     3
 75
     0
 76
     1
 77
     0
 78
     0
  0
ENDTAB
  0
TABLE
  2
LTYPE
 70
     2
  0
LTYPE
  2
CONTINUOUS
 70
     0
  3
Solid line
 72
    65
 73
     0
 40
0.0
  0
ENDTAB
  0
TABLE
  2
LAYER
 70
     1
  0
LAYER
  2
0
 70
     0
 62
     7
  6
CONTINUOUS
  0
ENDTAB
  0
TABLE
  2
STYLE
 70
     3
  0
STYLE
  2
STANDARD
 70
     0
 40
0.0
 41
1.0
 50
0.0
 71
     0
 42
2.5
  3
txt
  4

  0
STYLE
  2
ANOTATIVO
 70
     0
 40
0.0
 41
1.0
 50
0.0
 71
     0
 42
2.5
  3
txt
  4

  0
ENDTAB
  0
TABLE
  2
VIEW
 70
     0
  0
ENDTAB
  0
TABLE
  2
UCS
 70
     0
  0
ENDTAB
  0
TABLE
  2
APPID
 70
     9
  0
APPID
  2
ACAD
 70
     0
  0
APPID
  2
ACAD_PSEXT
 70
     0
  0
APPID
  2
ACADANNOPO
 70
     0
  0
APPID
  2
ACADANNOTATIVE
 70
     0
  0
APPID
  2
ACAD_DSTYLE_DIMJAG
 70
     0
  0
APPID
  2
ACAD_DSTYLE_DIMTALN
 70
     0
  0
APPID
  2
ACAD_MLEADERVER
 70
     0
  0
APPID
  2
ACAD_NAV_VCDISPLAY
 70
     0
  0
APPID
  2
ACAD_EXEMPT_FROM_CAD_STANDARDS
 70
     0
  0
ENDTAB
  0
TABLE
  2
DIMSTYLE
 70
     5
  0
DIMSTYLE
  2
STANDARD
 70
     0
  3

  4

  5

  6

  7

 40
1.0
 41
0.18
 42
0.0625
 43
0.38
 44
0.18
 45
0.0
 46
0.0
 47
0.0
 48
0.0
140
0.18
141
0.09
142
0.0
143
25.3999999999999986
144
1.0
145
0.0
146
1.0
147
0.09
 71
     0
 72
     0
 73
     1
 74
     1
 75
     0
 76
     0
 77
     0
 78
     0
170
     0
171
     2
172
     0
173
     0
174
     0
175
     0
176
     0
177
     0
178
     0
  0
DIMSTYLE
  2
ANOTATIVO
 70
     0
  3

  4

  5

  6

  7

 40
0.0
 41
2.5
 42
0.625
 43
3.75
 44
1.25
 45
0.0
 46
0.0
 47
0.0
 48
0.0
140
2.5
141
2.5
142
0.0
143
0.03937007874016
144
1.0
145
0.0
146
1.0
147
0.625
 71
     0
 72
     0
 73
     0
 74
     0
 75
     0
 76
     0
 77
     1
 78
     8
170
     0
171
     3
172
     1
173
     0
174
     0
175
     0
176
     0
177
     0
178
     0
  0
DIMSTYLE
  2
ISO-25
 70
     0
  3

  4

  5

  6

  7

 40
1.0
 41
2.5
 42
0.625
 43
3.75
 44
1.25
 45
0.0
 46
0.0
 47
0.0
 48
0.0
140
2.5
141
2.5
142
0.0
143
0.03937007874016
144
1.0
145
0.0
146
1.0
147
0.625
 71
     0
 72
     0
 73
     0
 74
     0
 75
     0
 76
     0
 77
     1
 78
     8
170
     0
171
     3
172
     1
173
     0
174
     0
175
     0
176
     0
177
     0
178
     0
  0
ENDTAB
  0
ENDSEC
  0
SECTION
  2
BLOCKS
  0
BLOCK
  8
0
  2
$MODEL_SPACE
 70
     0
 10
0.0
 20
0.0
 30
0.0
  3
$MODEL_SPACE
  1

  0
ENDBLK
  5
21
  8
0
  0
BLOCK
 67
     1
  8
0
  2
$PAPER_SPACE
 70
     0
 10
0.0
 20
0.0
 30
0.0
  3
$PAPER_SPACE
  1

  0
ENDBLK
  5
D5
 67
     1
  8
0
  0
ENDSEC
  0
SECTION
  2
ENTITIES
  0
POLYLINE
  5
2AD
  8
0
 66
     1
 10
0.0
 20
0.0
 30
0.0
 70
     1
  0
VERTEX
  5
690
  8
0
 10
5.8162096972782811
 20
6.775167296881591
 30
0.0
  0
VERTEX
  5
691
  8
0
 10
435.8162096972782251
 20
6.775167296881591
 30
0.0
  0
VERTEX
  5
692
  8
0
 10
435.8162096972782251
 20
126.7751672968816052
 30
0.0
  0
VERTEX
  5
693
  8
0
 10
5.8162096972782811
 20
126.7751672968816052
 30
0.0
  0
SEQEND
  5
694
  8
0
  0
POLYLINE
  5
2B7
  8
0
 66
     1
 10
0.0
 20
0.0
 30
0.0
 70
     1
  0
VERTEX
  5
695
  8
0
 10
5.942561381753876
 20
140.5586428565821109
 30
0.0
  0
VERTEX
  5
696
  8
0
 10
5.942561381753876
 20
260.5586428565820825
 30
0.0
  0
VERTEX
  5
697
  8
0
 10
435.9425613817538192
 20
260.5586428565820825
 30
0.0
  0
VERTEX
  5
698
  8
0
 10
435.9425613817538192
 20
140.5586428565821109
 30
0.0
  0
VERTEX
  5
699
  8
0
 10
303.942561381753876
 20
140.5586428565821109
 30
0.0
  0
VERTEX
  5
69A
  8
0
 10
303.942561381753876
 20
224.5586428565821109
 30
0.0
  0
VERTEX
  5
69B
  8
0
 10
247.9425613817539045
 20
224.5586428565821109
 30
0.0
  0
VERTEX
  5
69C
  8
0
 10
247.9425613817539045
 20
140.5586428565821109
 30
0.0
  0
VERTEX
  5
69D
  8
0
 10
223.9425613817539045
 20
140.5586428565821109
 30
0.0
  0
VERTEX
  5
69E
  8
0
 10
223.9425613817539045
 20
224.5586428565821109
 30
0.0
  0
VERTEX
  5
69F
  8
0
 10
191.9425613817539045
 20
224.5586428565821109
 30
0.0
  0
VERTEX
  5
6A0
  8
0
 10
191.9425613817539045
 20
140.5586428565821109
 30
0.0
  0
SEQEND
  5
6A1
  8
0
  0
POLYLINE
  5
2D2
  8
0
 66
     1
 10
0.0
 20
0.0
 30
0.0
 70
     1
  0
VERTEX
  5
6A2
  8
0
 10
441.4484126177221128
 20
6.775167296881591
 30
0.0
  0
VERTEX
  5
6A3
  8
0
 10
441.4484126177221128
 20
126.7751672968816052
 30
0.0
  0
VERTEX
  5
6A4
  8
0
 10
619.448412617722056
 20
126.7751672968816052
 30
0.0
  0
VERTEX
  5
6A5
  8
0
 10
619.448412617722056
 20
6.775167296881591
 30
0.0
  0
VERTEX
  5
6A6
  8
0
 10
582.448412617722056
 20
6.775167296881591
 30
0.0
  0
VERTEX
  5
6A7
  8
0
 10
582.448412617722056
 20
102.7751672968816052
 30
0.0
  0
VERTEX
  5
6A8
  8
0
 10
478.4484126177221128
 20
102.7751672968816052
 30
0.0
  0
VERTEX
  5
6A9
  8
0
 10
478.4484126177221128
 20
6.775167296881591
 30
0.0
  0
SEQEND
  5
6AA
  8
0
  0
POLYLINE
  5
2D3
  8
0
 66
     1
 10
0.0
 20
0.0
 30
0.0
 70
     1
  0
VERTEX
  5
6AB
  8
0
 10
626.212240409907281
 20
8.0661835241226072
 30
0.0
  0
VERTEX
  5
6AC
  8
0
 10
626.212240409907281
 20
128.0661835241226072
 30
0.0
  0
VERTEX
  5
6AD
  8
0
 10
796.212240409907281
 20
128.0661835241226072
 30
0.0
  0
VERTEX
  5
6AE
  8
0
 10
796.212240409907281
 20
8.0661835241226072
 30
0.0
  0
SEQEND
  5
6AF
  8
0
  0
POLYLINE
  5
2E4
  8
0
 66
     1
 10
0.0
 20
0.0
 30
0.0
 70
     1
  0
VERTEX
  5
6B0
  8
0
 10
752.9099655887956715
 20
196.6412711860652962
 30
0.0
  0
VERTEX
  5
6B1
  8
0
 10
668.9099655887956715
 20
196.6412711860652962
 30
0.0
  0
VERTEX
  5
6B2
  8
0
 10
668.9099655887956715
 20
160.6412711860652962
 30
0.0
  0
VERTEX
  5
6B3
  8
0
 10
752.9099655887956715
 20
160.6412711860652962
 30
0.0
  0
VERTEX
  5
6B4
  8
0
 10
752.9099655887956715
 20
133.6412711860652962
 30
0.0
  0
VERTEX
  5
6B5
  8
0
 10
632.9099655887957852
 20
133.6412711860652962
 30
0.0
  0
VERTEX
  5
6B6
  8
0
 10
632.9099655887957852
 20
555.6412711860651825
 30
0.0
  0
VERTEX
  5
6B7
  8
0
 10
752.9099655887956715
 20
555.6412711860651825
 30
0.0
  0
SEQEND
  5
6B8
  8
0
  0
POLYLINE
  5
2E6
  8
0
 66
     1
 10
0.0
 20
0.0
 30
0.0
 70
     1
  0
VERTEX
  5
6B9
  8
0
 10
5.4672333499047454
 20
267.7360506801086899
 30
0.0
  0
VERTEX
  5
6BA
  8
0
 10
305.4672333499046886
 20
267.7360506801086899
 30
0.0
  0
VERTEX
  5
6BB
  8
0
 10
305.4672333499046886
 20
387.7360506801088036
 30
0.0
  0
VERTEX
  5
6BC
  8
0
 10
5.4672333499047454
 20
387.7360506801088036
 30
0.0
  0
SEQEND
  5
6BD
  8
0
  0
POLYLINE
  5
2E7
  8
0
 66
     1
 10
0.0
 20
0.0
 30
0.0
 70
     1
  0
VERTEX
  5
6BE
  8
0
 10
320.9126846689587182
 20
267.7360506801086899
 30
0.0
  0
VERTEX
  5
6BF
  8
0
 10
426.9126846689586046
 20
267.7360506801086899
 30
0.0
  0
VERTEX
  5
6C0
  8
0
 10
426.9126846689586046
 20
351.7360506801086899
 30
0.0
  0
VERTEX
  5
6C1
  8
0
 10
458.9126846689587182
 20
351.7360506801086899
 30
0.0
  0
VERTEX
  5
6C2
  8
0
 10
458.9126846689587182
 20
267.7360506801086899
 30
0.0
  0
VERTEX
  5
6C3
  8
0
 10
578.9126846689587182
 20
267.7360506801086899
 30
0.0
  0
VERTEX
  5
6C4
  8
0
 10
578.9126846689587182
 20
351.7360506801086899
 30
0.0
  0
VERTEX
  5
6C5
  8
0
 10
610.9126846689587182
 20
351.7360506801086899
 30
0.0
  0
VERTEX
  5
6C6
  8
0
 10
610.9126846689587182
 20
267.7360506801086899
 30
0.0
  0
VERTEX
  5
6C7
  8
0
 10
620.9126846689587182
 20
267.7360506801086899
 30
0.0
  0
VERTEX
  5
6C8
  8
0
 10
620.9126846689587182
 20
387.7360506801088036
 30
0.0
  0
VERTEX
  5
6C9
  8
0
 10
320.9126846689587182
 20
387.7360506801088036
 30
0.0
  0
SEQEND
  5
6CA
  8
0
  0
POLYLINE
  5
2EA
  8
0
 66
     1
 10
0.0
 20
0.0
 30
0.0
 70
     1
  0
VERTEX
  5
6CB
  8
0
 10
619.7500643217598508
 20
138.4091624906126867
 30
0.0
  0
VERTEX
  5
6CC
  8
0
 10
609.7500643217599645
 20
138.4091624906126867
 30
0.0
  0
VERTEX
  5
6CD
  8
0
 10
609.7500643217599645
 20
222.4091624906126867
 30
0.0
  0
VERTEX
  5
6CE
  8
0
 10
577.7500643217598508
 20
222.4091624906126867
 30
0.0
  0
VERTEX
  5
6CF
  8
0
 10
577.7500643217598508
 20
138.4091624906126867
 30
0.0
  0
VERTEX
  5
6D0
  8
0
 10
448.7500643217599077
 20
138.4091624906126867
 30
0.0
  0
VERTEX
  5
6D1
  8
0
 10
448.7500643217599077
 20
258.4091624906128004
 30
0.0
  0
VERTEX
  5
6D2
  8
0
 10
619.7500643217598508
 20
258.4091624906128004
 30
0.0
  0
SEQEND
  5
6D3
  8
0
  0
POLYLINE
  5
2EC
  8
0
 66
     1
 10
0.0
 20
0.0
 30
0.0
 70
     1
  0
VERTEX
  5
6D4
  8
0
 10
170.1664374344663884
 20
396.0460817626113226
 30
0.0
  0
VERTEX
  5
6D5
  8
0
 10
170.1664374344663884
 20
480.0460817626112089
 30
0.0
  0
VERTEX
  5
6D6
  8
0
 10
202.1664374344663884
 20
480.0460817626112089
 30
0.0
  0
VERTEX
  5
6D7
  8
0
 10
202.1664374344663884
 20
396.0460817626113226
 30
0.0
  0
VERTEX
  5
6D8
  8
0
 10
330.1664374344663884
 20
396.0460817626113226
 30
0.0
  0
VERTEX
  5
6D9
  8
0
 10
330.1664374344663884
 20
516.0460817626112657
 30
0.0
  0
VERTEX
  5
6DA
  8
0
 10
6.1664374344663884
 20
516.0460817626112657
 30
0.0
  0
VERTEX
  5
6DB
  8
0
 10
6.1664374344663884
 20
396.0460817626113226
 30
0.0
  0
SEQEND
  5
6DC
  8
0
  0
POLYLINE
  5
2ED
  8
0
 66
     1
 10
0.0
 20
0.0
 30
0.0
 70
     1
  0
VERTEX
  5
6DD
  8
0
 10
345.4931897281412034
 20
393.7756908360356078
 30
0.0
  0
VERTEX
  5
6DE
  8
0
 10
470.4931897281412034
 20
393.7756908360356078
 30
0.0
  0
VERTEX
  5
6DF
  8
0
 10
470.4931897281412034
 20
513.7756908360356647
 30
0.0
  0
VERTEX
  5
6E0
  8
0
 10
345.4931897281412034
 20
513.7756908360356647
 30
0.0
  0
SEQEND
  5
6E1
  8
0
  0
POLYLINE
  5
2EE
  8
0
 66
     1
 10
0.0
 20
0.0
 30
0.0
 70
     1
  0
VERTEX
  5
6E2
  8
0
 10
530.8173985729981723
 20
393.775690836034812
 30
0.0
  0
VERTEX
  5
6E3
  8
0
 10
530.8173985729981723
 20
477.7756908360346983
 30
0.0
  0
VERTEX
  5
6E4
  8
0
 10
498.8173985729981155
 20
477.7756908360346983
 30
0.0
  0
VERTEX
  5
6E5
  8
0
 10
498.8173985729981155
 20
393.775690836034812
 30
0.0
  0
VERTEX
  5
6E6
  8
0
 10
484.8173985729981723
 20
393.775690836034812
 30
0.0
  0
VERTEX
  5
6E7
  8
0
 10
484.8173985729981723
 20
513.7756908360347552
 30
0.0
  0
VERTEX
  5
6E8
  8
0
 10
613.8173985729981723
 20
513.7756908360347552
 30
0.0
  0
VERTEX
  5
6E9
  8
0
 10
613.8173985729981723
 20
393.775690836034812
 30
0.0
  0
SEQEND
  5
6EA
  8
0
  0
POLYLINE
  5
2F0
  8
0
 66
     1
 10
0.0
 20
0.0
 30
0.0
 70
     1
  0
VERTEX
  5
6EB
  8
0
 10
793.4007955349716212
 20
138.0840690593944942
 30
0.0
  0
VERTEX
  5
6EC
  8
0
 10
793.4007955349716212
 20
568.084069059394551
 30
0.0
  0
VERTEX
  5
6ED
  8
0
 10
783.4007955349716212
 20
568.084069059394551
 30
0.0
  0
VERTEX
  5
6EE
  8
0
 10
783.4007955349716212
 20
138.0840690593944942
 30
0.0
  0
SEQEND
  5
6EF
  8
0
  0
POLYLINE
  5
300
  8
0
 66
     1
 10
0.0
 20
0.0
 30
0.0
 70
     1
  0
VERTEX
  5
6F0
  8
0
 10
6.9286207954369274
 20
522.0512727261692589
 30
0.0
  0
VERTEX
  5
6F1
  8
0
 10
6.9286207954369274
 20
542.0512727261692589
 30
0.0
  0
VERTEX
  5
6F2
  8
0
 10
606.928620795436359
 20
542.0512727261692589
 30
0.0
  0
VERTEX
  5
6F3
  8
0
 10
606.928620795436359
 20
522.0512727261692589
 30
0.0
  0
SEQEND
  5
6F4
  8
0
  0
POLYLINE
  5
301
  8
0
 66
     1
 10
0.0
 20
0.0
 30
0.0
 70
     1
  0
VERTEX
  5
6F5
  8
0
 10
6.5430252008536618
 20
547.2147865329369552
 30
0.0
  0
VERTEX
  5
6F6
  8
0
 10
6.5430252008536618
 20
567.2147865329369552
 30
0.0
  0
VERTEX
  5
6F7
  8
0
 10
606.543025200853549
 20
567.2147865329369552
 30
0.0
  0
VERTEX
  5
6F8
  8
0
 10
606.543025200853549
 20
547.2147865329369552
 30
0.0
  0
SEQEND
  5
6F9
  8
0
  0
POLYLINE
  5
302
  8
0
 66
     1
 10
0.0
 20
0.0
 30
0.0
 70
     1
  0
VERTEX
  5
6FA
  8
0
 10
777.5822402147285857
 20
133.8339820797837092
 30
0.0
  0
VERTEX
  5
6FB
  8
0
 10
757.5822402147286994
 20
133.8339820797837092
 30
0.0
  0
VERTEX
  5
6FC
  8
0
 10
757.5822402147286994
 20
591.8339820797837092
 30
0.0
  0
VERTEX
  5
6FD
  8
0
 10
777.5822402147285857
 20
591.8339820797837092
 30
0.0
  0
SEQEND
  5
6FE
  8
0
  0
POLYLINE
  5
307
  8
0
 66
     1
 10
0.0
 20
0.0
 30
0.0
 70
     1
  0
VERTEX
  5
6FF
  8
0
 10
6.5567917578464403
 20
573.3288868488880325
 30
0.0
  0
VERTEX
  5
700
  8
0
 10
6.5567917578464403
 20
593.3288868488880325
 30
0.0
  0
VERTEX
  5
701
  8
0
 10
646.5567917578464403
 20
593.3288868488880325
 30
0.0
  0
VERTEX
  5
702
  8
0
 10
646.5567917578464403
 20
573.3288868488880325
 30
0.0
  0
SEQEND
  5
703
  8
0
  0
POLYLINE
  5
367
  8
0
 66
     1
 10
0.0
 20
0.0
 30
0.0
 70
     1
  0
VERTEX
  5
704
  8
0
 10
742.4847857117056265
 20
564.4697409903219523
 30
0.0
  0
VERTEX
  5
705
  8
0
 10
660.4847857117056265
 20
564.4697409903219523
 30
0.0
  0
VERTEX
  5
706
  8
0
 10
660.4847857117056265
 20
590.9697409903219523
 30
0.0
  0
VERTEX
  5
707
  8
0
 10
742.4847857117056265
 20
590.9697409903219523
 30
0.0
  0
SEQEND
  5
708
  8
0
  0
POLYLINE
  5
36F
  8
0
 66
     1
 10
0.0
 20
0.0
 30
0.0
 70
     1
  0
VERTEX
  5
709
  8
0
 10
259.8295189806422059
 20
133.9361005166574046
 30
0.0
  0
VERTEX
  5
70A
  8
0
 10
259.8295189806422059
 20
215.9361005166574898
 30
0.0
  0
VERTEX
  5
70B
  8
0
 10
293.8295189806422059
 20
215.9361005166574898
 30
0.0
  0
VERTEX
  5
70C
  8
0
 10
293.8295189806422059
 20
133.9361005166574046
 30
0.0
  0
SEQEND
  5
70D
  8
0
  0
POLYLINE
  5
3A8
  8
0
 66
     1
 10
0.0
 20
0.0
 30
0.0
 70
     1
  0
VERTEX
  5
70E
  8
0
 10
0.0
 20
0.0
 30
0.0
  0
VERTEX
  5
70F
  8
0
 10
800.0
 20
0.0
 30
0.0
  0
VERTEX
  5
710
  8
0
 10
800.0
 20
600.0
 30
0.0
  0
VERTEX
  5
711
  8
0
 10
0.0
 20
600.0
 30
0.0
  0
SEQEND
  5
712
  8
0
  0
ENDSEC
  0
EOF
